<svg xmlns="http://www.w3.org/2000/svg" width="164.049" height="129.28" viewBox="0 0 164.049 129.28"><rect width="105.662" height="92.866" fill="#f2f2f2"/><rect width="0.517" height="43.557" transform="translate(38.84 14.347)" fill="#f2f2f2"/><rect width="0.517" height="43.557" transform="translate(56.321 14.347)" fill="#f2f2f2"/><rect width="78.81" height="0.517" transform="translate(16.77 14.088)" fill="#f2f2f2"/><rect width="78.81" height="0.517" transform="translate(16.77 38.355)" fill="#f2f2f2"/><rect width="78.81" height="0.517" transform="translate(16.77 57.678)" fill="#f2f2f2"/><rect width="70.215" height="0.517" transform="translate(22.102 81.298)" fill="#3f3d56"/><path d="M46.627,247.154a4.427,4.427,0,1,1,4.427-4.427A4.413,4.413,0,0,1,46.627,247.154Zm0-8.337a3.91,3.91,0,1,0,3.91,3.91A3.9,3.9,0,0,0,46.627,238.817Z" transform="translate(-28.564 -161.299)" fill="#3f3d56"/><rect width="0.517" height="23.491" transform="translate(38.84 57.936)" fill="#3f3d56"/><rect width="0.517" height="42.814" transform="translate(56.321 38.613)" fill="#3f3d56"/><rect width="0.517" height="67.081" transform="translate(74.06 14.347)" fill="#3f3d56"/><circle cx="3.813" cy="3.813" r="3.813" transform="matrix(0.995, -0.099, 0.099, 0.995, 34.927, 78.005)" fill="#3e4ff7"/><circle cx="3.813" cy="3.813" r="3.813" transform="translate(52.895 77.614)" fill="#3e4ff7"/><circle cx="3.813" cy="3.813" r="3.813" transform="translate(70.473 77.614)" fill="#3e4ff7"/><circle cx="3.651" cy="3.651" r="3.651" transform="translate(70.797 10.695)" fill="#3e4ff7"/><circle cx="3.651" cy="3.651" r="3.651" transform="translate(70.7 34.93)" fill="#3e4ff7"/><circle cx="3.651" cy="3.651" r="3.651" transform="translate(53.057 34.962)" fill="#3e4ff7"/><circle cx="3.651" cy="3.651" r="3.651" transform="translate(52.96 54.253)" fill="#3e4ff7"/><circle cx="3.651" cy="3.651" r="3.651" transform="translate(35.544 54.285)" fill="#3e4ff7"/><circle cx="3.393" cy="3.393" r="3.393" transform="translate(7.109 10.954)" fill="#f2f2f2"/><circle cx="3.393" cy="3.393" r="3.393" transform="translate(7.109 34.962)" fill="#f2f2f2"/><circle cx="3.393" cy="3.393" r="3.393" transform="translate(7.109 54.543)" fill="#f2f2f2"/><rect width="22.619" height="2.1" transform="translate(137.199 10.695)" fill="#3f3d56"/><rect width="22.619" height="2.1" transform="translate(137.199 15.445)" fill="#3f3d56"/><rect width="22.619" height="2.1" transform="translate(137.199 20.228)" fill="#3f3d56"/><path d="M312.439,224.771a37.567,37.567,0,0,1-32.345-18.612l-.194-.323,32.248-18.58V150h.388a37.386,37.386,0,0,1-.1,74.771ZM281,206.127a36.63,36.63,0,1,0,31.957-55.351v36.933l-.194.1Z" transform="translate(-189.457 -101.531)" fill="#2f2e41"/><circle cx="14.056" cy="14.056" r="14.056" transform="translate(108.925 71.798)" fill="#3e4ff7"/><circle cx="7.012" cy="7.012" r="7.012" transform="translate(115.969 78.842)" fill="#2f2e41"/><rect width="6.269" height="6.269" transform="translate(92.349 11.18)" fill="#3e4ff7"/><rect width="6.269" height="6.269" transform="translate(92.349 35.188)" fill="#3e4ff7"/><rect width="6.269" height="6.269" transform="translate(92.349 54.77)" fill="#3e4ff7"/><path d="M291.786,248.186H285V241.4h6.786Zm-6.269-.517h5.752v-5.752h-5.752Z" transform="translate(-192.91 -163.398)" fill="#3f3d56"/><rect width="155.94" height="122.981" transform="translate(7.109 5.299)" fill="none" stroke="#3f3d56" stroke-miterlimit="10" stroke-width="2"/></svg>