<svg xmlns="http://www.w3.org/2000/svg" width="163.482" height="128.28" viewBox="0 0 163.482 128.28"><g transform="translate(0.018 -0.013)"><path d="M162.984,88.337c-1.029,8.774-3.147,15.814-6.071,21.441-3.893,7.483-10.529,10.509-16.479,13.655a36.893,36.893,0,0,1-5.345,2.32c-10.811,3.752-22.914,2.763-32.414.766a128.755,128.755,0,0,0-20.231-2.562c-1.936-.081-3.873-.121-5.829-.121-3.005,0-56.962,1.029-70.113-25.576C3.273,91.726,1.054,83.7.247,73.936-2.012,46.3,10.413,28.169,26.429,16.308c30.337-22.43,71.888-21.5,101.76,1.533C148.077,33.171,166.715,56.387,162.984,88.337Z" transform="translate(0)" fill="#3f3d56"/><path d="M327.714,225.169c-8.411-6.293-21.582-12.243-36.146-16.318-13.252-3.711-26.181-5.507-36.408-5.043l-.061-1.19c10.348-.464,23.4,1.351,36.771,5.1,14.684,4.115,28.017,10.126,36.529,16.5Z" transform="translate(-203.66 -161.682)" fill="#f2f2f2"/><path d="M296.192,181.356a39.956,39.956,0,0,1-3.429,16.177c-.182.424-.383.847-.585,1.271A39.756,39.756,0,0,1,216.7,181.356c0-.928.04-1.836.1-2.743.02-.464.061-.928.121-1.372a39.741,39.741,0,0,1,79.27,4.115Z" transform="translate(-173.005 -113.028)" fill="#3e4ff7"/><path d="M293.162,338.751c-.182.424-.383.847-.585,1.271-1.17.121-2.38.222-3.671.282-1.069.04-2.158.081-3.268.081-9.763,0-21.5-1.8-33.5-5.164-13.373-3.752-25.475-9-34.068-14.765-.3-.2-.585-.383-.867-.585.02-.464.061-.928.121-1.372.464.323.928.645,1.412.968,8.492,5.708,20.473,10.892,33.725,14.6,11.9,3.328,23.539,5.123,33.181,5.123,1.109,0,2.178-.02,3.227-.06C290.379,339.034,291.811,338.913,293.162,338.751Z" transform="translate(-173.404 -254.246)" opacity="0.1"/><path d="M242.169,247.034c-9.763,0-21.5-1.8-33.5-5.164-13.393-3.732-25.475-8.976-34.088-14.765-8.774-5.89-12.889-11.7-11.6-16.358,1.311-4.659,7.846-7.463,18.4-7.947l.061,1.19a36.393,36.393,0,0,0-11.941,2.178c-2.985,1.23-4.8,2.864-5.365,4.9s.121,4.377,2.037,6.979a36.483,36.483,0,0,0,9.077,8.068c8.492,5.708,20.473,10.892,33.725,14.6,11.9,3.328,23.539,5.123,33.181,5.123,1.109,0,2.178-.02,3.227-.06a36.4,36.4,0,0,0,11.941-2.178c2.985-1.23,4.8-2.864,5.365-4.9,1.029-3.651-2.057-8.371-8.693-13.333l.706-.948a31.18,31.18,0,0,1,7.5,7.463c1.674,2.582,2.219,4.982,1.614,7.14-1.311,4.659-7.846,7.463-18.4,7.947C244.368,247.014,243.279,247.034,242.169,247.034Z" transform="translate(-129.935 -161.884)" fill="#f2f2f2"/><circle cx="0.464" cy="0.464" r="0.464" transform="translate(84.036 20.504)" fill="#f2f2f2"/><circle cx="0.464" cy="0.464" r="0.464" transform="translate(23.605 39.928)" fill="#f2f2f2"/><circle cx="0.464" cy="0.464" r="0.464" transform="translate(21.931 70.607)" fill="#f2f2f2"/><circle cx="0.303" cy="0.303" r="0.303" transform="translate(115.018 23.388)" fill="#f2f2f2"/><circle cx="0.303" cy="0.303" r="0.303" transform="translate(151.607 66.21)" fill="#f2f2f2"/><circle cx="0.303" cy="0.303" r="0.303" transform="translate(134.906 52.232)" fill="#f2f2f2"/><circle cx="0.303" cy="0.303" r="0.303" transform="translate(51.239 30.226)" fill="#f2f2f2"/><circle cx="0.303" cy="0.303" r="0.303" transform="translate(133.837 62.116)" fill="#f2f2f2"/><circle cx="0.303" cy="0.303" r="0.303" transform="translate(25.743 92.613)" fill="#f2f2f2"/><circle cx="0.303" cy="0.303" r="0.303" transform="translate(43.816 105.079)" fill="#f2f2f2"/><path d="M344.769,39.124h-.424V38.7h-.222v.424H343.7v.222h.424v.424h.222v-.424h.424Z" transform="translate(-274.389 -30.884)" fill="#f2f2f2"/><path d="M569.069,551.023h-.424V550.6h-.222v.424H568v.222h.424v.4h.222v-.4h.424Z" transform="translate(-453.446 -439.53)" fill="#f2f2f2"/><path d="M708.269,520.124h-.424V519.7h-.222v.424H707.2v.222h.424v.424h.222v-.424h.424Z" transform="translate(-564.568 -414.863)" fill="#f2f2f2"/><circle cx="3.348" cy="3.348" r="3.348" transform="translate(80.688 33.857)" fill="#3f3d56"/><circle cx="3.348" cy="3.348" r="3.348" transform="translate(55.031 58.303)" fill="#3f3d56"/><circle cx="3.348" cy="3.348" r="3.348" transform="translate(91.923 91.847)" fill="#3f3d56"/><circle cx="3.348" cy="3.348" r="3.348" transform="translate(80.688 63.467)" fill="#3f3d56"/><circle cx="3.348" cy="3.348" r="3.348" transform="translate(56.705 81.842)" fill="#3f3d56"/><circle cx="3.348" cy="3.348" r="3.348" transform="translate(98.599 45.556)" fill="#3f3d56"/><circle cx="3.348" cy="3.348" r="3.348" transform="translate(109.693 68.167)" fill="#3f3d56"/><circle cx="4.397" cy="4.397" r="4.397" transform="translate(79.639 47.835)" fill="#fff"/><path d="M392.033,227.3a6.237,6.237,0,0,0-6.233,6.233c0,3.449,6.233,14.724,6.233,14.724s6.233-11.3,6.233-14.724A6.25,6.25,0,0,0,392.033,227.3Zm0,9.258a2.884,2.884,0,1,1,2.884-2.884,2.884,2.884,0,0,1-2.884,2.884Z" transform="translate(-307.997 -181.442)" fill="#ff6584"/><circle cx="4.397" cy="4.397" r="4.397" transform="translate(55.656 66.674)" fill="#fff"/><path d="M273.133,320.6a6.237,6.237,0,0,0-6.233,6.233c0,3.449,6.233,14.725,6.233,14.725s6.233-11.3,6.233-14.725A6.25,6.25,0,0,0,273.133,320.6Zm0,9.278a2.884,2.884,0,1,1,2.884-2.884,2.884,2.884,0,0,1-2.884,2.884Z" transform="translate(-213.08 -255.923)" fill="#ff6584"/><circle cx="4.397" cy="4.397" r="4.397" transform="translate(108.644 52.999)" fill="#fff"/><path d="M535.833,252.9a6.237,6.237,0,0,0-6.233,6.233c0,3.429,6.233,14.724,6.233,14.724s6.233-11.3,6.233-14.724A6.25,6.25,0,0,0,535.833,252.9Zm0,9.258a2.884,2.884,0,1,1,2.884-2.884,2.884,2.884,0,0,1-2.884,2.884Z" transform="translate(-422.791 -201.878)" fill="#ff6584"/><circle cx="4.397" cy="4.397" r="4.397" transform="translate(79.639 18.224)" fill="#fff"/><path d="M392.033,80.5a6.237,6.237,0,0,0-6.233,6.233c0,3.449,6.233,14.725,6.233,14.725s6.233-11.3,6.233-14.725A6.25,6.25,0,0,0,392.033,80.5Zm0,9.278a2.884,2.884,0,1,1,2.884-2.884,2.884,2.884,0,0,1-2.884,2.884Z" transform="translate(-307.997 -64.252)" fill="#ff6584"/><circle cx="4.397" cy="4.397" r="4.397" transform="translate(90.874 76.679)" fill="#fff"/><path d="M447.733,370.3a6.237,6.237,0,0,0-6.233,6.233c0,3.449,6.233,14.724,6.233,14.724s6.233-11.3,6.233-14.724A6.25,6.25,0,0,0,447.733,370.3Zm0,9.258a2.884,2.884,0,1,1,2.884-2.884,2.884,2.884,0,0,1-2.884,2.884Z" transform="translate(-352.462 -295.598)" fill="#ff6584"/><circle cx="4.397" cy="4.397" r="4.397" transform="translate(53.982 42.833)" fill="#fff"/><path d="M264.833,202.5a6.237,6.237,0,0,0-6.233,6.233c0,3.449,6.233,14.725,6.233,14.725s6.233-11.3,6.233-14.725A6.25,6.25,0,0,0,264.833,202.5Zm0,9.258a2.884,2.884,0,1,1,2.884-2.884,2.884,2.884,0,0,1-2.884,2.884Z" transform="translate(-206.454 -161.644)" fill="#ff6584"/><circle cx="4.397" cy="4.397" r="4.397" transform="translate(97.55 30.529)" fill="#fff"/><path d="M480.833,141.5a6.237,6.237,0,0,0-6.233,6.233c0,3.449,6.233,14.725,6.233,14.725s6.233-11.3,6.233-14.725A6.237,6.237,0,0,0,480.833,141.5Zm0,9.258a2.884,2.884,0,1,1,2.884-2.884,2.884,2.884,0,0,1-2.884,2.884Z" transform="translate(-378.885 -112.948)" fill="#ff6584"/></g></svg>