<svg xmlns="http://www.w3.org/2000/svg" width="631" height="416.285" viewBox="0 0 631 416.285"><path d="M0,0H631a0,0,0,0,1,0,0V390a10,10,0,0,1-10,10H0a0,0,0,0,1,0,0V0A0,0,0,0,1,0,0Z" transform="translate(0 16.285)" fill="#fbf7c7"/><path d="M734.073,191.8H137.857A17.013,17.013,0,0,0,120.8,207.862H751.13A17.09,17.09,0,0,0,734.073,191.8Z" transform="translate(-120.8 -191.8)" fill="#3e4ff7"/><ellipse cx="4.283" cy="4.283" rx="4.283" ry="4.283" transform="translate(12.773 4.283)" fill="#ededf4"/><ellipse cx="4.283" cy="4.283" rx="4.283" ry="4.283" transform="translate(25.623 4.283)" fill="#ededf4"/><ellipse cx="4.283" cy="4.283" rx="4.283" ry="4.283" transform="translate(38.473 4.283)" fill="#ededf4"/></svg>