<svg xmlns="http://www.w3.org/2000/svg" width="631.495" height="416.975" viewBox="0 0 631.495 416.975"><path d="M0,0H631a0,0,0,0,1,0,0V391a10,10,0,0,1-10,10H0a0,0,0,0,1,0,0V0A0,0,0,0,1,0,0Z" transform="translate(0.495 15.975)" fill="#cedafd"/><path d="M734.88,191.8h-597A17.035,17.035,0,0,0,120.8,207.883H751.959A17.112,17.112,0,0,0,734.88,191.8Z" transform="translate(-120.8 -191.8)" fill="#3e4ff7"/><circle cx="4.289" cy="4.289" r="4.289" transform="translate(12.79 4.289)" fill="#ededf4"/><circle cx="4.289" cy="4.289" r="4.289" transform="translate(25.657 4.289)" fill="#ededf4"/><circle cx="4.289" cy="4.289" r="4.289" transform="translate(38.524 4.289)" fill="#ededf4"/></svg>