<svg xmlns="http://www.w3.org/2000/svg" xmlns:xlink="http://www.w3.org/1999/xlink" width="270.804" height="392.069" viewBox="0 0 270.804 392.069">
  <defs>
    <linearGradient id="linear-gradient" x1="0.5" y1="-0.039" x2="0.5" y2="0.958" gradientUnits="objectBoundingBox">
      <stop offset="0.237" stop-color="#8cc6ff"/>
      <stop offset="1" stop-color="#0060ff" stop-opacity="0"/>
    </linearGradient>
    <clipPath id="clip-path">
      <rect id="Rectangle_389" data-name="Rectangle 389" width="172.859" height="244.098" fill="none"/>
    </clipPath>
    <clipPath id="clip-path-2">
      <path id="Path_692" data-name="Path 692" d="M258.82,182.242H241.788a58.579,58.579,0,0,0-4.941-11.944l12.037-12.039-23.246-23.244L213.6,147.052a58.518,58.518,0,0,0-11.944-4.943V125.08H168.783v17.03a58.517,58.517,0,0,0-11.944,4.943L144.8,135.015l-23.246,23.244L133.594,170.3a58.578,58.578,0,0,0-4.941,11.944H111.622v32.873h17.032a58.642,58.642,0,0,0,4.941,11.946L121.556,239.1,144.8,262.343,156.84,250.3a58.633,58.633,0,0,0,11.944,4.943v17.029h32.875V255.247A58.633,58.633,0,0,0,213.6,250.3l12.037,12.039L248.887,239.1,236.848,227.06a58.642,58.642,0,0,0,4.941-11.946H258.82Zm-57.706,40.351c-27.3,15.356-55.163-12.51-39.808-39.808a21.089,21.089,0,0,1,8.021-8.019c27.3-15.358,55.165,12.51,39.808,39.808a21.089,21.089,0,0,1-8.021,8.019m57.706-40.351H241.788a58.579,58.579,0,0,0-4.941-11.944l12.037-12.039-23.246-23.244L213.6,147.052a58.518,58.518,0,0,0-11.944-4.943V125.08H168.783v17.03a58.517,58.517,0,0,0-11.944,4.943L144.8,135.015l-23.246,23.244L133.594,170.3a58.578,58.578,0,0,0-4.941,11.944H111.622v32.873h17.032a58.642,58.642,0,0,0,4.941,11.946L121.556,239.1,144.8,262.343,156.84,250.3a58.633,58.633,0,0,0,11.944,4.943v17.029h32.875V255.247A58.633,58.633,0,0,0,213.6,250.3l12.037,12.039L248.887,239.1,236.848,227.06a58.642,58.642,0,0,0,4.941-11.946H258.82Zm-57.706,40.351c-27.3,15.356-55.163-12.51-39.808-39.808a21.089,21.089,0,0,1,8.021-8.019c27.3-15.358,55.165,12.51,39.808,39.808a21.089,21.089,0,0,1-8.021,8.019m57.706-40.351H241.788a58.579,58.579,0,0,0-4.941-11.944l12.037-12.039-23.246-23.244L213.6,147.052a58.518,58.518,0,0,0-11.944-4.943V125.08H168.783v17.03a58.517,58.517,0,0,0-11.944,4.943L144.8,135.015l-23.246,23.244L133.594,170.3a58.578,58.578,0,0,0-4.941,11.944H111.622v32.873h17.032a58.642,58.642,0,0,0,4.941,11.946L121.556,239.1,144.8,262.343,156.84,250.3a58.633,58.633,0,0,0,11.944,4.943v17.029h32.875V255.247A58.633,58.633,0,0,0,213.6,250.3l12.037,12.039L248.887,239.1,236.848,227.06a58.642,58.642,0,0,0,4.941-11.946H258.82Zm-57.706,40.351c-27.3,15.356-55.163-12.51-39.808-39.808a21.089,21.089,0,0,1,8.021-8.019c27.3-15.358,55.165,12.51,39.808,39.808a21.089,21.089,0,0,1-8.021,8.019M182.86,65.809H171.647a38.507,38.507,0,0,0-3.251-7.864l7.926-7.924-15.3-15.3-7.924,7.926a38.624,38.624,0,0,0-7.864-3.253V28.179h-21.64V39.39a38.577,38.577,0,0,0-7.864,3.253L107.8,34.717l-15.3,15.3,7.926,7.924a38.623,38.623,0,0,0-3.253,7.864H85.959V87.451H97.17a38.653,38.653,0,0,0,3.253,7.862L92.5,103.237l15.3,15.3,7.924-7.926a38.577,38.577,0,0,0,7.864,3.253V125.08h21.64V113.869a38.624,38.624,0,0,0,7.864-3.253l7.924,7.926,15.3-15.3L168.4,95.313a38.537,38.537,0,0,0,3.251-7.862H182.86ZM144.872,92.374c-17.972,10.108-36.315-8.238-26.205-26.207a13.873,13.873,0,0,1,5.278-5.28c17.974-10.11,36.317,8.236,26.207,26.207a13.892,13.892,0,0,1-5.28,5.28M182.86,65.809H171.647a38.507,38.507,0,0,0-3.251-7.864l7.926-7.924-15.3-15.3-7.924,7.926a38.624,38.624,0,0,0-7.864-3.253V28.179h-21.64V39.39a38.577,38.577,0,0,0-7.864,3.253L107.8,34.717l-15.3,15.3,7.926,7.924a38.623,38.623,0,0,0-3.253,7.864H85.959V87.451H97.17a38.653,38.653,0,0,0,3.253,7.862L92.5,103.237l15.3,15.3,7.924-7.926a38.577,38.577,0,0,0,7.864,3.253V125.08h21.64V113.869a38.624,38.624,0,0,0,7.864-3.253l7.924,7.926,15.3-15.3L168.4,95.313a38.537,38.537,0,0,0,3.251-7.862H182.86ZM144.872,92.374c-17.972,10.108-36.315-8.238-26.205-26.207a13.873,13.873,0,0,1,5.278-5.28c17.974-10.11,36.317,8.236,26.207,26.207a13.892,13.892,0,0,1-5.28,5.28M182.86,65.809H171.647a38.507,38.507,0,0,0-3.251-7.864l7.926-7.924-15.3-15.3-7.924,7.926a38.624,38.624,0,0,0-7.864-3.253V28.179h-21.64V39.39a38.577,38.577,0,0,0-7.864,3.253L107.8,34.717l-15.3,15.3,7.926,7.924a38.623,38.623,0,0,0-3.253,7.864H85.959V87.451H97.17a38.653,38.653,0,0,0,3.253,7.862L92.5,103.237l15.3,15.3,7.924-7.926a38.577,38.577,0,0,0,7.864,3.253V125.08h21.64V113.869a38.624,38.624,0,0,0,7.864-3.253l7.924,7.926,15.3-15.3L168.4,95.313a38.537,38.537,0,0,0,3.251-7.862H182.86ZM144.872,92.374c-17.972,10.108-36.315-8.238-26.205-26.207a13.873,13.873,0,0,1,5.278-5.28c17.974-10.11,36.317,8.236,26.207,26.207a13.892,13.892,0,0,1-5.28,5.28" transform="translate(-85.959 -28.179)" fill="none"/>
    </clipPath>
  </defs>
  <g id="Group_268" data-name="Group 268" transform="translate(-1321.701 -151.431)">
    <path id="Path_4126" data-name="Path 4126" d="M1280.21,439.151l-.792.364-1.442.7c-.943.461-1.789.929-2.673,1.4q-2.557,1.423-4.954,2.931a107.959,107.959,0,0,0-9.13,6.453,123.833,123.833,0,0,0-16.007,14.988,137.846,137.846,0,0,0-13.157,17.241,153.522,153.522,0,0,0-10.254,18.863,166.952,166.952,0,0,0-7.512,19.864c-.947,3.379-2.009,6.745-2.754,10.156l-1.2,5.107-.985,5.128a214.143,214.143,0,0,0-3.13,25.322V535.56a157.094,157.094,0,0,1,6.275-23.315c4.576-13.69,11.335-29.542,18.84-46.689,6.153-14.023,11.407-26.357,16.277-36.366,4.846-9.994,9.683-17.375,13.632-21.317-3.9,3.9-11.247,8.966-19.173,17.452a123.507,123.507,0,0,0-23.088,34.757,165.211,165.211,0,0,0-12.763,47.73V438.577a62.283,62.283,0,0,1,6.273-13.8c4.565-7.854,10.873-16.548,17.206-26.539a173.612,173.612,0,0,0,11.825-22.663c2.915-6.642,5.285-11.866,7.244-14.777-1.973,2.929-6.923,5.965-12.6,10.657a81.569,81.569,0,0,0-17.893,19.564,85.967,85.967,0,0,0-12.057,31V395.5c1.863-12.223,5.794-30.649,5.794-51.962,0-22.827-6.756-39.894-6.756-47.957,0,8.063-6.756,25.13-6.756,47.957,0,21.319,3.932,39.748,5.795,51.973V424.4a184.83,184.83,0,0,0-13.863-52.336,145.877,145.877,0,0,0-24.4-38.007c-8.315-9.4-15.927-15.335-20.442-19.272,4.588,4.005,9.623,12.185,14.835,23.042,5.258,10.876,10.894,24.39,17.621,39.653,8.079,18.732,15.161,36.038,19.933,50.974a166.146,166.146,0,0,1,6.312,25.592v44.58q-.881-8.295-2.322-16.439a266.957,266.957,0,0,0-8.925-35.721,307.3,307.3,0,0,0-13.271-34.144c-2.536-5.575-5.346-11.072-8.313-16.548a159.229,159.229,0,0,0-10.432-16.509c4.851,6.551,5.515,13.38,4.925,19.942a54.256,54.256,0,0,1-2.07,9.544c-.979,3.075-2.117,6-3.212,8.712-1.616,3.924-1.363,6.887-.039,9.357,1.254,2.5,3.5,4.536,5.832,6.482,4.52,3.919,9.314,7.611,5.969,13.035-3.242,5.377-7.208,10.425-6.889,16.275.115,2.945,1.2,6.115,4,9.8,2.616,3.726,7.024,7.928,13.269,13.393a74.829,74.829,0,0,1,10.295,10.937,93.547,93.547,0,0,1,7.134,10.941c1.822,3.377,3.057,6.354,3.946,8.455.038.09.07.171.107.259v50.976c-.184-1.141-5.8-33.28-24.894-51.055-17.94-16.7-34.683-22.015-39.086-24.46,4.439,2.454,29.7,33.648,37.948,44.393,12.732,16.579,26.028,37.332,26.028,60.3l0,.031v69.555h1.922V578.263a31.256,31.256,0,0,1,1.573-5.881,39.294,39.294,0,0,1,5.273-9.3,59.166,59.166,0,0,1,7.119-7.557c2.587-2.241,5.213-4.225,7.679-6.027,3.635-2.572,5.148-5.372,5.6-8.381.565-2.972-.129-6.221-.607-9.386-.27-1.59-.563-3.177-.76-4.715a19.069,19.069,0,0,1-.005-4.336,6.856,6.856,0,0,1,4.716-6.066c6.135-2.3,12.479-3.586,16.412-8.165a14.413,14.413,0,0,0,2.606-4.135,26.845,26.845,0,0,0,1.825-5.881c.948-4.675,1.433-10.8,2.2-19.578A61.975,61.975,0,0,1,1270.4,450.3c4.936-7.278,10.032-11.3,10.889-11.616Z" transform="translate(311.215 -144.154)" fill="url(#linear-gradient)"/>
    <g id="Group_235" data-name="Group 235" transform="translate(1321.701 299.402)" opacity="0.788">
      <g id="Group_267" data-name="Group 267">
        <g id="Group_266" data-name="Group 266" clip-path="url(#clip-path)" style="isolation: isolate">
          <g id="Group_265" data-name="Group 265" transform="translate(0)">
            <g id="Group_264" data-name="Group 264" clip-path="url(#clip-path-2)">
              <rect id="Rectangle_388" data-name="Rectangle 388" width="276.662" height="298.711" transform="translate(-110.357 69.922) rotate(-32.358)" fill="#fda730"/>
            </g>
          </g>
        </g>
      </g>
    </g>
  </g>
</svg>
