<svg id="bain-ventures-logo_1_" data-name="bain-ventures-logo (1)" xmlns="http://www.w3.org/2000/svg" width="165.191" height="27.568" viewBox="0 0 165.191 27.568">
  <path id="Path_493" data-name="Path 493" d="M0,28.151l8.851-4.4L0,19.3Z" transform="translate(0 -10.449)" fill="#fff"/>
  <path id="Path_494" data-name="Path 494" d="M0,33.4v8.851L17.7,33.4,8.851,29Z" transform="translate(0 -15.7)" fill="#626262"/>
  <path id="Path_495" data-name="Path 495" d="M0,47.451H26.554V43L17.7,38.6Z" transform="translate(0 -20.897)" fill="#252525"/>
  <path id="Path_496" data-name="Path 496" d="M0,0V8.851L8.851,13.3,17.7,8.851Z" fill="#858585"/>
  <path id="Path_497" data-name="Path 497" d="M0,0,17.7,8.851,26.554,4.4V0Z" fill="#252525"/>
  <path id="Path_498" data-name="Path 498" d="M28.151,14.049,19.3,18.5l8.851,4.4L37,27.3V9.6Z" transform="translate(-10.449 -5.197)" fill="#c4c4c4"/>
  <path id="Path_499" data-name="Path 499" d="M192.533,20.058a18.473,18.473,0,0,0-2.247.138c-1.376.229-2.11.917-2.11,2.156a1.535,1.535,0,0,0,1.743,1.6,2.6,2.6,0,0,0,2.66-2.843l-.046-1.055Zm-3.623,6.329a3.817,3.817,0,0,1-4.128-3.99c0-2.2,1.422-3.531,3.761-4.082a16.751,16.751,0,0,1,3.99-.321c0-1.88-.78-2.522-2.752-2.522a8.954,8.954,0,0,0-3.623.871V13.637a10.269,10.269,0,0,1,4.082-.78c4.128,0,5.6,1.88,5.6,5.366V23.4h1.6V26.02h-4.586l-.229-1.33h-.046a4.452,4.452,0,0,1-3.669,1.7M147.5,20.058a18.473,18.473,0,0,0-2.247.138c-1.376.229-2.11.917-2.11,2.156a1.535,1.535,0,0,0,1.743,1.6,2.6,2.6,0,0,0,2.66-2.843V20.058Zm-3.623,6.329a3.817,3.817,0,0,1-4.128-3.99c0-2.2,1.422-3.531,3.761-4.082a16.75,16.75,0,0,1,3.99-.321c0-1.88-.78-2.522-2.706-2.522a8.954,8.954,0,0,0-3.623.871V13.637a10.269,10.269,0,0,1,4.082-.78c4.128,0,5.641,1.88,5.641,5.366V23.4H152.5V26.02h-4.59l-.275-1.33h-.046a4.538,4.538,0,0,1-3.715,1.7m-47.33-6.332A18.472,18.472,0,0,0,94.3,20.2c-1.376.229-2.11.917-2.11,2.156a1.535,1.535,0,0,0,1.743,1.6,2.6,2.6,0,0,0,2.66-2.843l-.046-1.055Zm-3.577,6.329A3.817,3.817,0,0,1,88.84,22.4c0-2.2,1.422-3.531,3.761-4.082A16.75,16.75,0,0,1,96.591,18c0-1.88-.78-2.522-2.706-2.522a8.954,8.954,0,0,0-3.623.871V13.637a10.269,10.269,0,0,1,4.082-.78c4.128,0,5.641,1.88,5.641,5.366V23.4h1.605V26.02H97l-.275-1.33h-.046a4.66,4.66,0,0,1-3.715,1.7m70.857-6.833c0-2.431-1.192-4.036-3.027-4.036s-3.027,1.6-3.027,3.99,1.147,4.036,2.935,4.036c1.834.046,3.119-1.559,3.119-3.99m3.394,0c0,4.036-2.293,6.788-5.641,6.788a4.419,4.419,0,0,1-3.761-1.605h0V30.2l-3.348,1.376V15.7h-1.7V13.087h4.77l.229,1.7h.046a4.09,4.09,0,0,1,3.807-1.926c3.44,0,5.6,2.66,5.6,6.7m-48.843-6.7a5.1,5.1,0,0,0-4.173,1.926h-.046l-.229-1.7h-5V15.7h1.88V26.066H114.2V20.058c0-3.21,1.7-4.4,3.164-4.4,1.376,0,2.018.871,2.018,2.889v7.521h3.348v-8.3c-.046-3.21-1.559-4.907-4.357-4.907m15.318,10.411c-3.44,0-5.458-2.339-5.458-6.054,0-3.623,2.018-6.1,5.182-6.1a9.139,9.139,0,0,1,2.247.275v3.669l2.981-1.238V9.51a10.061,10.061,0,0,0-5.137-1.284c-5.274,0-8.9,3.256-8.9,9.081,0,5.5,3.21,9.081,8.9,9.081a11.4,11.4,0,0,0,5.182-1.284l-.734-2.843a8.726,8.726,0,0,1-4.265,1.009m68.93.183V7.4l-3.394,1.376v17.29h5V23.452ZM84.208,20.838c0-1.7-1.238-2.568-3.3-2.568H77.7v5.182h3.256c2.339,0,3.3-1.055,3.256-2.614M77.654,15.61H80.36c1.926,0,2.889-.917,2.889-2.2,0-1.513-.917-2.293-2.66-2.293h-2.94Zm10.135,5.366c0,3.348-2.66,5.091-6.65,5.091H74.21V11.115H72.1V8.5h8.484a7.938,7.938,0,0,1,4.357.871,3.917,3.917,0,0,1,1.834,3.486,3.809,3.809,0,0,1-3.027,3.761v.046c2.522.413,4.036,2.064,4.036,4.311m80.4-5.274h1.834V26.066h3.348V13.087h-5.182Zm1.834-4.861h3.348V7.675h-3.394l.046,3.164ZM101.864,15.7H103.7V26.066h3.394V13.087h-5.228Zm1.836-4.86h3.394V7.675H103.7Zm76.727,2.247h3.44V15.7h-3.44v5.733c0,1.422.321,2.293,1.7,2.293a8.628,8.628,0,0,0,1.513-.229V26.02a12.819,12.819,0,0,1-2.614.367c-2.614,0-3.944-1.284-3.944-4.082V15.7h-1.834V13.087h1.834v-2.2l3.348-1.376v3.577Z" transform="translate(-39.034 -4.006)" fill="#1e266d"/>
</svg>
