<svg height="452.729" viewBox="0 0 747.086 452.729" width="747.086" xmlns="http://www.w3.org/2000/svg" xmlns:xlink="http://www.w3.org/1999/xlink"><linearGradient id="a" gradientUnits="objectBoundingBox" x1=".58" x2=".58" y1="-1.374" y2="-.374"><stop offset="0" stop-color="#808080" stop-opacity=".251"/><stop offset=".54" stop-color="#808080" stop-opacity=".122"/><stop offset="1" stop-color="#808080" stop-opacity=".102"/></linearGradient><linearGradient id="b" x1=".588" x2="1.587" xlink:href="#a" y1="-9.089" y2="-9.089"/><linearGradient id="c" x1=".5" x2=".5" xlink:href="#a" y1="-1.765" y2="-.765"/><linearGradient id="d" x1=".5" x2=".5" xlink:href="#a" y1="-5.324" y2="-4.324"/><linearGradient id="e" x1=".5" x2=".5" xlink:href="#a" y1="-8.199" y2="-7.198"/><clipPath id="f"><path d="m0 0h50.454v34.016h-50.454z"/></clipPath><linearGradient id="g" x1=".5" x2=".5" xlink:href="#a" y1="-7.89" y2="-6.89"/><linearGradient id="h" x1=".5" x2=".5" xlink:href="#a" y1="-12.319" y2="-11.318"/><linearGradient id="i" x1="1.271" x2="1.271" xlink:href="#a" y1="-2.119" y2="-1.231"/><linearGradient id="j" x1="1.937" x2="1.937" xlink:href="#a" y1="-7.147" y2="-6.389"/><linearGradient id="k" gradientUnits="objectBoundingBox" x1="1.198" x2="1.198" y1="-3.219" y2="-2.219"><stop offset="0" stop-color="#b3b3b3" stop-opacity=".251"/><stop offset=".54" stop-color="#b3b3b3" stop-opacity=".102"/><stop offset="1" stop-color="#b3b3b3" stop-opacity=".051"/></linearGradient><linearGradient id="l" gradientUnits="objectBoundingBox" x1="15.231" x2="15.231" y1="-59.928" y2="-58.928"><stop offset="0" stop-opacity=".122"/><stop offset=".55" stop-opacity=".09"/><stop offset="1" stop-opacity=".02"/></linearGradient><linearGradient id="m" x1="2.147" x2="2.147" xlink:href="#l" y1="-18.146" y2="-17.148"/><path d="m642.16 124.724a145.328 145.328 0 0 0 -24.3-38.085l-337.39-3.255 277.763-38.355a160.286 160.286 0 0 0 -56.367-11.013 160.147 160.147 0 0 0 -188.741-6.293 159.782 159.782 0 0 0 -72.209-17.089c-74.976-.001-137.416 51.05-151.416 118.756z" fill="#3e4ff7" opacity=".1" transform="translate(-39.058)"/><path d="m379.11 291.57 36.783 5.588 1.248.163.814.108 1.519.217 6.13.922 65.59 9.982 21.429 3.255 95.428 14.539c-12.641 46.711-48.664 84.415-95.428 101.125-2.007.705-4.015 1.411-6.076 2.062a151.486 151.486 0 0 1 -68.791 67.977h-141.434a154.655 154.655 0 0 1 -28.97-18.554c-1.79-1.465-3.581-2.93-5.262-4.449l-1.953-1.79c-.868.76-1.736 1.573-2.6 2.333-2.062 1.79-4.177 3.526-6.347 5.154a158.177 158.177 0 0 1 -27.994 17.306h-138.296a150.429 150.429 0 0 1 -19.31-11.008c-37.108-24.742-62.226-64.726-65.59-110.46l65.482-6.84 18.391-1.9 55.608-5.8 45.68-4.774-64.451-9.44-39.549-5.8-15.679-2.286-61.358-9.06a144.493 144.493 0 0 1 13.671-34.016l47.633-4.937 39.332-4.069 39.549-4.015 67.38-6.944.922-.109 201.11-20.724 9.006-.977 89.949-9.277 89.841-9.277a141.9 141.9 0 0 1 10.525 53.6v2.17z" fill="#3e4ff7" opacity=".1" transform="translate(1.887 -107.875)"/><path d="m928.877 494.2s0 15.3-4.177 16.384" fill="none" stroke="#444053" stroke-miterlimit="10" transform="translate(-421.149 -226.089)"/><path d="m869.5 524.761s16.547 1.41 24.2-7.161" fill="none" stroke="#444053" stroke-miterlimit="10" transform="translate(-395.896 -236.794)"/><path d="m911.782 460.8s-4.015 15.57-15.082 19.748" fill="none" stroke="#444053" stroke-miterlimit="10" transform="translate(-408.34 -210.809)"/><path d="m851.2 495.293s11.718 4.069 21.809-6.293" fill="none" stroke="#444053" stroke-miterlimit="10" transform="translate(-387.524 -223.71)"/><path d="m893.5 436.2s-1.085 13.183-8.3 19.368" fill="none" stroke="#444053" stroke-miterlimit="10" transform="translate(-403.079 -199.555)"/><path d="m852 460.892s9.711.054 11.99-3.092" fill="none" stroke="#444053" stroke-miterlimit="10" transform="translate(-387.89 -209.436)"/><path d="m567.9 212.559v261.927a12.132 12.132 0 0 1 -12.152 12.152h-422.896a12.145 12.145 0 0 1 -12.1-11.013 8.015 8.015 0 0 1 -.054-1.139v-261.927a3.338 3.338 0 0 1 .054-.76h447.089a3.336 3.336 0 0 1 .059.76z" fill="#b2befa" transform="translate(-53.332 -96.895)"/><path d="m555.789 191.8h-422.889a12.067 12.067 0 0 0 -12.1 11.393h447.087a12.122 12.122 0 0 0 -12.098-11.393z" fill="#3e4ff7" transform="translate(-53.377 -87.746)"/><circle cx="79.52" cy="110.131" fill="#ededf4" r="3.038"/><circle cx="88.635" cy="110.131" fill="#ededf4" r="3.038"/><circle cx="97.749" cy="110.131" fill="#ededf4" r="3.038"/><g fill="#3e4ff7"><path d="m83.101 125.104h63.095v5.805h-63.095z"/><path d="m83.101 153.423h63.095v5.805h-63.095z" opacity=".5"/><path d="m83.101 173.442h63.095v5.805h-63.095z" opacity=".5"/><path d="m83.101 193.515h63.095v5.805h-63.095z" opacity=".5"/><path d="m83.101 213.534h63.095v5.805h-63.095z" opacity=".5"/><path d="m83.101 233.553h63.095v5.805h-63.095z" opacity=".5"/><path d="m83.101 253.572h63.095v5.805h-63.095z" opacity=".5"/><path d="m83.101 273.591h63.095v5.805h-63.095z" opacity=".5"/></g><path d="m213.522 146.479h279.558v.922h-279.558z" fill="#dce0ed" opacity=".5"/><path d="m213.522 168.18h279.558v.922h-279.558z" fill="#dce0ed" opacity=".5"/><path d="m213.522 189.826h279.558v.922h-279.558z" fill="#dce0ed" opacity=".5"/><path d="m213.522 211.527h279.558v.922h-279.558z" fill="#dce0ed" opacity=".5"/><path d="m213.522 233.227h279.558v.922h-279.558z" fill="#dce0ed" opacity=".5"/><path d="m669.438 368.833h-279.938v-42.642l25.661 12.641 26.583 3.581 23.328-7 28.1-21.809 14.16-8.192 10.308-2.007 9.928.542 16.276 8.029 22.08 14.105 17.361 2.224 13.78-4.72 29.187-23.925 14.865-5.262 15.624 2.387 12.695 7.324z" fill="#3e4ff7" opacity=".5" transform="translate(-176.304 -134.683)"/><path d="m438.272 342.385c-25.227 0-48.5-15.407-48.772-15.624l.705-1.031c.38.217 36.24 23.979 66.675 12.1 11.122-4.34 19.042-11.067 26.692-17.577 7.975-6.781 15.516-13.237 25.824-16a38.554 38.554 0 0 1 34.504 7.747c8.355 6.89 25.064 17.9 42.642 14.648 9.006-1.682 16.547-8.246 24.576-15.19 15.353-13.346 31.249-27.126 58.754-7.324l-.76 1.031c-26.692-19.205-42.208-5.751-57.181 7.27-8.138 7.053-15.841 13.726-25.118 15.462-18.12 3.418-35.155-7.866-43.673-14.865a37.373 37.373 0 0 0 -33.473-7.649c-10.037 2.713-17.469 9.06-25.335 15.787-7.7 6.564-15.733 13.4-27.017 17.794a51.878 51.878 0 0 1 -19.043 3.421z" fill="#3e4ff7" transform="translate(-176.304 -134.602)"/><circle cx="348.066" cy="168.614" fill="#3e4ff7" r="6.944"/><g fill="#dce0ed" opacity=".5"><path d="m238.261 282.759h41.123v8.734h-41.123z"/><path d="m332.604 282.759h41.123v8.734h-41.123z"/><path d="m426.948 282.759h41.123v8.734h-41.123z"/></g><path d="m425.451 609.519c0-12.749 10.362-22.514 23.111-22.514h.163v-5.8h-.163c-15.95 0-28.862 12.369-28.862 28.319a28.8 28.8 0 0 0 9.874 21.755l4.123-4.123a22.94 22.94 0 0 1 -8.246-17.637z" fill="#3e4ff7" transform="translate(-190.12 -265.89)"/><path d="m458 581.2v5.8a23.084 23.084 0 1 1 -15.082 40.689l-4.123 4.123a28.873 28.873 0 0 0 38.03-43.455 28.538 28.538 0 0 0 -18.825-7.157z" fill="#3e4ff7" opacity=".5" transform="translate(-198.858 -265.89)"/><path d="m804.9 586.5c12.749 0 22.514 10.362 22.514 23.057v.163h5.8v-.163c0-15.9-12.369-28.862-28.319-28.862a28.956 28.956 0 0 0 -21.7 9.874l4.123 4.123a22.791 22.791 0 0 1 17.582-8.192z" fill="#3e4ff7" opacity=".5" transform="translate(-356.415 -265.661)"/><path d="m826.6 619.105h-5.8a23.084 23.084 0 1 1 -40.689-15.082l-4.123-4.123a28.873 28.873 0 0 0 43.455 38.03 28.367 28.367 0 0 0 7.161-18.825z" fill="#3e4ff7" transform="translate(-349.854 -274.445)"/><path d="m635.417 584.4-1.139 5.751c8.463 3.418 13.888 11.718 13.888 21.429a23.084 23.084 0 1 1 -32.334-21.212l-2.6-5.154a28.884 28.884 0 1 0 40.743 26.366c-.004-12.532-7.437-23.165-18.558-27.18z" fill="#3e4ff7" opacity=".5" transform="translate(-270.859 -267.354)"/><path d="m640.827 586.451a19.56 19.56 0 0 1 8.029 1.682l1.144-5.751a25.191 25.191 0 0 0 -9.168-1.682 28.623 28.623 0 0 0 -11.832 2.55l2.6 5.208a21.558 21.558 0 0 1 9.227-2.007z" fill="#3e4ff7" transform="translate(-285.871 -265.661)"/><path d="m104.742 318.866c1.573-4.177-1.194-8.572-1.194-8.572l-.217-9.548c1.194-2.5-2.984-8.789-2.984-8.789s-.977-4.72-1.9-5.154-1.9-2.387-1.9-2.387a1.41 1.41 0 0 0 -.868-1.3 58.942 58.942 0 0 1 -4.015-8.843 10.448 10.448 0 0 1 -.814-5.262 11.785 11.785 0 0 1 .38-1.3l.108-.271.054-.109.054-.109a6.33 6.33 0 0 0 .654-2.822c-.108-2.062-2.007-3.526-3.852-4.394s-3.96-1.41-5.425-2.875c-1.845-1.79-2.279-4.5-2.713-7.053-.434-2.5-1.085-5.262-3.147-6.781-1.845-1.356-4.34-1.356-6.564-.977a22.545 22.545 0 0 0 -8.463 3.364c-2.5 1.628-4.666 3.852-7.541 4.72-1.031.325-2.17.434-3.2.814a7.991 7.991 0 0 0 -4.774 4.774c-.054.109-.054.217-.109.326a1.006 1.006 0 0 0 -.109.38l-.054.325a.923.923 0 0 0 -.054.38c0 .108-.054.217-.054.326s-.054.271-.054.38a.688.688 0 0 1 -.054.326c-.054.109 0 .271 0 .434a17.006 17.006 0 0 0 -3.038 3.8c-3.635 5.751-8.192 14.16-10.2 17.9l-.109.163v-.109s-8.9 8.952-3.689 7.7a9.571 9.571 0 0 1 1.085-.217l-.054.976c-.814 1.031-4.449 4.666 2.279 7.324 5.534 2.224 16.872 2.767 20.616 2.93l-.326 1.573c-5.751 4.72-3.526 10.091-3.635 13.617s-.651 7.7-.651 7.7-2.441 4.015-2.116 6.076-1.79 5.479-1.79 5.479-3.092 3.418-2.767 5.588a14.054 14.054 0 0 1 -.538 5.049s-2.116 3.852-1.194 6.022a4.858 4.858 0 0 1 .434 3.418s-4.557.651-4.883 3.092-4.449 3.309-4.449 3.309-7.27 2.6-9.06 3.852-11.176 9.982-11.176 9.982-9.442 9.658-9.984 10.634-6.076 5.154-3.472 9.114c.109.217.271.38.38.6a33.318 33.318 0 0 0 10.2 9.657c1.79 1.085 3.581 2.333 4.069 3.147 1.139 1.79 20.561 14.214 20.561 14.214s8.517 7.487 14.051 12.695l.434 2.5a2.363 2.363 0 0 0 -.217.38 1.593 1.593 0 0 0 .488 1.465l.054.434s2.224 18.663 4.232 27.343a23.2 23.2 0 0 1 -.38 12.424 11.97 11.97 0 0 1 -2.333-3.092 26.681 26.681 0 0 0 -1.411 4.611 2.641 2.641 0 0 0 -.054.651.2.2 0 0 0 -.163.054l-.76 1.076c-.868 1.194-1.573 2.387-2.333 3.635-1.736 2.821-7.215 4.123-7.215 4.123a4.661 4.661 0 0 1 -1.465.488 16.755 16.755 0 0 1 -4.666.163 5.508 5.508 0 0 0 -1.356.326 3.6 3.6 0 0 0 -1.031.488c-2.387 1.519-1.519 4.394-1.519 4.394l.054.054.054.054.109.054.163.109.109.054.109.054.109.054.163.108.163.054.38.217.163.109.217.108.163.109.271.109.271.108.434.217.271.109.271.109.271.109.271.109.543.217.271.109.38.109.271.109.434.108.217.054.705.163.217.054.543.109h.38l.6.108h.163c.271.054.543.054.76.109h.163l.651.054h1.085l.814-.054h.163l.651-.054.271-.054.6-.109.271-.054a6.736 6.736 0 0 0 .868-.217 53.324 53.324 0 0 1 18.981-1.63c4.883.434 6.076-1.248 6.076-1.248a3.03 3.03 0 0 0 .271-.434.2.2 0 0 0 .054-.163.772.772 0 0 0 .109-.326c0-.054.054-.163.054-.217s.054-.217.054-.326 0-.163.054-.217a.075.075 0 0 0 0-.109.954.954 0 0 1 .054-.326 9.917 9.917 0 0 0 -.217-2.821 29.037 29.037 0 0 0 -1.79-5.968l-.326.271c-.054-.163-.054-.38-.108-.6-1.194-6.4-1.628-21.863-1.682-23.491a2.947 2.947 0 0 0 1.845-.651c.054-.054.109-.054.163-.109 4.123-3.364 2.116-18.771.76-20.887s-1.628-13.129-2.116-16.6c-.217-1.682-1.139-2.17-2.224-2.17h-.488c-.163-3.255.326-10.9.705-16.113 0-.326.054-.651.054-.977l1.031.054 1.573-9.223s.868-3.418 6.293-13.075a51.661 51.661 0 0 0 5.968-20.182s1.682-3.2 1.194-4.611a21.13 21.13 0 0 1 -.488-2.767 33.729 33.729 0 0 1 5.8-2.821c5.8-2.333 10.145-6.727 12.152-8.9l.326-.326a20.074 20.074 0 0 1 1.356 2.333 46.051 46.051 0 0 0 7.161-6.13 3.06 3.06 0 0 0 .6-1.085c1.465-3.635-.054-11.447-.054-11.447 2.115-3.136-.272-6.228-.272-6.228z" fill="url(#a)" transform="translate(3.478 -110.757)"/><path d="m148.466 402.724a16.921 16.921 0 0 1 -3.743 2.387c-.163-1.411-.326-2.5-.326-2.821-.108-1.193 2.5-6.619 2.5-6.619s4.937-6.619 4.828-7.65c-.109-.976 1.9-3.852 1.9-3.852l4.449-7.27a3.275 3.275 0 0 0 .488 3.418c1.356 1.79.217 5.317.217 5.317l.271 4.449v.434c-.163.163-.868.868-2.5 2.279-1.465 1.356-1.194 1.736-1.031 1.845-.326.6.054.705.054.705h.38l-.326.326c-2.767 2.603-6.781 6.346-7.161 7.052z" fill="url(#b)" opacity=".1" transform="translate(-64.171 -172.426)"/><path d="m86.824 271.208c-1.356 1.411.163 3.364-.868 4.883-.6.868-1.9 1.356-2.658 2.17-1.411 1.573-.326 3.581.326 5.317 2.55 6.51-1.248 13.888-9.223 17.9a16.524 16.524 0 0 0 10.959.868c3.581-.976 6.293-3.147 7-5.7.488-1.79.054-3.689.977-5.425 1.411-2.658 5.8-4.286 7.107-6.944 1.031-2.116-.108-4.394-1.356-6.4a50.432 50.432 0 0 0 -5.534-7.161c-1.248-1.356-1.248-1.9-3.255-1.519a9.264 9.264 0 0 0 -3.475 2.011z" fill="#985c7e" transform="translate(-32.15 -123.101)"/><path d="m111.011 303.7a20.766 20.766 0 0 1 -1.3 5.642 30.06 30.06 0 0 1 -2.821 6.673 9.586 9.586 0 0 1 -5.588 4.394 6.859 6.859 0 0 0 5.8 1.682c1.465-.271 2.984-1.031 4.449-.542a12.853 12.853 0 0 1 1.9 1.031 5.408 5.408 0 0 0 6.4-1.573 7.3 7.3 0 0 0 1.139-6.727c-.434-1.356-1.194-2.6-1.628-4.015-.6-2.062-.38-4.34-1.356-6.239-1.465-2.713-5.479-4.34-8.192-5.425-.105 1.464 1.251 3.363 1.197 5.099z" fill="#985c7e" transform="translate(-44.457 -136.605)"/><path d="m104.011 294.445a20.766 20.766 0 0 1 -1.3 5.642 30.058 30.058 0 0 1 -2.821 6.673 9.586 9.586 0 0 1 -5.588 4.394 7.036 7.036 0 0 0 5.8 1.682c1.519-.271 2.984-1.031 4.449-.543a12.861 12.861 0 0 1 1.9 1.031 5.466 5.466 0 0 0 6.4-1.519 7.3 7.3 0 0 0 1.139-6.727c-.434-1.356-1.194-2.6-1.628-4.015-.6-2.061-.38-4.34-1.356-6.239-1.465-2.713-5.479-4.34-8.192-5.425-.051 1.412 1.251 3.256 1.197 5.046z" opacity=".1" transform="translate(-41.254 -132.396)"/><path d="m97.1 516.071s-1.628 19.91-.922 22.569 1.9 38.627 1.9 38.627.488 21 2.116 25.39-11.067 3.147-11.447 3.092-3.581-8.952-3.581-8.952 3.092-5.425 1.139-14.105-4.123-27.126-4.123-27.126l-3.635-21.7s.488-5.1-1.411-7.975-4.34-21.755-3.8-23.383 13.454-5.208 13.454-5.208l5.588 7.27z" fill="#ecb4b6" transform="translate(-31.628 -227.507)"/><path d="m73.526 506.631.054.38c.054.38.054.76.108 1.139.651 6.293 2.224 15.733 3.526 17.686s1.465 4.991 1.465 6.673v.542a4.29 4.29 0 0 1 -.054.76l2.767 16.709.109.705.705 4.34s2.17 18.5 4.123 27.126a23 23 0 0 1 -.217 11.827l-.163.488a9.9 9.9 0 0 1 -.76 1.736s.434 1.248 1.031 2.821c.109.38.271.705.38 1.085l.217.6c.868 2.224 1.736 4.448 1.953 4.448.434.054 13.129 1.3 11.447-3.092a12.851 12.851 0 0 1 -.488-1.953c-1.248-6.727-1.628-23.437-1.628-23.437s-1.194-35.969-1.9-38.627c-.488-1.79.109-11.176.543-17.252.217-3.038.38-5.262.38-5.262l-4.72-11.5-5.588-7.27s-9.277 2.6-12.424 4.34l-.108.054a1.738 1.738 0 0 0 -.922.814 25.154 25.154 0 0 0 .164 4.12z" opacity=".07" transform="translate(-31.656 -227.507)"/><path d="m89.2 560.9s6.13 1.628 5.588 3.418z" opacity=".05" transform="translate(-38.921 -256.603)"/><path d="m95.3 678.879s.651 1.9 1.411 3.906a12.9 12.9 0 0 0 1.519.651s2.387-2.224-.76-5.425c-.488-.543-.922-.977-1.3-1.411a16.451 16.451 0 0 1 -.87 2.279z" opacity=".1" transform="translate(-41.712 -309.534)"/><path d="m89.666 677.713c.217 1.3 3.092 2.767 4.666 3.418.6.271.977.434.977.434a3.337 3.337 0 0 0 .651-1.031c.38-.977.434-2.5-1.411-4.394-.434-.434-.814-.868-1.139-1.194a11.354 11.354 0 0 1 -2.333-3.147 26.1 26.1 0 0 0 -1.411 4.557 5.672 5.672 0 0 0 0 1.357z" fill="#cc8294" transform="translate(-39.115 -307.338)"/><path d="m89.67 681.556c.217 1.3 3.092 2.767 4.666 3.418.868 2.224 1.736 4.448 1.953 4.448.434.054 13.129 1.3 11.447-3.092a12.854 12.854 0 0 1 -.488-1.953c-.76.488-2.224 1.573-3.526 2.5-1.79 1.248-4.5.326-4.5.326l-3.309-2.821-.814-.705a5.946 5.946 0 0 1 -1.411-.325 6.841 6.841 0 0 1 -2.821-2.279c-.6-.651-.977-.868-1.139-.868a3.807 3.807 0 0 0 -.058 1.351z" opacity=".1" transform="translate(-39.12 -311.181)"/><path d="m52.377 696.032a22.387 22.387 0 0 0 7.758 3.092 15.013 15.013 0 0 0 7.107-.217 51.533 51.533 0 0 1 18.658-1.627c4.774.434 6.022-1.248 6.022-1.248.814-1.085.76-2.984.434-4.883a32.131 32.131 0 0 0 -1.736-5.913s-2.17 1.519-3.96 2.821-4.5.326-4.5.326l-4.123-3.526a6.372 6.372 0 0 1 -4.286-2.6c-1.139-1.248-1.356-.814-1.356-.814l-.76 1.031a41.1 41.1 0 0 0 -2.279 3.635c-1.682 2.821-7.053 4.123-7.053 4.123a4.247 4.247 0 0 1 -1.465.488 16.061 16.061 0 0 1 -4.557.163 6.647 6.647 0 0 0 -2.279.76 3.93 3.93 0 0 0 -1.625 4.389z" fill="#cc8294" transform="translate(-22.008 -311.714)"/><circle cx="55.162" cy="375.475" fill="#4b4b5b" r=".434"/><circle cx="49.953" cy="377.699" fill="#4b4b5b" r=".434"/><circle cx="52.015" cy="380.846" fill="#4b4b5b" r=".434"/><circle cx="44.854" cy="379.761" fill="#4b4b5b" r=".434"/><circle cx="52.883" cy="376.831" fill="#4b4b5b" r=".434"/><circle cx="54.89" cy="380.629" fill="#4b4b5b" r=".434"/><circle cx="47.458" cy="378.893" fill="#4b4b5b" r=".434"/><circle cx="42.033" cy="380.412" fill="#4b4b5b" r=".434"/><path d="m52.374 704.374s7.27 4.991 14.865 2.93a51.539 51.539 0 0 1 18.661-1.628c4.774.434 6.022-1.248 6.022-1.248a4.148 4.148 0 0 0 .6-1.736.923.923 0 0 1 .054-.38 9.036 9.036 0 0 0 -.217-2.713c-.977.76-3.038 1.628-7.27 1.79a128.522 128.522 0 0 0 -16.764 2.062l-9.223-.38s-5.154-1.139-5.154-3.038c-2.442 1.467-1.574 4.341-1.574 4.341z" opacity=".1" transform="translate(-22.005 -320.056)"/><path d="m76.3 708.452c.163 0 .326.054.488.054a53.552 53.552 0 0 0 7.921-1.411 8.508 8.508 0 0 1 2.007-.271c2.17-.109 7.487-.38 10.471-.326h.054a16.007 16.007 0 0 0 6.293-1.519.923.923 0 0 1 .054-.38 15.468 15.468 0 0 1 -6.4 1.573c-2.984 0-8.355.217-10.471.326-.705.054-1.411.163-2.062.271-2.062.488-7.053 1.628-8.246 1.356z" fill="#cc8294" transform="translate(-33.019 -322.344)"/><path d="m83.154 562.8a4.289 4.289 0 0 1 -.054.759l2.767 16.709 1.411 1.356a34.158 34.158 0 0 1 3.852 4.069c1.628 2.55 7.378 1.193 7.27.977s-2.5-12.153-2.5-12.153l-1.9-4.83a3.008 3.008 0 0 1 -3.852-.814c-1.194-1.3-3.906-3.8-5.751-5.479l-1.297-1.194a2.663 2.663 0 0 1 .054.6z" opacity=".03" transform="translate(-36.13 -257.198)"/><path d="m73.541 510.345.054.325c.054.38.054.76.108 1.139.38-.163.814-.325 1.194-.488a5.028 5.028 0 0 0 .543-.271 27.046 27.046 0 0 0 5.045-3.147l-4.72-2.007-1.411-.6a1.738 1.738 0 0 0 -.922.814 19.326 19.326 0 0 0 .109 4.235z" opacity=".05" transform="translate(-31.671 -231.167)"/><path d="m-1.664 505.51c.109.217.271.38.38.6a34.558 34.558 0 0 0 10.037 9.6c1.736 1.085 3.472 2.279 4.015 3.147 1.139 1.789 20.232 14.104 20.232 14.104s8.9 7.867 14.268 13.075l.705.651.326.326 1.085 1.085c.488.488.868.922 1.194 1.248.108.108.217.271.326.38a1.649 1.649 0 0 1 .271.38c1.628 2.55 7.378 1.248 7.27.976s-2.5-12.152-2.5-12.152l-1.9-4.828a2.881 2.881 0 0 1 -2.5.163 3.669 3.669 0 0 1 -1.411-.977c-1.194-1.3-3.906-3.8-5.751-5.479-1.085-.976-1.845-1.682-1.845-1.682l-6.13-6.944s-7.812-10.2-13.671-12.749a62.127 62.127 0 0 1 11.339-3.418 24.789 24.789 0 0 0 5.262-1.248c.163-.109.38-.163.543-.271a27.044 27.044 0 0 0 5.045-3.147l-4.72-2.062-24.835-10.688c-.163 0-1.573.108-2.658.163l-1.139.054s-9.274 9.602-9.765 10.583-6.022 5.15-3.473 9.11z" fill="#ecb4b6" transform="translate(2.953 -222.154)"/><path d="m38.6 514s-10.688 1.3-12.8 3.526c0 0 9.386.651 9.765 1.9 0 0-5.371-3.635-6.836-2.713z" opacity=".03" transform="translate(-9.916 -235.147)"/><path d="m90.3 597.813.326.325 1.085 1.085c.488.488.868.922 1.194 1.248l1.411-1.79a7.678 7.678 0 0 0 -1.573-.977 2.758 2.758 0 0 0 -2.441.109z" opacity=".05" transform="translate(-39.424 -273.334)"/><path d="m90.1 602.043 1.139.488 1.085-1.411 1.411-1.844a7.67 7.67 0 0 0 -1.573-.977 2.828 2.828 0 0 0 -2.387.054 3.639 3.639 0 0 0 -1.3 1.41s-.375 1.249 1.625 2.28z" fill="#cc8294" transform="translate(-38.577 -273.604)"/><path d="m91.2 591.23.217.217 1.139.488 1.085-1.41c.108.163.217.271.271.38 1.628 2.55 7.378 1.248 7.27.977s-2.5-12.152-2.5-12.152l-1.9-4.828a2.881 2.881 0 0 1 -2.5.163c-.434.434-.488.977 0 1.736a11.374 11.374 0 0 1 1.845 5.425c.76 2.007-1.519 4.5-2.767 5.534a3.075 3.075 0 0 1 -.705.434 1.5 1.5 0 0 0 -.6.705 17.147 17.147 0 0 0 -.855 2.331z" opacity=".05" transform="translate(-39.836 -263.008)"/><path d="m92.3 589.488 2.5 2.5a18.431 18.431 0 0 1 7.487 9.331c.271.76.543 1.465.868 2.17a9.824 9.824 0 0 1 .651 3.038c.054.651.109 1.248.109 1.79a2.809 2.809 0 0 0 .76 1.9l.054.054a2.942 2.942 0 0 0 4.015.326c.054-.054.109-.054.163-.109 4.069-3.364 2.062-18.608.76-20.724s-1.573-13.02-2.062-16.492a2.136 2.136 0 0 0 -2.224-2.17 25.6 25.6 0 0 0 -3.852.6h-.217c-2.55.217-7.378.977-5.7 3.309a11.374 11.374 0 0 1 1.845 5.425c.922 2.5-2.658 5.7-3.472 5.968s-1.685 3.084-1.685 3.084z" fill="#cc8294" transform="translate(-40.339 -261.266)"/><circle cx="55.541" cy="326.703" fill="#4b4b5b" r=".705"/><circle cx="56.626" cy="329.415" fill="#4b4b5b" r=".705"/><circle cx="60.044" cy="333.755" fill="#4b4b5b" r=".705"/><circle cx="58.362" cy="331.477" fill="#4b4b5b" r=".705"/><circle cx="61.455" cy="336.305" fill="#4b4b5b" r=".705"/><path d="m112.4 599.75s.6 7.053 0 10.362a2.9 2.9 0 0 0 4.015.38c.054-.054.109-.054.163-.109 4.069-3.364 2.062-18.608.76-20.724s-1.573-13.02-2.062-16.492a2.136 2.136 0 0 0 -2.224-2.17 25.62 25.62 0 0 0 -3.852.6c0 3.472.217 11.393 1.085 14.051 1.139 3.414 2.115 14.102 2.115 14.102z" opacity=".1" transform="translate(-48.071 -261.22)"/><path d="m117.439 585.422a64.545 64.545 0 0 1 1.79 13.943c-.054 2.875.271 8.463.434 11.23.054-.054.108-.054.163-.109 4.069-3.364 2.062-18.608.76-20.724s-1.573-13.02-2.062-16.492a2.136 2.136 0 0 0 -2.224-2.17c.108 3.526.543 12.207 1.139 14.322z" opacity=".1" transform="translate(-51.319 -261.269)"/><path d="m113.026 571.5c.163 2.767.6 10.2 1.356 12.315.922 2.658 1.9 15.353 1.953 15.9h-.325c0-.109-1.031-13.237-1.953-15.841-.76-2.17-1.194-9.548-1.356-12.369z" fill="#cc8294" transform="translate(-49.672 -261.452)"/><path d="m84.293 318.9a58.257 58.257 0 0 0 -8.246 2.062c-2.984 1.139-3.418 1.682-3.418 1.682l-3.092.488v-3.309s-11.122.814-12.207.38a.053.053 0 0 1 -.054-.054c-.543-.543.326 4.286-.488 5.317s-4.34 4.611 2.224 7.27 21.484 2.93 21.484 2.93l4.232-8.355z" fill="#61647f" transform="translate(-23.326 -145.892)"/><path d="m129.718 323.5-11.718-2.491a29.406 29.406 0 0 0 3.418-8.951 12.031 12.031 0 0 0 -.814-7.541c-3.364-6.836 9.114-10.416 9.114-10.416s4.557 7.053 8.68 10.633a6.677 6.677 0 0 0 3.8 2.007c4.393-.055-12.48 16.759-12.48 16.759z" fill="#ecb4b6" transform="translate(-52.097 -134.546)"/><path d="m23.2 486.794s5.1 12.044 9.765 12.315c2.821.108 11.5 1.356 17.957 2.279l.6.108a27.044 27.044 0 0 0 5.045-3.147l-4.72-2.062-24.847-10.687c-.163 0-1.573.108-2.658.163z" opacity=".1" transform="translate(-8.727 -222.154)"/><path d="m82.676 502.725c4.449.651-1.194 5.1-1.194 5.1s2.17 1.628 4.666 7.6 3.689 5.534 3.689 5.534l6.944.38c.217-3.038.38-5.262.38-5.262l-4.72-11.5-5.588-7.27s-9.277 2.6-12.424 4.34l-.108.054a1.738 1.738 0 0 0 -.922.814c-.108.427 9.114-1.96 9.277.21z" opacity=".1" transform="translate(-31.692 -227.507)"/><path d="m129.718 332.425-11.718-2.495a29.405 29.405 0 0 0 3.418-8.952l3.689 3.526a9.268 9.268 0 0 0 5.045-1.465 6.666 6.666 0 0 0 1.682-1.573c2.6-3.255 5.751-7.487 5.751-7.487s.38-.163.868-.38a6.677 6.677 0 0 0 3.8 2.007c4.338.001-12.535 16.819-12.535 16.819z" opacity=".1" transform="translate(-52.097 -143.467)"/><path d="m23.2 407.187s5.1 12.044 9.765 12.315 25.552 3.364 25.552 3.364 2.17 1.628 4.666 7.6 3.689 5.534 3.689 5.534l8.029.434 1.519-9.114s.868-3.364 6.185-12.912a51.727 51.727 0 0 0 5.859-20.019s1.628-3.147 1.194-4.557-1.845-12.586-1.953-13.834c-.109-1.194 2.387-6.51 2.387-6.51s4.774-6.51 4.666-7.487 1.845-3.8 1.845-3.8l4.34-7.161a3.283 3.283 0 0 0 .434 3.364c1.3 1.736.217 5.208.217 5.208l.271 4.394.054 1.031s-.651.651-2.441 2.279-.922 1.845-.922 1.845c5.534-.76 9.874 8.246 9.874 8.246a45.688 45.688 0 0 0 7.053-6.076 3.928 3.928 0 0 0 .6-1.031c1.411-3.635-.054-11.339-.054-11.339a6.019 6.019 0 0 0 -.488-6.4c1.519-4.123-1.194-8.463-1.194-8.463l-.163-9.44c1.194-2.5-2.93-8.68-2.93-8.68s-.977-4.666-1.845-5.1-1.845-2.387-1.845-2.387c.108-2.17-5.642-2.387-6.185-2.5a11.515 11.515 0 0 1 -1.953-1.139 18.27 18.27 0 0 0 -1.736-1.031c-.977-.434-3.581.759-3.581.759s-3.147 4.232-5.751 7.487a8.157 8.157 0 0 1 -6.727 3.038l-3.743-3.635-11.067.651-2.5 12.641c-5.642 4.666-3.472 9.982-3.581 13.509-.109 3.472-.651 7.6-.651 7.6s-2.387 3.906-2.062 5.968-1.736 5.425-1.736 5.425-3.038 3.364-2.713 5.534a13.67 13.67 0 0 1 -.543 4.991s-2.062 3.8-1.194 5.968a5.108 5.108 0 0 1 .434 3.364s-4.449.651-4.774 3.038-4.34 3.255-4.34 3.255-7.161 2.6-8.9 3.8-11.061 9.973-11.061 9.973z" fill="#61647f" transform="translate(-8.727 -143.524)"/><path d="m183.753 388s-8.138.976-9.114 2.17 8.138 1.3 8.138 1.3z" opacity=".1" transform="translate(-77.974 -177.504)"/><path d="m169.3 398.56s5.968-2.116 6.13-1.465-6.13 4.232-6.13 4.232z" opacity=".1" transform="translate(-75.565 -181.608)"/><path d="m156.6 377.5c-1.031 1.627-9.6 12.152-9.6 12.152l9.223-13.454z" opacity=".1" transform="translate(-65.364 -172.106)"/><path d="m156.041 372.8c-.651.868-7.541 12.152-7.541 12.152l6.944-12.749z" opacity=".1" transform="translate(-66.05 -170.276)"/><path d="m184.117 346.485s-2.658-3.743-5.262-1.356 5.262 1.356 5.262 1.356z" opacity=".1" transform="translate(-79.695 -157.527)"/><path d="m145.418 341.672s-6.781 0-10.091 1.519 2.873-4.557 10.091-1.519z" opacity=".1" transform="translate(-59.604 -155.915)"/><path d="m140.3 324.639h1.031s2.333-.868 2.93-2.658 5.317-.163 5.317-.163.705.488.109-.326 2.062-3.472 3.255-5.208a1.091 1.091 0 0 0 .217-.434 18.288 18.288 0 0 0 -1.736-1.031c-.977-.434-3.581.759-3.581.759s-3.147 4.232-5.751 7.487a12 12 0 0 1 -1.791 1.574z" opacity=".1" transform="translate(-62.298 -143.982)"/><path d="m140.3 323.439h1.031s2.333-.868 2.93-2.658 5.317-.163 5.317-.163.705.543.109-.326c-.6-.814 2.062-3.472 3.255-5.208a1.091 1.091 0 0 0 .217-.434 18.276 18.276 0 0 0 -1.736-1.031c-.977-.434-3.581.759-3.581.759s-3.147 4.232-5.751 7.487a12 12 0 0 1 -1.791 1.574z" fill="#ff718d" transform="translate(-62.298 -143.433)"/><circle cx="69.972" cy="186.842" fill="#e7c7ca" r=".705"/><circle cx="57.548" cy="203.714" fill="#e7c7ca" r=".705"/><circle cx="62.051" cy="193.027" fill="#e7c7ca" r=".705"/><circle cx="55.541" cy="214.673" fill="#e7c7ca" r=".705"/><circle cx="46.373" cy="233.553" fill="#e7c7ca" r=".705"/><circle cx="45.667" cy="243.264" fill="#e7c7ca" r=".705"/><path d="m61.3 298.244 1.465 4.72 4.611-.326 4.123-4.394s.271-.814.705-1.953a75.113 75.113 0 0 1 4.069-9.82c1.519-2.279 2.5-11.773 2.5-11.773s-1.682-3.8-6.456 3.8c-3.581 5.751-8.029 14.051-10.037 17.74-.6 1.247-.98 2.006-.98 2.006z" fill="#ecb4b6" transform="translate(-26.157 -125.236)"/><path d="m99 427.679c0 1.194 4.883 1.736 7.161 1.9.705.054 1.194.109 1.194.109-.543 1.193 2.333 10.579 2.333 10.579a2.747 2.747 0 0 0 .705-.108c3.8-.76 11.284-5.968 11.284-5.968s.163-1.79 7.921-4.937c5.7-2.333 9.982-6.673 11.99-8.843.38-.434.814-.868 1.248-1.3l-6.891-7.111s-1.085 1.031-2.6 2.441c-2.658 2.55-6.564 6.239-6.944 6.944-.6 1.085-11.339 6.347-11.339 6.347-2.387-2.062-7.541-2.5-7.541-2.5s-8.521.928-8.521 2.447z" fill="#ecb4b6" transform="translate(-43.404 -188.484)"/><path d="m107.075 395.7c-.326.651-15.082 10.416-17.577 10.579s2.333-4.666 2.5-4.72c.158 0 15.077-5.859 15.077-5.859z" opacity=".1" transform="translate(-38.73 -181.027)"/><path d="m55.2 699.622a5.67 5.67 0 0 1 2.279-.76 16.061 16.061 0 0 0 4.557-.163 10.022 10.022 0 0 0 -.326 4.015l-1.41-.054c.054 0-5.1-1.139-5.1-3.038z" fill="#fff" opacity=".3" transform="translate(-23.367 -319.644)"/><path d="m113.5 636.309c.054.651.108 1.248.108 1.79a2.81 2.81 0 0 0 .76 1.9l.054.054a23.264 23.264 0 0 0 .217-3.852 2.033 2.033 0 0 1 -1.139.108z" fill="#fff" opacity=".3" transform="translate(-50.038 -291.052)"/><path d="m162.3 414.341c3.526-.217 6.564 3.472 8.192 5.968.38-.434.814-.868 1.248-1.3l-6.84-7.109s-1.135 1.085-2.6 2.441z" opacity=".1" transform="translate(-72.363 -188.438)"/><path d="m162.117 409.976c5.534-.76 9.874 8.246 9.874 8.246a45.686 45.686 0 0 0 7.053-6.076 3.928 3.928 0 0 0 .6-1.031c-1.3-3.092-4.828-8.3-14.268-6.293l.054 1.031s-.651.651-2.441 2.279c-1.74 1.627-.872 1.844-.872 1.844z" opacity=".1" transform="translate(-72.18 -184.995)"/><path d="m162.1 411.191c5.534-.759 9.874 8.246 9.874 8.246a45.69 45.69 0 0 0 7.053-6.076 3.931 3.931 0 0 0 .6-1.031c-1.3-3.092-4.828-8.246-14.268-6.293l.054 1.031s-.651.651-2.441 2.279-.872 1.844-.872 1.844z" fill="#3e4ff7" transform="translate(-72.163 -185.559)"/><path d="m162.1 411.191c5.534-.759 9.874 8.246 9.874 8.246a45.69 45.69 0 0 0 7.053-6.076 3.931 3.931 0 0 0 .6-1.031c-1.3-3.092-4.828-8.246-14.268-6.293l.054 1.031s-.651.651-2.441 2.279-.872 1.844-.872 1.844z" fill="#fff" opacity=".1" transform="translate(-72.163 -185.559)"/><path d="m61.3 317.253 1.465 4.72 4.611-.326 4.123-4.394s.271-.814.705-1.953c-.6.326-4.557 2.55-7 2.658-1.9.109-2.6-1.736-2.875-2.658-.649 1.193-1.029 1.953-1.029 1.953z" opacity=".1" transform="translate(-26.157 -144.245)"/><path d="m58.417 319.75.326-.326c1.085-1.248 2.062-2.224 2.062-2.224a5.157 5.157 0 0 0 .922 2.333 2.474 2.474 0 0 0 2.062.922 13.491 13.491 0 0 0 4.069-1.194 26.622 26.622 0 0 0 3.038-1.519v1.3l.054 1.3v2.984s1.139 7.921-9.386 3.689c0 0 .651-2.93-3.364-2.333z" opacity=".1" transform="translate(-24.739 -145.114)"/><path d="m68.624 315.942.054 2.6v2.984s1.139 7.921-9.386 3.689c0 0 .76-3.364-4.34-2.17s3.635-7.65 3.635-7.65.38 3.364 2.984 3.255c2.604-.158 7.053-2.708 7.053-2.708z" fill="#3e4ff7" transform="translate(-22.522 -144.291)"/><path d="m68.624 315.942.054 2.6v2.984s1.139 7.921-9.386 3.689c0 0 .76-3.364-4.34-2.17s3.635-7.65 3.635-7.65.38 3.364 2.984 3.255c2.604-.158 7.053-2.708 7.053-2.708z" fill="#fff" opacity=".1" transform="translate(-22.522 -144.291)"/><path d="m111.783 458.12c-.109-.163-.543-13.129-2.224-13.454s-5.859 1.411-5.859 1.411l.76 10.362z" opacity=".1" transform="translate(-45.555 -203.409)"/><path d="m113.348 444.309c-.543 1.194 2.333 10.579 2.333 10.579a2.75 2.75 0 0 0 .705-.108c-.271-3.852-.814-10.525-2.062-10.8a6.1 6.1 0 0 0 -2.224.217c.76.058 1.248.112 1.248.112z" opacity=".1" transform="translate(-49.397 -203.107)"/><path d="m112.983 457.52c-.108-.163-.543-13.129-2.224-13.454s-5.859 1.411-5.859 1.411l.76 10.416z" fill="#3e4ff7" transform="translate(-46.104 -203.135)"/><path d="m112.883 457.52c-.109-.163-.543-13.129-2.224-13.454s-5.859 1.411-5.859 1.411l.76 10.416z" fill="#fff" opacity=".1" transform="translate(-46.058 -203.135)"/><path d="m87.288 318.137a27.708 27.708 0 0 0 2.821-6.673 34.289 34.289 0 0 0 .977-3.363 13.585 13.585 0 0 0 9.223 5.751c.38.868.76 1.682 1.085 2.6a7.3 7.3 0 0 1 -1.139 6.727 5.486 5.486 0 0 1 -6.4 1.573 12.859 12.859 0 0 0 -1.9-1.031c-1.465-.434-2.93.271-4.449.543a7.036 7.036 0 0 1 -5.8-1.682 9.719 9.719 0 0 0 5.582-4.445z" fill="#985c7e" transform="translate(-35.49 -140.951)"/><circle cx="66.88" cy="160.368" opacity=".1" r="13.509"/><circle cx="66.88" cy="159.5" fill="#ecb4b6" r="13.509"/><path d="m94.893 267.416c-1.573-1.085-3.906-.217-5.588-1.194a4.041 4.041 0 0 1 -1.682-2.222 7.932 7.932 0 0 1 4.774-9.982c1.031-.326 2.116-.488 3.147-.76 2.821-.868 4.991-3.038 7.378-4.666a22.052 22.052 0 0 1 8.355-3.364c2.224-.38 4.666-.325 6.456.977 2.062 1.519 2.713 4.232 3.092 6.727s.814 5.208 2.658 7c1.411 1.411 3.472 2.007 5.317 2.821 1.845.868 3.689 2.333 3.8 4.34.109 1.573-.922 2.984-1.194 4.557a10.243 10.243 0 0 0 .814 5.208 61.6 61.6 0 0 0 6.727 13.346 37.284 37.284 0 0 1 -10.688 3.96 9.069 9.069 0 0 1 -4.666 0 7.661 7.661 0 0 1 -4.232-4.015 12.54 12.54 0 0 1 -1.411-5.045c-.271-3.526.814-7.27-.705-10.416a3.71 3.71 0 0 0 -1.3-1.573 15.86 15.86 0 0 0 -2.279-.705 9.993 9.993 0 0 1 -3.364-2.279l-3.581-3.364a10.231 10.231 0 0 0 -2.767-2.062 7.04 7.04 0 0 0 -5.968.651c-1.573.868-3.418 2.224-5.045 1.356" fill="#985c7e" transform="translate(-37.995 -112.094)"/><g opacity=".1" transform="translate(49.22 146.479)"><path d="m98.577 285.471-.977-.271a2.211 2.211 0 0 0 .977.271z" transform="translate(-91.984 -276.954)"/><path d="m99.4 285.7 1.085.325c-.217-.108-.38-.217-.6-.325z" transform="translate(-92.808 -277.182)"/><path d="m128.67 303.8a9.069 9.069 0 0 1 -4.666 0 7.661 7.661 0 0 1 -4.232-4.015 12.541 12.541 0 0 1 -1.411-5.045c-.271-3.526.814-7.27-.705-10.416a3.711 3.711 0 0 0 -1.3-1.573 11.084 11.084 0 0 0 -2.279-.705 9.991 9.991 0 0 1 -3.364-2.279l-3.581-3.364a11.491 11.491 0 0 0 -2.767-2.062 7.04 7.04 0 0 0 -5.968.651 10.073 10.073 0 0 1 -3.581 1.628 1.293 1.293 0 0 1 .6.326l-1.085-.326a2.211 2.211 0 0 1 -.977-.271l.977.271h.488c-1.519-.6-3.526 0-4.991-.868a4.041 4.041 0 0 1 -1.682-2.224 7.111 7.111 0 0 1 -.38-3.526 7.335 7.335 0 0 0 -.054 5.262 4.04 4.04 0 0 0 1.682 2.224c1.465.814 3.418.271 4.991.868a9.668 9.668 0 0 0 3.581-1.628 6.854 6.854 0 0 1 5.968-.651 8.593 8.593 0 0 1 2.767 2.062l3.581 3.364a9.261 9.261 0 0 0 3.364 2.279 8.53 8.53 0 0 1 2.279.705 3.36 3.36 0 0 1 1.3 1.573c1.573 3.147.434 6.89.705 10.416a12.788 12.788 0 0 0 1.411 5.045 7.848 7.848 0 0 0 4.232 4.015 9.7 9.7 0 0 0 4.666 0 36.3 36.3 0 0 0 10.688-3.96c-.217-.38-.488-.76-.705-1.139a33.971 33.971 0 0 1 -9.552 3.363z" transform="translate(-87.248 -270)"/><path d="m170.114 286.6a18.688 18.688 0 0 0 -.759 2.279 1.671 1.671 0 0 0 -.054.542 12.9 12.9 0 0 0 .813-2.821z" transform="translate(-124.786 -277.594)"/></g><path d="m100.554 330.515a5.389 5.389 0 0 1 -6.4 1.519 21.171 21.171 0 0 0 -1.9-1.031c-1.465-.434-2.93.271-4.449.543a7.049 7.049 0 0 1 -4.991-1.085 4.771 4.771 0 0 1 -.814.271 7.036 7.036 0 0 0 5.8 1.682c1.519-.271 2.984-1.031 4.449-.543a12.85 12.85 0 0 1 1.9 1.031 5.408 5.408 0 0 0 6.4-1.573 6.751 6.751 0 0 0 1.465-4.828 6.834 6.834 0 0 1 -1.46 4.014z" opacity=".1" transform="translate(-35.627 -149.369)"/><ellipse cx="689.091" cy="445.188" fill="#3f3d56" rx="57.995" ry="7.541"/><path d="m1216.3 323.078s-1.627 12.152 2.55 13.563c4.231 1.411 3.038 12.152 3.038 12.152l-12.641 9.6-11.23.922-2.821-14.539 1.628-3.743s6.347-7.487 1.9-15.245c-4.446-7.647 17.576-2.71 17.576-2.71z" fill="#a0616a" transform="translate(-544.898 -147.086)"/><path d="m1216.3 324.34s-1.627 12.152 2.55 13.563c4.231 1.411 3.038 12.152 3.038 12.152l-12.641 9.6-11.23.922-2.821-14.539 1.628-3.743s6.347-7.487 1.9-15.245 17.576-2.71 17.576-2.71z" opacity=".1" transform="translate(-544.898 -147.643)"/><path d="m1171.784 446.269-14.757 34.667s-11.5-6.564-18.283-5.859-15.245-7.487-15.245-7.487l8.409-40.743 15.679-43.347 21.755 13.834z" fill="#575a89" transform="translate(-512.097 -175.446)"/><path d="m1171.784 446.269-14.757 34.667s-11.5-6.564-18.283-5.859-15.245-7.487-15.245-7.487l8.409-40.743 15.679-43.347 21.755 13.834z" opacity=".1" transform="translate(-512.097 -175.446)"/><path d="m1246.379 769.1v11.23h-10.579l1.682-13.129z" fill="#575a89" transform="translate(-563.472 -350.982)"/><path d="m1297.885 734.9 7.7 4.666-5.642 12.858-5.8-.705-5.643-7.919z" fill="#575a89" transform="translate(-587.582 -336.206)"/><path d="m1222.439 493.1 13.834 32.551s-4.937 36.077-4.666 39.115.488 4.232-.705 6.781a9.562 9.562 0 0 0 -.922 7.27c.705 3.038.922 4.232.488 5.371-.488 1.193-3.744 49.423-5.371 52.678s.922 8.68-.705 9.114-13.834-.705-14.539-3.526 2.333-9.6.705-11.718.217-77.959-2.116-83.113-28.1-9.82-28.1-9.82-2.333-14.973-.922-17.306 3.255-17.089 3.255-17.089z" fill="#2f2e41" transform="translate(-537.471 -225.586)"/><path d="m1232.255 785.013s6.564-7.7 12.152 0c0 0 .488 9.114 4.448 11.013s2.116 9.386-3.526 9.6-12.858 1.194-13.129-1.9c-.217-3.038.922-4.937-1.193-5.859s0-6.347 0-6.347z" fill="#2f2e41" transform="translate(-560.849 -357.565)"/><path d="m1210.342 573.731s-.217 16.872-1.9 19.205c-1.627 2.333-2.55 3.743-1.627 6.348s2.333 7.27 1.627 8.192.705 5.859.705 5.859 18.011 8.68 26.475 26.692c0 0 8.68 14.268 11.23 14.539 2.55.217 5.642-1.628 4.232 3.743s-6.781 12.424-10.8 11.718c-3.96-.705-7-7.487-7-7.487s-31.141-31.629-34.45-32.551c-3.255-.922-12.641-8.409-14.268-13.129-1.628-4.666-5.154-43.781-3.526-46.385 1.628-2.55 7.7-6.076 7.7-6.076z" fill="#2f2e41" transform="translate(-538.232 -258.205)"/><path d="m1302.69 733.1s14.539.488 14.757 3.96c.217 3.526-6.076 24.359-5.154 29.3s-7.27 16.167-12.641 13.834-1.193-14.539-1.193-14.539-5.371-16.6-4.449-16.872c.922-.217 10.308-3.038 9.82-5.859-.43-2.772-1.14-9.824-1.14-9.824z" fill="#2f2e41" transform="translate(-590.054 -335.382)"/><circle cx="660.5" cy="173.984" fill="#a0616a" r="14.539"/><path d="m1206.643 356.412s-7.975 8.409-13.834 7-8.9-11.5-8.9-11.5l-10.525-1.9s-7.487 33.256-7.487 36.511 7.487 38.627 7.487 44.974-6.076 10.091 3.255 9.82 4.937-3.255 18.5-3.526 15.679 2.821 18.5-2.116a39.951 39.951 0 0 1 7-8.68l-4.937-17.306-.702-48.937s-6.022-11.718-8.734-10.8c.051.167 1.57 5.321.377 6.46z" fill="#3e4ff7" transform="translate(-531.494 -160.076)"/><path d="m1234.007 346.5s12.478 1.356 16 3.96c3.526 2.55 13.346 4.449 13.129 6.347s-11.5 28.591-11.5 28.591-5.154 21.05-.705 25.987 21.05 58.537 18.283 62.986c-2.821 4.449-11.718-13.563-11.718-13.563s-11.935-38.627-18.5-45.191-7-41.936-7-43.564c.004-1.737 2.011-25.553 2.011-25.553z" fill="#575a89" transform="translate(-561.734 -158.519)"/><path d="m1162.03 348.106s-15.407-5.8-20.778-3.472a38.48 38.48 0 0 1 -8.68 2.821l-1.9 22.948s-.705 33.039-6.781 40.96c-6.076 7.975-10.091 41.231-9.114 44.486.922 3.255-1.628 8.9 2.333 7.487s14.974-33.744 14.974-33.744 0-18.5 6.564-23.654 17.306-26.475 17.795-31.629 4.937-19.422 4.937-19.422z" fill="#575a89" transform="translate(-508.039 -157.412)"/><path d="m1276.107 483.251s-7 13.129-7.975 15.462c-.922 2.333-7.487 18.283-16.872 14.756s9.114-20.616 9.114-20.616l4.232-14.268s11.012-2.333 11.501 4.666z" fill="#a0616a" transform="translate(-569.33 -218.775)"/><path d="m1115.246 348.955h-2.333a5.319 5.319 0 0 0 -5.154-.705c-2.821 1.193-9.385-.488-9.385.217s-7.27-2.116-10.308-.705-14.051 1.9-14.051 1.9-4.449 11.23-1.41 13.346 7.487.488 9.6 2.116 6.076-.217 7.487 1.9 6.565 5.859 7.7 3.526c1.194-2.333-1.193-4.449 3.743-1.9s12.641 2.55 12.641 2.55z" fill="#575a89" transform="translate(-488.327 -158.913)"/><path d="m1203.726 289.284c-1.953-.434-4.015.054-5.968.38s-4.177.434-5.859-.651a9.021 9.021 0 0 1 -2.713-3.472 4.047 4.047 0 0 1 -.6-1.519 3.441 3.441 0 0 1 1.193-2.55 19.576 19.576 0 0 1 11.935-5.751 20.762 20.762 0 0 1 10.9 1.3 14.454 14.454 0 0 1 7.649 7.65 23.449 23.449 0 0 1 1.139 5.479 14.987 14.987 0 0 1 .054 4.123 14.3 14.3 0 0 1 -.814 2.984l-2.224 6.673a4.368 4.368 0 0 1 -.868 1.736 1.5 1.5 0 0 1 -1.736.38 5.108 5.108 0 0 0 .054-2.224 1.786 1.786 0 0 0 -1.465-1.465c-.814-.109-1.519.543-2.278.814a2.778 2.778 0 0 1 -3.472-1.9c0-.054-.054-.163-.054-.217a7.935 7.935 0 0 0 -.217-2.279c-.325-.814-1.248-1.3-1.9-1.9a4.335 4.335 0 0 1 -1.193-4.557c.163-.543.705-.814.6-1.465a3.209 3.209 0 0 0 -2.163-1.569z" fill="#2f2e41" transform="translate(-541.869 -126.042)"/><path d="m1074.4 351.5a7.474 7.474 0 0 1 7 8.3c-.434 3.852-1.953 8.626-6.836 10.47-8.68 3.255-8.192-15.245-6.564-15.95 1.083-.382 2.819-2.931 6.4-2.82z" fill="#a0616a" transform="translate(-486.271 -160.803)"/><path d="m1274.306 363.1 2.55 1.248s5.642 11.5 5.859 13.129 3.961 7.7 2.55 9.385c-1.411 1.628-3.527 5.859-2.116 7.487s4.666 8.192 4.666 10.525-3.526 8.68-1.194 9.385 1.628 9.819 1.194 10.525c-.488.705-6.564 12.152-6.564 12.152s-1.193-13.129-12.641-7.7c0 0-.922-6.564 0-7s3.255-3.255 1.411-3.743-4.449-6.076-3.961-6.782 1.628-1.628.488-2.333c-1.193-.705-2.116-4.666-1.9-5.371s-2.55-3.96-2.55-3.96z" fill="#575a89" transform="translate(-575.504 -166.113)"/><path d="m0 0h157.329v211.418h-157.329z" fill="url(#c)" opacity=".5" transform="translate(381.051 188.795)"/><path d="m383.113 191.67h152.393v204.04h-152.393z" fill="#f2f2f2"/><path d="m394.994 200.296h52.461v1.628h-52.461z" fill="#e0e0e0"/><path d="m394.994 207.675h52.461v1.628h-52.461z" fill="#3e4ff7" opacity=".7"/><path d="m455.213 200.296h52.461v1.628h-52.461z" fill="#e0e0e0"/><path d="m463.405 247.007h52.461v1.628h-52.461z" fill="#e0e0e0"/><path d="m464.653 251.51h52.461v1.628h-52.461z" fill="#e0e0e0"/><path d="m467.094 256.013h52.461v1.628h-52.461z" fill="#e0e0e0"/><path d="m463.405 319.487h52.461v1.628h-52.461z" fill="#e0e0e0"/><path d="m464.653 324.044h52.461v1.628h-52.461z" fill="#e0e0e0"/><path d="m467.094 328.547h52.461v1.628h-52.461z" fill="#e0e0e0"/><path d="m0 0h55.716v56.53h-55.716z" fill="url(#d)" opacity=".5" transform="translate(395.428 230.189)"/><path d="m395.753 231.437h54.848v54.089h-54.848z" fill="#f5f5f5"/><path d="m0 0h51.159v35.209h-51.159z" fill="url(#e)" opacity=".5" transform="translate(397.706 234.692)"/><path d="m398.032 235.126h50.454v34.016h-50.454z" fill="#fff"/><g clip-path="url(#f)" fill="#3e4ff7" transform="translate(398.032 235.126)"><path d="m720.927 469.6 12.749-19.693 5.317 8.626 11.447-11.881 9.82 11.881 8.626-17.632 22.135 35.263-71.721-2.5z" opacity=".4" transform="translate(-725.213 -436.831)"/><circle cx="3.689" cy="3.689" opacity=".4" r="3.689" transform="translate(1.899 1.194)"/></g><path d="m0 0h55.716v56.53h-55.716z" fill="url(#g)" opacity=".5" transform="translate(395.428 302.723)"/><path d="m395.753 303.917h54.848v54.089h-54.848z" fill="#f5f5f5"/><path d="m0 0h51.159v35.209h-51.159z" fill="url(#h)" opacity=".5" transform="translate(397.706 307.226)"/><path d="m398.032 307.606h50.454v34.016h-50.454z" fill="#fff"/><g clip-path="url(#f)" fill="#bdbdbd" transform="translate(398.032 307.606)"><path d="m720.927 603.3 12.749-19.693 5.317 8.626 11.447-11.881 9.82 11.881 8.626-17.632 22.135 35.209-71.721-2.442z" opacity=".4" transform="translate(-725.213 -570.477)"/><circle cx="3.689" cy="3.689" opacity=".4" r="3.689" transform="translate(1.899 1.248)"/></g><path d="m741.5 536.149 41.231-207.349 154.292 30.652-41.232 207.348z" fill="url(#i)" opacity=".5" transform="translate(-337.338 -150.421)"/><path d="m0 0h204.04v152.393h-204.04z" fill="#fff" transform="matrix(.19490202 -.98082272 .98082272 .19490202 407.064 381.718)"/><path d="m0 0h1.628v108.178h-1.628z" fill="#e0e0e0" transform="matrix(.19490202 -.98082272 .98082272 .19490202 455.514 194.563)"/><path d="m0 0h1.628v108.178h-1.628z" fill="#e0e0e0" transform="matrix(.19490202 -.98082272 .98082272 .19490202 425.315 346.496)"/><path d="m0 0h1.628v83.602h-1.628z" fill="#e0e0e0" transform="matrix(.19490202 -.98082272 .98082272 .19490202 423.492 355.73)"/><path d="m0 0h1.628v31.14h-1.628z" fill="#3e4ff7" opacity=".7" transform="matrix(.19490202 -.98082272 .98082272 .19490202 421.677 364.982)"/><path d="m0 0h1.628v54.089h-1.628z" fill="#3e4ff7" opacity=".7" transform="matrix(.19490202 -.98082272 .98082272 .19490202 453.687 203.819)"/><path d="m0 0h1.628v97.49h-1.628z" fill="#e0e0e0" transform="matrix(.19490202 -.98082272 .98082272 .19490202 451.851 213.05)"/><path d="m0 0h1.628v23.762h-1.628z" fill="#a997ff" opacity=".7" transform="matrix(.19490202 -.98082272 .98082272 .19490202 450.028 222.321)"/><path d="m0 0h1.628v108.178h-1.628z" fill="#e0e0e0" transform="matrix(.19490202 -.98082272 .98082272 .19490202 448.186 231.572)"/><path d="m820.5 550.485 10.85-54.685 95.211 18.934-10.85 54.631z" fill="url(#j)" opacity=".5" transform="translate(-373.479 -226.821)"/><path d="m0 0h54.469v95.862h-54.469z" fill="#fff" transform="matrix(.19490202 -.98082272 .98082272 .19490202 447.756 322.974)"/><path d="m0 0h1.628v108.178h-1.628z" fill="#e0e0e0" transform="matrix(.19490202 -.98082272 .98082272 .19490202 446.325 240.821)"/><path d="m0 0h39.766v11.881h-39.766z" fill="#3e4ff7" transform="matrix(.19490202 -.98082272 .98082272 .19490202 459.024 317.705)"/><path d="m0 0h26.638v11.881h-26.638z" fill="#251f5e" transform="matrix(.19490202 -.98082272 .98082272 .19490202 479.921 321.829)"/><path d="m0 0h14.322v11.881h-14.322z" fill="#bca6ff" transform="matrix(.19490202 -.98082272 .98082272 .19490202 500.834 326.009)"/><path d="m0 0h29.079v11.881h-29.079z" fill="#3a53a4" transform="matrix(.19490202 -.98082272 .98082272 .19490202 521.72 330.147)"/><path d="m973.633 476.049a54.677 54.677 0 0 0 -77.309-1.519c-.325.325-.651.6-.922.922a54.7 54.7 0 0 0 69.333 83.927l39.55 41.123a2.6 2.6 0 0 0 3.743.054l9.874-9.494a2.6 2.6 0 0 0 .054-3.743l-39.549-41.119a54.722 54.722 0 0 0 -4.774-70.151zm-12.315 66.078a39.136 39.136 0 1 1 1.085-55.337 39.153 39.153 0 0 1 -1.085 55.337z" fill="url(#k)" transform="translate(-400.531 -210.108)"/><path d="m924.021 540c-4.394 0-4.394 6.836 0 6.836s4.394-6.836 0-6.836z" fill="url(#l)" transform="translate(-419.33 -247.042)"/><path d="m959.094 499.592c-11.827-.271-22.623 5.7-28.319 14.648-1.845 2.93 3.418 5.534 5.317 2.6 4.72-7.432 13.78-12.152 23.491-11.881a29.85 29.85 0 0 1 24.417 14.218c1.845 3.092 6.781.271 4.937-2.767-6.027-9.819-17.582-16.492-29.843-16.818z" fill="url(#m)" transform="translate(-423.751 -228.552)"/><path d="m981.532 472.149a54.677 54.677 0 0 0 -77.308-1.519c-.326.326-.651.6-.922.922a54.7 54.7 0 0 0 69.333 83.927l39.549 41.123a2.6 2.6 0 0 0 3.743.054l9.874-9.494a2.6 2.6 0 0 0 .054-3.743l-39.548-41.119a54.793 54.793 0 0 0 -4.775-70.151zm-12.315 66.133a39.136 39.136 0 1 1 1.085-55.337 39.153 39.153 0 0 1 -1.085 55.337z" fill="#3e4ff7" transform="translate(-404.145 -208.324)"/><path d="m931.921 536.2c-4.394 0-4.394 6.836 0 6.836s4.394-6.836 0-6.836z" fill="#3e4ff7" transform="translate(-422.944 -245.304)"/><path d="m966.994 495.793c-11.827-.271-22.623 5.7-28.319 14.648-1.844 2.93 3.418 5.534 5.317 2.6 4.72-7.432 13.78-12.152 23.491-11.881a29.85 29.85 0 0 1 24.417 14.217c1.844 3.092 6.781.271 4.937-2.767-6.027-9.873-17.582-16.546-29.843-16.817z" fill="#3e4ff7" transform="translate(-427.365 -226.814)"/></svg>