<svg xmlns="http://www.w3.org/2000/svg" width="631" height="416.285" viewBox="0 0 631 416.285">
  <g id="Group_508" data-name="Group 508" transform="translate(-292 -3133.715)">
    <path id="Rectangle_829" data-name="Rectangle 829" d="M0,0H631a0,0,0,0,1,0,0V390a10,10,0,0,1-10,10H0a0,0,0,0,1,0,0V0A0,0,0,0,1,0,0Z" transform="translate(292 3150)" fill="#fff9ea"/>
    <g id="Group_500" data-name="Group 500" transform="translate(292 3133.715)">
      <path id="Path_1125" data-name="Path 1125" d="M734.073,191.8H137.857A17.013,17.013,0,0,0,120.8,207.862H751.13A17.09,17.09,0,0,0,734.073,191.8Z" transform="translate(-120.8 -191.8)" fill="#1d2146"/>
      <ellipse id="Ellipse_240" data-name="Ellipse 240" cx="4.283" cy="4.283" rx="4.283" ry="4.283" transform="translate(12.773 4.283)" fill="#ededf4"/>
      <ellipse id="Ellipse_241" data-name="Ellipse 241" cx="4.283" cy="4.283" rx="4.283" ry="4.283" transform="translate(25.623 4.283)" fill="#ededf4"/>
      <ellipse id="Ellipse_242" data-name="Ellipse 242" cx="4.283" cy="4.283" rx="4.283" ry="4.283" transform="translate(38.473 4.283)" fill="#ededf4"/>
    </g>
    <text id="Find_All_" data-name="Find All " transform="translate(364 3238)" fill="#1d2146" font-size="16" font-family="Nunito-Bold, Nunito" font-weight="700"><tspan x="0" y="0">Find All </tspan></text>
    <path id="Rectangle_821" data-name="Rectangle 821" d="M0,0H140a19,19,0,0,1,19,19v5a19,19,0,0,1-19,19H19A19,19,0,0,1,0,24V0A0,0,0,0,1,0,0Z" transform="translate(442 3214)" fill="#1e266d"/>
    <text id="Engineering" transform="translate(478 3239)" fill="#fff" font-size="16" font-family="Nunito-Bold, Nunito" font-weight="700"><tspan x="0" y="0">Engineering</tspan></text>
    <text id="Openings_With_Keywords_" data-name="Openings With Keywords " transform="translate(630 3239)" fill="#1d2146" font-size="16" font-family="Nunito-Bold, Nunito" font-weight="700"><tspan x="0" y="0">Openings With Keywords </tspan></text>
    <path id="Rectangle_822" data-name="Rectangle 822" d="M0,0H95a19,19,0,0,1,19,19v5A19,19,0,0,1,95,43H19A19,19,0,0,1,0,24V0A0,0,0,0,1,0,0Z" transform="translate(364 3293)" fill="#1e266d"/>
    <text id="Hadoop" transform="translate(392 3318)" fill="#fff" font-size="16" font-family="Nunito-Bold, Nunito" font-weight="700"><tspan x="0" y="0">Hadoop</tspan></text>
    <path id="Rectangle_823" data-name="Rectangle 823" d="M0,0H109a19,19,0,0,1,19,19v5a19,19,0,0,1-19,19H19A19,19,0,0,1,0,24V0A0,0,0,0,1,0,0Z" transform="translate(546 3293)" fill="#1e266d"/>
    <text id="MongoDB" transform="translate(572 3318)" fill="#fff" font-size="16" font-family="Nunito-Bold, Nunito" font-weight="700"><tspan x="0" y="0">MongoDB</tspan></text>
    <text id="Or" transform="translate(503 3318)" fill="#1d2146" font-size="16" font-family="Nunito-Bold, Nunito" font-weight="700"><tspan x="0" y="0">Or</tspan></text>
    <text id="From_Companies_With_" data-name="From Companies With " transform="translate(364 3397)" fill="#1d2146" font-size="16" font-family="Nunito-Bold, Nunito" font-weight="700"><tspan x="0" y="0">From Companies With </tspan></text>
    <path id="Rectangle_843" data-name="Rectangle 843" d="M0,0H156a19,19,0,0,1,19,19v5a19,19,0,0,1-19,19H19A19,19,0,0,1,0,24V0A0,0,0,0,1,0,0Z" transform="translate(559 3373)" fill="#1e266d"/>
    <text id="_50_Employees" data-name="50+ Employees" transform="translate(591 3399)" fill="#fff" font-size="16" font-family="Nunito-Bold, Nunito" font-weight="700"><tspan x="0" y="0">50+ Employees</tspan></text>
    <text id="Or-2" data-name="Or" transform="translate(364 3468)" fill="#1d2146" font-size="16" font-family="Nunito-Bold, Nunito" font-weight="700"><tspan x="0" y="0">Or</tspan></text>
    <path id="Rectangle_844" data-name="Rectangle 844" d="M0,0H106a19,19,0,0,1,19,19v5a19,19,0,0,1-19,19H19A19,19,0,0,1,0,24V0A0,0,0,0,1,0,0Z" transform="translate(755 3293)" fill="#1e266d"/>
    <text id="And" transform="translate(699 3318)" fill="#1d2146" font-size="16" font-family="Nunito-Bold, Nunito" font-weight="700"><tspan x="0" y="0">And</tspan></text>
    <text id="Express.js" transform="translate(781 3318)" fill="#fff" font-size="16" font-family="Nunito-Bold, Nunito" font-weight="700"><tspan x="0" y="0">Express.js</tspan></text>
    <path id="Rectangle_845" data-name="Rectangle 845" d="M0,0H145a19,19,0,0,1,19,19v5a19,19,0,0,1-19,19H19A19,19,0,0,1,0,24V0A0,0,0,0,1,0,0Z" transform="translate(408 3444)" fill="#1e266d"/>
    <text id="_50M_Raised" data-name="$50M Raised" transform="translate(440 3469)" fill="#fff" font-size="16" font-family="Nunito-Bold, Nunito" font-weight="700"><tspan x="0" y="0">$50M Raised</tspan></text>
    <text id="Located_in_" data-name="Located in " transform="translate(597 3469)" fill="#1d2146" font-size="16" font-family="Nunito-Bold, Nunito" font-weight="700"><tspan x="0" y="0">Located in </tspan></text>
    <path id="Rectangle_846" data-name="Rectangle 846" d="M0,0H106a19,19,0,0,1,19,19v5a19,19,0,0,1-19,19H19A19,19,0,0,1,0,24V0A0,0,0,0,1,0,0Z" transform="translate(703 3444)" fill="#1e266d"/>
    <text id="Europe" transform="translate(735 3469)" fill="#fff" font-size="16" font-family="Nunito-Bold, Nunito" font-weight="700"><tspan x="0" y="0">Europe</tspan></text>
  </g>
</svg>
