<svg xmlns="http://www.w3.org/2000/svg" xmlns:xlink="http://www.w3.org/1999/xlink" width="123.149" height="128.266" viewBox="0 0 123.149 128.266"><defs><linearGradient id="a" y1="0.5" x2="1" y2="0.5" gradientUnits="objectBoundingBox"><stop offset="0" stop-color="gray" stop-opacity="0.251"/><stop offset="0.54" stop-color="gray" stop-opacity="0.122"/><stop offset="1" stop-color="gray" stop-opacity="0.102"/></linearGradient><linearGradient id="h" x1="0.5" y1="1" x2="0.5" y2="0" xlink:href="#a"/><linearGradient id="j" x1="0" y1="0.5" y2="0.5" xlink:href="#a"/><linearGradient id="u" x1="0.5" y1="1" x2="0.5" y2="0" xlink:href="#a"/><linearGradient id="z" x1="0" y1="0.5" y2="0.5" xlink:href="#a"/><linearGradient id="ar" x1="0" y1="0.5" y2="0.5" xlink:href="#a"/><linearGradient id="aw" x1="0.5" y1="1" x2="0.5" y2="0" xlink:href="#a"/><linearGradient id="ax" x1="0" y1="0.5" y2="0.5" xlink:href="#a"/><linearGradient id="ay" x1="0.5" y1="0.999" x2="0.5" y2="-0.002" xlink:href="#a"/><linearGradient id="az" x1="0" y1="0.5" y2="0.5" xlink:href="#a"/><linearGradient id="ba" x1="0.001" y1="0.501" y2="0.501" xlink:href="#a"/><linearGradient id="bf" x1="0" y1="0.5" y2="0.5" xlink:href="#a"/><linearGradient id="bh" x1="0" y1="0.5" y2="0.5" xlink:href="#a"/><linearGradient id="bi" x1="0" y1="0.498" y2="0.498" xlink:href="#a"/><linearGradient id="bj" x1="0" y1="0.498" y2="0.498" xlink:href="#a"/><linearGradient id="bl" x1="0" y1="0.502" y2="0.502" xlink:href="#a"/><linearGradient id="bm" x1="0" y1="0.502" y2="0.502" xlink:href="#a"/><linearGradient id="bo" x1="0" y1="0.5" y2="0.5" xlink:href="#a"/><linearGradient id="br" x1="0" y1="0.499" y2="0.499" xlink:href="#a"/><linearGradient id="bs" x1="0" y1="0.501" y2="0.501" xlink:href="#a"/><linearGradient id="ch" x1="0.5" y1="1.002" x2="0.5" y2="0.003" xlink:href="#a"/><linearGradient id="cj" x1="0.5" y1="1" x2="0.5" y2="0" xlink:href="#a"/></defs><g transform="translate(0 21.591)" opacity="0.7"><path d="M406.994,317.913,366.37,308.13V384.7l40.624-10.634Z" transform="translate(-304.901 -278.024)" fill="url(#a)"/><g transform="translate(61.469 30.106)" opacity="0.1"><path d="M406.994,317.913,366.37,308.13V384.7l40.624-10.634Z" transform="translate(-366.37 -308.13)" fill="url(#a)"/></g><path d="M124.23,317.913l40.626-9.783V384.7L124.23,374.276Z" transform="translate(-103.387 -278.024)" fill="url(#a)"/><g transform="translate(20.843 30.106)" opacity="0.17"><path d="M124.23,317.913l40.626-9.783V384.7L124.23,374.276Z" transform="translate(-124.23 -308.13)" fill="url(#a)"/></g><path d="M366.37,221.62l21.056-17.44L428.05,214.6l-21.056,16.8Z" transform="translate(-304.901 -191.515)" fill="url(#a)"/><path d="M0,214.814,20.843,231.4l40.626-9.783L40.837,204.18Z" transform="translate(0 -191.515)" fill="url(#a)"/><g transform="translate(0 12.666)" opacity="0.05"><path d="M0,214.814,20.843,231.4l40.626-9.783L40.837,204.18Z" transform="translate(0 -204.18)" fill="url(#a)"/></g><g transform="translate(31.337 21.256)" opacity="0.5"><rect width="30.153" height="27.821" rx="4.5" fill="url(#h)"/></g><rect width="29.458" height="27.146" rx="4.5" transform="translate(31.705 21.47)" fill="url(#a)"/><rect width="4.968" height="4.471" rx="2.236" transform="translate(33.975 25.942)" fill="url(#j)"/><rect width="19.749" height="0.497" rx="0.248" transform="translate(40.433 25.942)" fill="url(#a)"/><rect width="19.749" height="0.497" rx="0.248" transform="translate(40.433 27.432)" fill="url(#a)"/><rect width="26.703" height="0.497" rx="0.248" transform="translate(33.478 32.842)" fill="url(#a)"/><rect width="26.703" height="0.497" rx="0.248" transform="translate(33.478 34.332)" fill="url(#a)"/><rect width="26.703" height="0.497" rx="0.248" transform="translate(33.478 36.319)" fill="url(#a)"/><rect width="15.4" height="0.497" rx="0.248" transform="translate(33.478 37.81)" fill="url(#a)"/><rect width="26.703" height="0.497" rx="0.248" transform="translate(33.478 39.792)" fill="url(#a)"/><rect width="26.703" height="0.497" rx="0.248" transform="translate(33.478 41.282)" fill="url(#a)"/><rect width="26.703" height="0.497" rx="0.248" transform="translate(33.478 43.27)" fill="url(#a)"/><rect width="15.4" height="0.497" rx="0.248" transform="translate(33.478 44.76)" fill="url(#a)"/><g transform="translate(35.888 27.683)" opacity="0.5"><rect width="30.153" height="27.821" rx="4.5" fill="url(#u)"/></g><rect width="29.458" height="27.146" rx="4.5" transform="translate(36.255 27.9)" fill="url(#a)"/><rect width="4.968" height="4.471" rx="2.236" transform="translate(38.525 32.371)" fill="url(#j)"/><rect width="19.749" height="0.497" rx="0.248" transform="translate(44.984 32.371)" fill="url(#a)"/><rect width="19.749" height="0.497" rx="0.248" transform="translate(44.984 33.861)" fill="url(#a)"/><rect width="26.703" height="0.497" rx="0.248" transform="translate(38.028 39.27)" fill="url(#z)"/><rect width="26.703" height="0.497" rx="0.248" transform="translate(38.028 40.761)" fill="url(#z)"/><rect width="26.703" height="0.497" rx="0.248" transform="translate(38.028 42.748)" fill="url(#z)"/><rect width="15.4" height="0.497" rx="0.248" transform="translate(38.028 44.238)" fill="url(#a)"/><rect width="26.703" height="0.497" rx="0.248" transform="translate(38.028 46.221)" fill="url(#z)"/><rect width="26.703" height="0.497" rx="0.248" transform="translate(38.028 47.711)" fill="url(#z)"/><rect width="26.703" height="0.497" rx="0.248" transform="translate(38.028 49.699)" fill="url(#z)"/><rect width="15.4" height="0.497" rx="0.248" transform="translate(38.028 51.189)" fill="url(#a)"/><g transform="translate(53.422 31.284)" opacity="0.5"><rect width="26.126" height="30.697" fill="url(#u)"/></g><rect width="24.767" height="29.524" transform="translate(54.226 31.779)" fill="url(#a)"/><g transform="translate(63.371 35.732)" opacity="0.5"><path d="M615.3,410.152v-.742H612.6v.742H610.71v3.642h6.476v-3.642Zm-2.357-.475h2.013v.471H612.94Z" transform="translate(-610.71 -409.41)" fill="url(#u)"/></g><rect width="5.929" height="3.335" transform="translate(63.645 36.596)" fill="url(#a)"/><path d="M389.65,342.76v.866h.309v-.617h1.852v.617h.309v-.866Z" transform="translate(-324.276 -306.844)" fill="url(#a)"/><rect width="17.417" height="0.742" transform="translate(57.932 44.731)" fill="url(#a)"/><rect width="17.417" height="0.742" transform="translate(57.932 49.61)" fill="url(#a)"/><rect width="17.417" height="0.742" transform="translate(57.932 50.907)" fill="url(#a)"/><rect width="7.35" height="0.742" transform="translate(57.932 48.313)" fill="url(#a)"/><g transform="translate(69.852 48.313)" opacity="0.6"><rect width="5.496" height="0.742" fill="url(#a)"/></g><rect width="5.496" height="0.742" transform="translate(64.046 53.934)" fill="url(#ar)"/><path d="M124.23,366.44V422.8l40.626,10.422V377.288Z" transform="translate(-103.387 -326.551)" fill="url(#a)"/><path d="M406.994,422.592,366.37,433.225V377.288l40.624-10.848Z" transform="translate(-304.901 -326.551)" fill="url(#a)"/><g transform="translate(61.469 39.889)" opacity="0.07"><path d="M406.994,422.592,366.37,433.225V377.288l40.624-10.848Z" transform="translate(-366.37 -366.44)" fill="url(#a)"/></g><g transform="translate(85.927 72.857)" opacity="0.07"><path d="M512.15,567.406v18.5l16.165-4.466v-18.5Z" transform="translate(-512.15 -562.94)" fill="url(#a)"/></g><rect width="11.981" height="11.511" transform="translate(80.832 35.188)" fill="url(#aw)"/><rect width="11.605" height="10.994" transform="translate(81.02 35.47)" fill="url(#ax)"/><g transform="translate(84.358 36.837)" opacity="0.5"><path d="M739.29,416.56V416h-2.052v.564H735.8v2.772h4.928V416.56Zm-1.8-.359h1.54v.359h-1.54Z" transform="translate(-735.8 -416)" fill="url(#ay)"/></g><g transform="translate(84.566 37.492)" opacity="0.6"><rect width="4.51" height="2.537" transform="translate(0 0)" fill="url(#az)"/></g><g transform="translate(85.882 36.973)" opacity="0.6"><path d="M511.88,349.06v.659h.237v-.47h1.409v.47h.235v-.659Z" transform="translate(-511.88 -349.06)" fill="url(#ba)"/></g><g transform="translate(84.825 42.001)" opacity="0.6"><rect width="4.181" height="0.564" fill="url(#az)"/></g><rect width="7.142" height="0.564" transform="translate(83.251 43.035)" fill="url(#a)"/><g transform="translate(52.429)" opacity="0.5"><rect width="15.523" height="12.751" fill="url(#aw)"/></g><rect width="15.132" height="12.298" transform="translate(52.61 0.242)" fill="url(#a)"/><rect width="15.132" height="2.743" transform="translate(52.61 0.242)" fill="url(#bf)"/><g transform="translate(52.61 0.242)" opacity="0.1"><rect width="15.132" height="2.743" fill="url(#bf)"/></g><rect width="12.721" height="1.597" transform="translate(53.816 3.98)" fill="url(#bh)"/><rect width="9.285" height="0.542" transform="translate(53.816 6.783)" fill="url(#bi)"/><rect width="6.028" height="0.542" transform="translate(53.816 7.718)" fill="url(#bj)"/><rect width="7.958" height="0.542" transform="translate(53.816 8.652)" fill="url(#bj)"/><rect width="9.285" height="0.542" transform="translate(53.816 9.585)" fill="url(#bl)"/><rect width="3.104" height="0.542" transform="translate(53.816 10.52)" fill="url(#bm)"/><g transform="translate(75.251 9.575)" opacity="0.5"><rect width="19.241" height="15.803" fill="url(#u)"/></g><rect width="18.756" height="15.243" transform="translate(75.476 9.874)" fill="url(#bo)"/><rect width="18.756" height="3.399" transform="translate(75.476 9.874)" fill="url(#bh)"/><rect width="15.766" height="1.98" transform="translate(76.97 14.506)" fill="url(#a)"/><rect width="11.508" height="0.673" transform="translate(76.97 17.981)" fill="url(#br)"/><rect width="7.473" height="0.673" transform="translate(76.97 19.138)" fill="url(#bs)"/><rect width="9.864" height="0.673" transform="translate(76.97 20.298)" fill="url(#br)"/><rect width="11.508" height="0.673" transform="translate(76.97 21.455)" fill="url(#br)"/><rect width="3.849" height="0.673" transform="translate(76.97 22.613)" fill="url(#bs)"/><rect width="4.483" height="0.597" transform="translate(77.792 15.179)" fill="url(#a)"/><g transform="translate(20.313 40.634)" opacity="0.1"><path d="M121.07,399.38l22.757,5.743,18.291-14.889v-9.146L121.494,370.88Z" transform="translate(-121.07 -370.88)" fill="url(#a)"/></g><g transform="translate(61.361 40.634)" opacity="0.1"><path d="M406.78,399.38l-22.759,5.743L365.73,390.235v-9.146l40.624-10.209Z" transform="translate(-365.73 -370.88)" fill="url(#a)"/></g><path d="M20.843,366.44,0,383.669l40.624,10.209,20.845-16.59Z" transform="translate(0 -326.551)" fill="url(#a)"/><path d="M406.994,366.44l21.056,17.229-40.411,10.209-21.269-16.59Z" transform="translate(-304.901 -326.551)" fill="url(#a)"/><g transform="translate(61.469 39.889)" opacity="0.07"><path d="M406.994,366.44l21.056,17.229-40.411,10.209-21.269-16.59Z" transform="translate(-366.37 -366.44)" fill="url(#a)"/></g></g><path d="M409.157,315.241l-40.277-9.7v75.914l40.277-10.543Z" transform="translate(-306.99 -254.277)" fill="#535461"/><path d="M409.157,315.241l-40.277-9.7v75.914l40.277-10.543Z" transform="translate(-306.99 -254.277)" opacity="0.1"/><path d="M128.83,315.241l40.275-9.7v75.914L128.83,371.121Z" transform="translate(-107.215 -254.277)" fill="#535461"/><path d="M128.83,313.241l40.275-9.7v76.25L128.83,369.456Z" transform="translate(-107.215 -252.613)" opacity="0.17"/><path d="M366.88,220.107l21.212-17.627,40.277,10.333-21.212,16.994Z" transform="translate(-305.326 -168.508)" fill="#535461"/><path d="M7.66,215.023l20.665,16.449,40.275-9.7L48.146,204.48Z" transform="translate(-6.375 -170.173)" fill="#535461"/><path d="M5.66,213.023l21.168,16.784,40.275-9.7L46.146,202.48Z" transform="translate(-4.71 -168.508)" opacity="0.05"/><g transform="translate(32.017 42.488)" opacity="0.5"><rect width="29.895" height="27.583" rx="4.5" fill="url(#u)"/></g><rect width="29.205" height="26.913" rx="4.5" transform="translate(32.383 42.703)" fill="#f5f5f5"/><rect width="4.926" height="4.433" rx="2.216" transform="translate(34.633 47.135)" fill="#3e4ff7"/><rect width="19.58" height="0.493" rx="0.247" transform="translate(41.037 47.135)" fill="#e0e0e0"/><rect width="19.58" height="0.493" rx="0.247" transform="translate(41.037 48.612)" fill="#e0e0e0"/><rect width="26.475" height="0.493" rx="0.247" transform="translate(34.141 53.976)" fill="#e0e0e0"/><rect width="26.475" height="0.493" rx="0.247" transform="translate(34.141 55.454)" fill="#e0e0e0"/><rect width="26.475" height="0.493" rx="0.247" transform="translate(34.141 57.423)" fill="#e0e0e0"/><rect width="15.269" height="0.493" rx="0.247" transform="translate(34.141 58.902)" fill="#e0e0e0"/><rect width="26.475" height="0.493" rx="0.247" transform="translate(34.141 60.866)" fill="#e0e0e0"/><rect width="26.475" height="0.493" rx="0.247" transform="translate(34.141 62.344)" fill="#e0e0e0"/><rect width="26.475" height="0.493" rx="0.247" transform="translate(34.141 64.314)" fill="#e0e0e0"/><rect width="15.269" height="0.493" rx="0.247" transform="translate(34.141 65.792)" fill="#e0e0e0"/><g transform="translate(36.528 48.862)" opacity="0.5"><rect width="29.895" height="27.583" rx="4.5" fill="url(#aw)"/></g><rect width="29.205" height="26.913" rx="4.5" transform="translate(36.894 49.077)" fill="#fff"/><rect width="4.926" height="4.433" rx="2.216" transform="translate(39.144 53.509)" fill="#3e4ff7"/><rect width="19.58" height="0.493" rx="0.247" transform="translate(45.548 53.509)" fill="#e0e0e0"/><rect width="19.58" height="0.493" rx="0.247" transform="translate(45.548 54.986)" fill="#e0e0e0"/><rect width="26.475" height="0.493" rx="0.247" transform="translate(38.653 60.349)" fill="#e0e0e0"/><rect width="26.475" height="0.493" rx="0.247" transform="translate(38.653 61.828)" fill="#e0e0e0"/><rect width="26.475" height="0.493" rx="0.247" transform="translate(38.653 63.797)" fill="#e0e0e0"/><rect width="15.269" height="0.493" rx="0.247" transform="translate(38.653 65.275)" fill="#e0e0e0"/><rect width="26.475" height="0.493" rx="0.247" transform="translate(38.653 67.24)" fill="#e0e0e0"/><rect width="26.475" height="0.493" rx="0.247" transform="translate(38.653 68.718)" fill="#e0e0e0"/><rect width="26.475" height="0.493" rx="0.247" transform="translate(38.653 70.688)" fill="#e0e0e0"/><rect width="15.269" height="0.493" rx="0.247" transform="translate(38.653 72.166)" fill="#e0e0e0"/><g transform="translate(53.914 52.432)" opacity="0.5"><rect width="25.903" height="30.433" fill="url(#u)"/></g><rect width="24.556" height="29.27" transform="translate(54.71 52.922)" fill="#fff"/><g transform="translate(63.777 56.84)" opacity="0.5"><path d="M617.678,407.267v-.737H615v.737H613.13v3.612h6.421v-3.612Zm-2.349-.468h2.013v.468H615.33Z" transform="translate(-613.13 -406.53)" fill="url(#aw)"/></g><rect width="5.879" height="3.307" transform="translate(64.049 57.699)" fill="#3e4ff7"/><path d="M391.97,339.88v.857h.305v-.612h1.837v.612h.307v-.857Z" transform="translate(-326.206 -282.856)" fill="#3e4ff7"/><rect width="17.268" height="0.735" transform="translate(58.385 65.764)" fill="#e0e0e0"/><rect width="17.268" height="0.735" transform="translate(58.385 70.601)" fill="#e0e0e0"/><rect width="17.268" height="0.735" transform="translate(58.385 71.888)" fill="#e0e0e0"/><rect width="7.287" height="0.735" transform="translate(58.385 69.316)" fill="#e0e0e0"/><rect width="5.449" height="0.735" transform="translate(70.203 69.316)" fill="#3ad29f" opacity="0.6"/><rect width="5.449" height="0.735" transform="translate(64.447 74.887)" fill="#3e4ff7"/><path d="M128.83,363.36v55.88L169.1,429.573l.544-55.459Z" transform="translate(-107.215 -302.396)" fill="#535461"/><path d="M409.157,419.03,368.88,429.573V374.114l40.277-10.754Z" transform="translate(-306.99 -302.396)" fill="#535461"/><path d="M409.157,419.03,368.88,429.573V374.114l40.277-10.754Z" transform="translate(-306.99 -302.396)" opacity="0.07"/><path d="M513.42,562.6v18.345l16.026-4.428V558.17Z" transform="translate(-427.28 -464.522)" opacity="0.07"/><rect width="11.879" height="11.412" transform="translate(81.088 56.303)" fill="url(#u)"/><rect width="11.506" height="10.9" transform="translate(81.275 56.581)" fill="#f5f5f5"/><g transform="translate(84.587 57.925)" opacity="0.5"><path d="M740.62,413.567V413h-2.035v.56H737.16v2.748h4.884v-2.741Zm-1.78-.356h1.527v.356H738.84Z" transform="translate(-737.16 -413)" fill="url(#ch)"/></g><rect width="4.471" height="2.515" transform="translate(84.791 58.584)" fill="#3e4ff7" opacity="0.6"/><path d="M513.16,346.13v.653h.233v-.466h1.4v.466h.232v-.653Z" transform="translate(-427.063 -288.057)" fill="#3e4ff7" opacity="0.6"/><g transform="translate(85.048 63.057)" opacity="0.6"><rect width="4.146" height="0.559" fill="#3e4ff7"/></g><rect width="7.08" height="0.559" transform="translate(83.488 64.083)" fill="#bdbdbd"/><rect width="11.879" height="11.412" transform="translate(69.701)" fill="url(#u)"/><rect width="11.506" height="10.9" transform="translate(69.888 0.28)" fill="#f5f5f5"/><g transform="translate(73.2 1.631)" opacity="0.5"><path d="M672.75,78.029V77.47h-2.035v.559H669.29v2.748h4.884V78.029Zm-1.78-.356H672.5v.356h-1.527Z" transform="translate(-669.29 -77.47)" fill="url(#cj)"/></g><rect width="4.471" height="2.515" transform="translate(73.404 2.282)" fill="#3e4ff7" opacity="0.6"/><path d="M445.29,10.55V11.2h.233v-.466h1.4V11.2h.232V10.55Z" transform="translate(-370.581 -8.78)" fill="#3e4ff7" opacity="0.6"/><g transform="translate(73.661 6.755)" opacity="0.6"><rect width="4.146" height="0.559" fill="#3e4ff7"/></g><rect width="7.08" height="0.559" transform="translate(72.101 7.78)" fill="#bdbdbd"/><g transform="translate(52.929 21.415)" opacity="0.5"><rect width="15.39" height="12.642" fill="url(#aw)"/></g><rect width="15.003" height="12.192" transform="translate(53.108 21.655)" fill="#f2f2f2"/><rect width="15.003" height="2.72" transform="translate(53.108 21.655)" fill="#3e4ff7"/><rect width="15.003" height="2.72" transform="translate(53.108 21.655)" opacity="0.1"/><rect width="12.612" height="1.584" transform="translate(54.304 25.361)" fill="#e0e0e0"/><rect width="9.204" height="0.539" transform="translate(54.304 28.14)" fill="#e0e0e0"/><rect width="5.976" height="0.539" transform="translate(54.304 29.066)" fill="#e0e0e0"/><rect width="7.889" height="0.539" transform="translate(54.304 29.992)" fill="#e0e0e0"/><rect width="9.204" height="0.539" transform="translate(54.304 30.92)" fill="#e0e0e0"/><rect width="3.079" height="0.539" transform="translate(54.304 31.846)" fill="#e0e0e0"/><g transform="translate(75.555 30.908)" opacity="0.5"><rect width="19.076" height="15.669" fill="url(#u)"/></g><rect width="18.595" height="15.113" transform="translate(75.778 31.203)" fill="#fff"/><rect width="18.595" height="3.371" transform="translate(75.778 31.203)" fill="#3e4ff7"/><rect width="15.632" height="1.963" transform="translate(77.26 35.797)" fill="#f5f5f5"/><rect width="11.409" height="0.666" transform="translate(77.26 39.241)" fill="#e0e0e0"/><rect width="7.409" height="0.666" transform="translate(77.26 40.391)" fill="#e0e0e0"/><rect width="9.778" height="0.666" transform="translate(77.26 41.538)" fill="#e0e0e0"/><rect width="11.409" height="0.666" transform="translate(77.26 42.688)" fill="#e0e0e0"/><rect width="3.815" height="0.666" transform="translate(77.26 43.835)" fill="#e0e0e0"/><rect width="4.444" height="0.592" transform="translate(78.075 36.463)" fill="#69f0ae"/><path d="M125.69,396.017l22.563,5.693,18.135-14.761v-9.067L126.111,367.76Z" transform="translate(-104.602 -306.058)" opacity="0.1"/><path d="M408.958,396.017,386.4,401.71,368.26,386.949v-9.067l40.277-10.122Z" transform="translate(-306.474 -306.058)" opacity="0.1"/><path d="M26.325,363.36,5.66,380.44l40.275,10.122L66.6,374.114Z" transform="translate(-4.71 -302.396)" fill="#535461"/><path d="M409.157,363.36l20.877,17.08-40.065,10.122L368.88,374.114Z" transform="translate(-306.99 -302.396)" fill="#535461"/><path d="M409.157,363.36l20.877,17.08-40.065,10.122L368.88,374.114Z" transform="translate(-306.99 -302.396)" opacity="0.07"/></svg>