<svg xmlns="http://www.w3.org/2000/svg" width="113.355" height="46.456" viewBox="0 0 113.355 46.456">
  <g id="mars-logo-01" transform="translate(0 -0.044)">
    <path id="Path_1127" data-name="Path 1127" d="M0,30.237v-1.42a.409.409,0,0,0,0-.335v-.287a10.115,10.115,0,0,1,.351-1.962A14.43,14.43,0,0,1,1.9,22.851,21.714,21.714,0,0,1,6,18.161a41,41,0,0,1,7.513-5.2c1.021-.558,2.058-1.085,3.095-1.6a2.093,2.093,0,0,0,.75-.59c1.053-1.276,2.169-2.489,3.3-3.685a14.467,14.467,0,0,1,1.994-1.834,7.411,7.411,0,0,1,4.036-1.468,8.09,8.09,0,0,1,5.44,1.531.633.633,0,0,0,.558.1C35.716,4.57,38.8,3.836,41.874,3.2c2.839-.574,5.695-1.085,8.566-1.484,2.09-.3,4.2-.558,6.3-.766,1.4-.144,2.823-.255,4.227-.367.782-.064,1.579-.1,2.377-.144,1.563-.1,3.127-.112,4.69-.144C69.79.263,71.545.279,73.3.279c1.053,0,2.09,0,3.143.064L78.9.486c.861.048,1.723.128,2.6.207,1.117.1,2.233.223,3.35.367,1.962.239,3.924.558,5.87.941,1.994.4,3.956.877,5.9,1.468,1.244.383,2.457.8,3.653,1.292a.8.8,0,0,0,.686-.016,8.9,8.9,0,0,1,3.8-.782A9.125,9.125,0,0,1,110.8,6.325,8.237,8.237,0,0,1,113.036,9.4a5.537,5.537,0,0,1,.319,1.42v1.755a4.81,4.81,0,0,1-.319,1.228,4.476,4.476,0,0,1-.893,1.4.575.575,0,0,0-.16.654,7.832,7.832,0,0,1,.239,2.106,10.525,10.525,0,0,1-.51,3.206,15.676,15.676,0,0,1-3.063,5.312c-.495.574-1,1.133-1.547,1.659a32.8,32.8,0,0,1-4.084,3.35A49.721,49.721,0,0,1,97.5,34.831a80.521,80.521,0,0,1-10.433,4.53c-3.621,1.308-7.306,2.377-11.039,3.318-3.988,1-8.008,1.8-12.076,2.457-2.217.351-4.451.654-6.684.909q-2.154.239-4.307.431c-1.308.112-2.616.207-3.924.223-.032,0-.048.016-.08.032H33.372c-.495-.08-.989-.048-1.484-.08-.925-.064-1.834-.16-2.76-.255-1.627-.175-3.254-.383-4.881-.654-1.579-.255-3.143-.558-4.706-.909a54.4,54.4,0,0,1-5.663-1.611c-.638-.223-1.276-.463-1.9-.718-.207-.1-.319-.064-.4.16a6.72,6.72,0,0,1-.814,1.484,4.43,4.43,0,0,1-3.509,1.866A5.074,5.074,0,0,1,4.9,45.519,8.64,8.64,0,0,1,1,42.057,5.455,5.455,0,0,1,.319,39.6a8.883,8.883,0,0,1,1.053-4.275.875.875,0,0,0-.032-.941A9.538,9.538,0,0,1,.08,30.859,4.15,4.15,0,0,0,0,30.237Z" transform="translate(0 -0.231)" fill="#1e266d"/>
    <path id="Path_1131" data-name="Path 1131" d="M0,177.1c.112.112.064.223,0,.335Z" transform="translate(0 -148.849)" fill="#686a6c"/>
    <path id="Path_1132" data-name="Path 1132" d="M38.9,46.284c.415-.51.814-1.021,1.228-1.531a74.6,74.6,0,0,1,6.11-6.8c.542-.51,1.085-1.021,1.659-1.5a5.024,5.024,0,0,1,5.057-.845,4.94,4.94,0,0,1,1.515.734,3.235,3.235,0,0,1,1.356,3.589c-.287,1.308-.654,2.584-.893,3.908-.287,1.579-.51,3.158-.654,4.754a35.134,35.134,0,0,0-.207,4.291,15.678,15.678,0,0,0,.542,4.387,7.584,7.584,0,0,0,.766,1.627,4.23,4.23,0,0,1,.654,1.675,2.645,2.645,0,0,1-1.2,2.5,5.336,5.336,0,0,1-3.35.909A4.973,4.973,0,0,1,47.177,61.6,8.61,8.61,0,0,1,46.108,59a17.324,17.324,0,0,1-.4-3.382c-.064-1.372-.048-2.728.016-4.1.032-.8.1-1.6.144-2.393a1.1,1.1,0,0,0-.032-.447c-.207.271-.431.526-.638.8A97.651,97.651,0,0,0,35.42,64.565a6.338,6.338,0,0,1-.319.558,2.778,2.778,0,0,1-2.584,1.436,4.769,4.769,0,0,1-3.765-1.834,4.977,4.977,0,0,1-.893-2.664,25.6,25.6,0,0,1,.3-5.519c.3-2.217.67-4.435,1.117-6.62.1-.463.191-.925.287-1.4a.553.553,0,0,0-.223.255,86.218,86.218,0,0,0-8.805,15.473c-.495,1.149-.925,2.329-1.34,3.509a4.661,4.661,0,0,1-.845,1.5,2.919,2.919,0,0,1-3.206.877A4.529,4.529,0,0,1,11.7,66.671a5,5,0,0,1,.287-2.935,31.271,31.271,0,0,1,2.154-4.483A139.319,139.319,0,0,1,25.37,41.866a82.458,82.458,0,0,1,6.8-7.928,6.532,6.532,0,0,1,3.557-2.058,6.848,6.848,0,0,1,4.355.59,3.467,3.467,0,0,1,1.866,4.243c-.287,1.1-.75,2.154-1.133,3.222C40.094,42.025,39.424,44.131,38.9,46.284Z" transform="translate(-9.737 -26.695)" fill="#a5a7aa"/>
    <path id="Path_1133" data-name="Path 1133" d="M307.7,83.776a4.219,4.219,0,0,1,1.707-.957,2.83,2.83,0,0,1,3.446,1.994,3.713,3.713,0,0,1-.271,2.855,8.883,8.883,0,0,1-2.09,2.648,12.155,12.155,0,0,1-4.291,2.728,5.563,5.563,0,0,1-3.222.255,3.624,3.624,0,0,1-2.6-2.313c-.048-.112-.08-.223-.128-.351-.128.016-.175.112-.239.191a18.33,18.33,0,0,1-4.961,3.749,9.3,9.3,0,0,1-4.068,1.069,5.666,5.666,0,0,1-5.663-4.451,10.342,10.342,0,0,1,.144-5.312,18.522,18.522,0,0,1,5.408-8.726,15.892,15.892,0,0,1,5.216-3.382,9.3,9.3,0,0,1,3.733-.7,5.519,5.519,0,0,1,4.084,1.914.347.347,0,0,0,.495.1,4.65,4.65,0,0,1,2.712-.351,2.726,2.726,0,0,1,2.233,3.35,21.386,21.386,0,0,1-.861,2.648,23.074,23.074,0,0,0-.814,2.9C307.6,83.713,307.553,83.792,307.7,83.776Z" transform="translate(-239.566 -61.412)" fill="#a5a7aa"/>
    <path id="Path_1134" data-name="Path 1134" d="M568.07,33.1A6.467,6.467,0,0,1,573.7,36a4.463,4.463,0,0,1,.463,4.2,2.356,2.356,0,0,1-2.026,1.627,2.138,2.138,0,0,1-1.787-.654c-.223-.223-.415-.463-.622-.686a2.281,2.281,0,0,0-.447-.431,1.109,1.109,0,0,0-1.165-.175,1.092,1.092,0,0,0-.622,1.037,4.179,4.179,0,0,0,.367,1.643,18.737,18.737,0,0,1,1.021,3.462,8.243,8.243,0,0,1-2.9,8.1,10.058,10.058,0,0,1-5.2,2.377,9.071,9.071,0,0,1-6.6-1.244,6.244,6.244,0,0,1-2.855-4.339,3.79,3.79,0,0,1,1.34-3.828,2.461,2.461,0,0,1,3.446.223c.351.351.638.766.957,1.149a2.226,2.226,0,0,0,2.552.766,2.268,2.268,0,0,0,1.515-2.233,7.116,7.116,0,0,0-.431-2.377,11.476,11.476,0,0,1-.654-3.509,7.666,7.666,0,0,1,3.047-6.3A8.062,8.062,0,0,1,568.07,33.1Z" transform="translate(-463.314 -27.82)" fill="#a5a7aa"/>
    <path id="Path_1135" data-name="Path 1135" d="M459.692,52.5a17.753,17.753,0,0,1,2.153-2.09,9.456,9.456,0,0,1,4.467-2.169,5.549,5.549,0,0,1,4.53.973,4.616,4.616,0,0,1,1.675,3.047,4.385,4.385,0,0,1-.383,2.808A2.329,2.329,0,0,1,470,56.439a1.408,1.408,0,0,1-.845-.271,2.769,2.769,0,0,0-2.568-.207,6.514,6.514,0,0,0-2.792,1.962,28.149,28.149,0,0,0-4.514,7.242c-.431.957-.814,1.93-1.26,2.871a4.591,4.591,0,0,1-5.424,2.441,3.031,3.031,0,0,1-2.138-3.956,6.623,6.623,0,0,1,.447-1.1,16.987,16.987,0,0,0,1.117-2.792,3.693,3.693,0,0,1-1.771-.128,3.588,3.588,0,0,1-2.169-4.467,5.839,5.839,0,0,1,1.18-2.074,17.484,17.484,0,0,1,4.77-4.084,5.436,5.436,0,0,1,2.983-.83,3.2,3.2,0,0,1,2.568,1.324C459.612,52.4,459.644,52.451,459.692,52.5Z" transform="translate(-376.471 -40.455)" fill="#a5a7aa"/>
    <path id="Path_1136" data-name="Path 1136" d="M669.3,97.983a1.491,1.491,0,0,1-1.5-1.515A1.444,1.444,0,0,1,669.268,95a1.515,1.515,0,0,1,1.515,1.515A1.448,1.448,0,0,1,669.3,97.983Z" transform="translate(-561.273 -79.846)" fill="#a4a6a9"/>
    <path id="Path_1137" data-name="Path 1137" d="M426.471,139.528c-.016.048-.08.1-.1.08a.172.172,0,0,1,.032-.207A.117.117,0,0,0,426.471,139.528Z" transform="translate(-358.34 -117.163)" fill="#454546"/>
    <path id="Path_1138" data-name="Path 1138" d="M23.458,75.152H23.41a2.2,2.2,0,0,1-.287-2.122A20.591,20.591,0,0,1,24.4,70.191c.67-1.26,1.356-2.52,2.074-3.765q1.89-3.278,3.924-6.461,2.68-4.187,5.695-8.167c1.42-1.866,2.871-3.685,4.435-5.44.877-.989,1.787-1.962,2.744-2.9a4.58,4.58,0,0,1,2.409-1.292A4.808,4.808,0,0,1,49.2,42.8a.839.839,0,0,1,.431.526c-.016.128.128.128.175.223a2.478,2.478,0,0,1-.144,1.659c-.654,1.563-1.228,3.174-1.739,4.786a83.9,83.9,0,0,0-2.871,11.31l-.144.957c-.016.112-.064.287.048.335.128.048.175-.128.255-.207.1-.128.16-.271.255-.4.064-.032.112-.048.128-.128.191-.271.383-.542.558-.814a84.756,84.756,0,0,1,6.221-8.263c1.037-1.228,2.106-2.409,3.206-3.573A38.229,38.229,0,0,1,58.44,46.5a2.933,2.933,0,0,1,1.5-.8,4.116,4.116,0,0,1,3.015.606.728.728,0,0,1,.415.542c.016.1.144.1.16.175a3.066,3.066,0,0,1-.048,1.611c-.367,1.452-.7,2.887-.941,4.371-.223,1.356-.415,2.712-.542,4.084a36.484,36.484,0,0,0-.207,4.179,17.837,17.837,0,0,0,.447,4.1,6.606,6.606,0,0,0,.861,2.01,5.1,5.1,0,0,1,.463.814,1.238,1.238,0,0,1-.463,1.659,3.3,3.3,0,0,1-1.579.51A4,4,0,0,1,59.206,70c-.08-.048-.144-.128-.239-.144a.693.693,0,0,0-.112-.064,2.2,2.2,0,0,1-.782-.75,5.558,5.558,0,0,1-.925-2.52,20.972,20.972,0,0,1-.239-3.318c.016-1.308-.032-2.616.064-3.924.1-1.42.223-2.855.415-4.275a12.3,12.3,0,0,1,.3-1.866c.016-.032,0-.048-.016-.08v-.048a2.435,2.435,0,0,0,.048-.479c-.032-.207-.128-.255-.3-.175a1.172,1.172,0,0,0-.3.255,55.813,55.813,0,0,0-3.94,4.514,91.779,91.779,0,0,0-6.636,9.6c-1.037,1.691-1.978,3.43-2.951,5.152a2.159,2.159,0,0,1-.814.877,1.792,1.792,0,0,1-1.563.032,4.129,4.129,0,0,1-.941-.51.844.844,0,0,1-.367-.415H39.84a.917.917,0,0,1-.367-.447,3.475,3.475,0,0,1-.4-1.6,31.289,31.289,0,0,1,.479-5.472c.638-4.179,1.452-8.327,2.489-12.443a2.312,2.312,0,0,1,.191-.558.354.354,0,0,0,.016-.255,3.057,3.057,0,0,0,.144-.51c.016-.207-.08-.287-.271-.191a1.2,1.2,0,0,0-.4.351C40.3,52.4,38.979,54.127,37.7,55.9q-2.249,3.158-4.243,6.477c-.973,1.627-1.9,3.286-2.76,4.961a59.651,59.651,0,0,0-2.983,6.684c-.16.4-.271.829-.415,1.228a1.8,1.8,0,0,1-.893,1.149,1.518,1.518,0,0,1-.989.112A3.111,3.111,0,0,1,23.458,75.152Z" transform="translate(-19.31 -35.368)" fill="#797b7d"/>
    <path id="Path_1139" data-name="Path 1139" d="M43.44,37.73a2.886,2.886,0,0,0-1.866-1.053,4.626,4.626,0,0,0-4.387,1.164c-.51.479-1,.973-1.468,1.484A111.292,111.292,0,0,0,23.053,56.3c-1.834,2.967-3.605,5.95-5.168,9.077a10.35,10.35,0,0,0-.957,2.345,2.02,2.02,0,0,0,.223,1.547.323.323,0,0,1,.064.239,2.976,2.976,0,0,0,.973,2.744,1.4,1.4,0,0,0,.16.128c.016.016.016.032.048.08a2.182,2.182,0,0,1-.845-.4,4.128,4.128,0,0,1-1.643-5.1,30.017,30.017,0,0,1,2.042-4.275q3.422-6.245,7.45-12.155c2.122-3.095,4.371-6.094,6.78-8.981a57.986,57.986,0,0,1,4.132-4.5,5.743,5.743,0,0,1,4.9-1.611,4.893,4.893,0,0,1,2.584.973,2.1,2.1,0,0,1,.574.654A.9.9,0,0,0,43.44,37.73Z" transform="translate(-13.115 -29.738)" fill="#f5f6f6"/>
    <path id="Path_1140" data-name="Path 1140" d="M182.42,59.911a2.708,2.708,0,0,0-1.914-1.053,3.537,3.537,0,0,0-3.334,1.069,62.868,62.868,0,0,0-5.424,5.679,88.057,88.057,0,0,0-6.524,8.63c-.175.255-.367.495-.542.75a.127.127,0,0,1-.032-.144l.032-.032c.207-.526.4-1.069.606-1.6a22.251,22.251,0,0,1,3.493-5.854,81.26,81.26,0,0,1,6.54-7.306,22.965,22.965,0,0,1,1.755-1.547,4.3,4.3,0,0,1,3.573-.8,4.557,4.557,0,0,1,2.3,1.021,1.564,1.564,0,0,1,.383.463A.882.882,0,0,0,182.42,59.911Z" transform="translate(-138.377 -48.426)" fill="#f5f6f6"/>
    <path id="Path_1141" data-name="Path 1141" d="M25.989,118.1a6.143,6.143,0,0,0,.893.814,3.165,3.165,0,0,0,.845.4,1.41,1.41,0,0,0,1.85-.8c.255-.558.431-1.164.638-1.739a62.384,62.384,0,0,1,3.828-8.247,94.3,94.3,0,0,1,4.929-8.04,79.651,79.651,0,0,1,5.2-6.843,2.556,2.556,0,0,1,.431-.4.293.293,0,0,1,.319-.032.239.239,0,0,1,.064.287,1.112,1.112,0,0,1-.191.542c.016.064-.016.1-.064.1a27.056,27.056,0,0,0-1.723,2.122,93.923,93.923,0,0,0-8.486,12.969,62.654,62.654,0,0,0-4.179,9.332,2.141,2.141,0,0,1-1.4,1.5,2.424,2.424,0,0,1-2.824-1.547A.711.711,0,0,1,25.989,118.1Z" transform="translate(-21.842 -78.318)" fill="#242248"/>
    <path id="Path_1142" data-name="Path 1142" d="M121.317,99.616c-.3,1.244-.606,2.473-.893,3.717-.495,2.249-.941,4.5-1.324,6.764-.271,1.579-.526,3.174-.718,4.77a20.519,20.519,0,0,0-.191,3.43,3.03,3.03,0,0,0,.606,1.755c.032.048.048.1.08.144a2.944,2.944,0,0,0,1.164,2.568c-.064.064-.112.016-.175,0a3.812,3.812,0,0,1-2.7-3.158,13.58,13.58,0,0,1-.064-3.685c.128-1.515.351-3.015.59-4.5.367-2.233.718-4.483,1.276-6.668a19.321,19.321,0,0,1,2.281-5.152A.121.121,0,0,1,121.317,99.616Z" transform="translate(-98.346 -83.712)" fill="#f5f6f6"/>
    <path id="Path_1143" data-name="Path 1143" d="M129,125.337a3.483,3.483,0,0,0,1.8.989,1.519,1.519,0,0,0,1.579-.654,14.786,14.786,0,0,0,1.021-1.755,101.421,101.421,0,0,1,6.54-10.385,69.741,69.741,0,0,1,4.817-6.014c.383-.431.766-.845,1.165-1.276a3.011,3.011,0,0,1,.319-.319c.175-.144.335-.335.59-.191.144.08.1.542-.048.734a52.228,52.228,0,0,0-3.717,4.259,98.641,98.641,0,0,0-9.731,14.883,2.551,2.551,0,0,1-1.675,1.4A2.368,2.368,0,0,1,129,125.337Z" transform="translate(-108.422 -88.823)" fill="#242248"/>
    <path id="Path_1144" data-name="Path 1144" d="M230.7,110.8c.112.064.048.175.048.255-.207,1.244-.367,2.5-.479,3.765a51.9,51.9,0,0,0-.255,5.886,22.519,22.519,0,0,0,.3,3.733,4.606,4.606,0,0,0,1.5,2.951c.048.032.064.1.1.144a2.487,2.487,0,0,0,1.228,1.771,3.583,3.583,0,0,0,1.133.415,3.824,3.824,0,0,1-1.93-.3,4.862,4.862,0,0,1-2.712-3,12.13,12.13,0,0,1-.686-3.446c-.08-1.2-.128-2.393-.1-3.589.032-1.42.08-2.823.223-4.227a9.57,9.57,0,0,1,.989-3.015C230.267,111.693,230.49,111.247,230.7,110.8Z" transform="translate(-192.333 -93.125)" fill="#f5f6f6"/>
    <path id="Path_1145" data-name="Path 1145" d="M249.38,95.959a4.393,4.393,0,0,0,3.334.175,1.872,1.872,0,0,0,.814-.495,1.071,1.071,0,0,0,.239-1.228,3.814,3.814,0,0,0-.479-.861,7.305,7.305,0,0,1-1.133-3.222,23.718,23.718,0,0,1-.223-3.828c.048-1.771.191-3.541.415-5.312a53.556,53.556,0,0,1,1.276-6.524,2.98,2.98,0,0,0,.064-1.452.082.082,0,0,1,.048-.112,1.869,1.869,0,0,1,.526,1.962c-.255,1.356-.622,2.68-.845,4.036-.16,1.021-.319,2.058-.431,3.095-.1.909-.207,1.834-.255,2.744a23.5,23.5,0,0,0-.048,2.6c.032.8.064,1.579.144,2.361a8.837,8.837,0,0,0,1.18,4.148,2.443,2.443,0,0,1,.447,1.021,1.361,1.361,0,0,1-.75,1.4,3.84,3.84,0,0,1-2.217.479,3.317,3.317,0,0,1-1.978-.734,2.449,2.449,0,0,0-.207-.191C249.3,95.959,249.316,95.943,249.38,95.959Z" transform="translate(-209.532 -61.439)" fill="#242248"/>
    <path id="Path_1146" data-name="Path 1146" d="M160.612,69.793a2.766,2.766,0,0,1-.431.686c-.048.064-.112.175-.223.144s-.08-.16-.08-.255a12.9,12.9,0,0,1,.239-1.755,86.421,86.421,0,0,1,3.366-12.49c.351-1.037.734-2.058,1.164-3.063a2.349,2.349,0,0,0,.175-1.547.082.082,0,0,1,.048-.112,1.631,1.631,0,0,1,.463,1.9c-.383,1.133-.829,2.249-1.228,3.382a95.322,95.322,0,0,0-3.047,10.911c-.144.654-.319,1.308-.4,1.978h0C160.612,69.633,160.675,69.745,160.612,69.793Z" transform="translate(-134.371 -43.201)" fill="#242248"/>
    <path id="Path_1147" data-name="Path 1147" d="M143.664,98.86H143.6V98.8c.016-.032.048-.064.064-.1C143.744,98.748,143.712,98.812,143.664,98.86Z" transform="translate(-120.693 -82.955)" fill="#c2c4c6"/>
    <path id="Path_1148" data-name="Path 1148" d="M248.791,215.948l-.064.064c-.048-.032-.08-.08-.128-.112C248.7,215.8,248.728,215.916,248.791,215.948Z" transform="translate(-208.943 -181.428)" fill="#464647"/>
    <path id="Path_1149" data-name="Path 1149" d="M297.032,101.4c-.032-.016-.064-.048-.1-.064a3.83,3.83,0,0,1-1.483-2.233,7.288,7.288,0,0,1,.064-3.749,16.287,16.287,0,0,1,3.334-6.524,16.922,16.922,0,0,1,4.69-4.084,10.148,10.148,0,0,1,3.7-1.356,4.6,4.6,0,0,1,3.079.526c.144.08.287.16.335.319A4.857,4.857,0,0,1,312,86.147c.048.128.112.287.3.16a3.088,3.088,0,0,1,2.887-1.372c.287.032.606.048.734.4a.221.221,0,0,0,.112.128c.255.3.144.622.064.941-.112.415-.271.8-.415,1.2a38.354,38.354,0,0,0-1.6,5.472,6.083,6.083,0,0,0-.144,1.308c0,.447.128.8.622.909h.048a3.255,3.255,0,0,0,1.819-.877c.383-.335.766-.67,1.164-.989a2.183,2.183,0,0,1,.877-.447.866.866,0,0,1,1.085.542c0,.064.064.1.112.128a1.293,1.293,0,0,1,.144,1.053,3.63,3.63,0,0,1-.845,1.579,11.5,11.5,0,0,1-3.493,2.823,7.172,7.172,0,0,1-2.68.877,3,3,0,0,1-1.4-.223,2.943,2.943,0,0,0-.223-.223c-.144.032-.207-.08-.287-.144a2.909,2.909,0,0,1-.814-1.707,1.1,1.1,0,0,1,0-.75,1.49,1.49,0,0,0-.048-.75,1.637,1.637,0,0,1-.016-.4c-.016-.1.032-.207-.08-.255s-.207.032-.271.112c-.223.239-.447.463-.67.7a23.417,23.417,0,0,1-4.61,3.988,10.452,10.452,0,0,1-3.892,1.611,4.827,4.827,0,0,1-3.063-.367C297.287,101.573,297.176,101.461,297.032,101.4Z" transform="translate(-248.14 -70.036)" fill="#797b7d"/>
    <path id="Path_1150" data-name="Path 1150" d="M304.98,78.516a4.321,4.321,0,0,0-3.4-.782,11.838,11.838,0,0,0-5.838,2.855,17.451,17.451,0,0,0-5.519,7.944,9.308,9.308,0,0,0-.542,3.8,4.259,4.259,0,0,0,1.42,3.031.447.447,0,0,1,.16.223,2.813,2.813,0,0,0,2.058,2.233,2.769,2.769,0,0,1-1.547-.271,5.339,5.339,0,0,1-3.111-4.02,10.651,10.651,0,0,1,.622-5.854,18.591,18.591,0,0,1,4.738-7.146,15.366,15.366,0,0,1,5.567-3.541,7.925,7.925,0,0,1,3.222-.479,5.237,5.237,0,0,1,2.839,1.037A.9.9,0,0,0,304.98,78.516Z" transform="translate(-242.464 -64.286)" fill="#f5f6f6"/>
    <path id="Path_1151" data-name="Path 1151" d="M306.5,165.3c.016-.048.048-.032.1-.016a4.752,4.752,0,0,0,3.605.495,11.85,11.85,0,0,0,4.61-2.249,27.821,27.821,0,0,0,4.132-3.86c.144-.16.287-.383.494-.287.223.08.08.351.1.542a.251.251,0,0,1-.064.207,30.933,30.933,0,0,1-3.956,3.828,12.729,12.729,0,0,1-4.818,2.425,5.706,5.706,0,0,1-2.265.112A2.908,2.908,0,0,1,306.5,165.3Z" transform="translate(-257.607 -133.935)" fill="#242248"/>
    <path id="Path_1152" data-name="Path 1152" d="M396.4,154.594c.032-.08.08-.064.144-.032a3.255,3.255,0,0,0,2.265-.016,10.4,10.4,0,0,0,3.813-2.154,9.016,9.016,0,0,0,1.771-1.962,2.2,2.2,0,0,0,.3-1.93.989.989,0,0,1,.558.877,2.541,2.541,0,0,1-.558,1.9,10.856,10.856,0,0,1-5.36,3.86,3.426,3.426,0,0,1-1.611.16A2.44,2.44,0,0,1,396.4,154.594Z" transform="translate(-333.166 -124.811)" fill="#242248"/>
    <path id="Path_1153" data-name="Path 1153" d="M412.662,106.826a.549.549,0,0,1-.638-.431,3.545,3.545,0,0,1,.032-1.531,38.769,38.769,0,0,1,1.93-6.524,1.862,1.862,0,0,0,.144-1.34,1.033,1.033,0,0,1,.59,1.228,16.792,16.792,0,0,1-.75,2.3,35.852,35.852,0,0,0-1.26,4.833A5.612,5.612,0,0,0,412.662,106.826Z" transform="translate(-346.238 -81.527)" fill="#242248"/>
    <path id="Path_1154" data-name="Path 1154" d="M421.645,138.642a1.007,1.007,0,0,0-1.42-.351,6.92,6.92,0,0,0-1.276.973,4.743,4.743,0,0,1-1.611,1.069c-.207.064-.415.207-.638.064a5.5,5.5,0,0,1,1.85-2.361,4.4,4.4,0,0,1,1.707-1,2,2,0,0,1,2.169.734C421.916,137.828,421.741,138.2,421.645,138.642Z" transform="translate(-350.228 -115.113)" fill="#f5f6f6"/>
    <path id="Path_1155" data-name="Path 1155" d="M405.3,88.156a1.675,1.675,0,0,0-1.515-.3,2.924,2.924,0,0,0-1.866,1.053,3.073,3.073,0,0,1-.239.223c-.08-.016-.112-.048-.1-.128a11.3,11.3,0,0,1,.255-1.468.441.441,0,0,1,.191-.255,4.082,4.082,0,0,1,2.951-.558,2.005,2.005,0,0,1,1.164.654C405.615,87.406,405.439,87.757,405.3,88.156Z" transform="translate(-337.516 -72.826)" fill="#f5f6f6"/>
    <path id="Path_1156" data-name="Path 1156" d="M384.639,165.806a4.094,4.094,0,0,0,.255,1.452,2.27,2.27,0,0,0,.829,1.133,2.505,2.505,0,0,0,1.914,1.819,3.354,3.354,0,0,1-3.238-1.372c-.766-1.212-.4-2.393.144-3.637C384.655,165.439,384.543,165.631,384.639,165.806Z" transform="translate(-322.713 -138.847)" fill="#f5f5f6"/>
    <path id="Path_1157" data-name="Path 1157" d="M562.9,61.507l-.159-.16a2.242,2.242,0,0,1-.718-.877,2.932,2.932,0,0,1-.415-2.249,1.83,1.83,0,0,1,.829-1.2.733.733,0,0,1,.925.064,13.952,13.952,0,0,0,1.388,1.691.89.89,0,0,0,.319.223c.112-.032.191.064.271.112a4.037,4.037,0,0,0,5.535-1.276,4.26,4.26,0,0,0,.526-1.723,8.268,8.268,0,0,0-.479-3.3,9.638,9.638,0,0,1-.59-3.158,5.927,5.927,0,0,1,1.42-3.844,6.135,6.135,0,0,1,5.121-2.329,5.136,5.136,0,0,1,3.605,1.484c.112.112.223.207.207.383.032.128.159.191.223.3a2.592,2.592,0,0,1,.383,2.106,1.25,1.25,0,0,1-.239.51.911.911,0,0,1-1.531.1,10.062,10.062,0,0,0-.83-.989,2.422,2.422,0,0,0-3.765.495,2.747,2.747,0,0,0-.351,1.18,7.4,7.4,0,0,0,.558,2.983,10.682,10.682,0,0,1,.8,4.163,6.574,6.574,0,0,1-1.8,4.4,8.644,8.644,0,0,1-5.248,2.664,7.744,7.744,0,0,1-4.243-.542A4.758,4.758,0,0,1,562.9,61.507Z" transform="translate(-471.958 -36.542)" fill="#797b7d"/>
    <path id="Path_1158" data-name="Path 1158" d="M599.133,39.369a4.528,4.528,0,0,0-3.127-1.723,6.056,6.056,0,0,0-5.36,1.819,5.91,5.91,0,0,0-1.739,4.913,14.793,14.793,0,0,0,.654,2.76,8.53,8.53,0,0,1,.383,2.983,3.911,3.911,0,0,1-3.35,3.637,3.772,3.772,0,0,1-3.063-.75.993.993,0,0,1,.176-.782.386.386,0,0,1,.606-.1,2.825,2.825,0,0,0,3.8-.526,3.2,3.2,0,0,0,.654-2.473,20,20,0,0,0-.782-3.206,7.53,7.53,0,0,1,.51-5.519,7.318,7.318,0,0,1,5.663-3.988,6.516,6.516,0,0,1,5.009,1.292,4.3,4.3,0,0,1,.8.814C599.436,38.571,599.229,38.906,599.133,39.369Z" transform="translate(-490.436 -30.547)" fill="#f5f6f6"/>
    <path id="Path_1159" data-name="Path 1159" d="M570.1,73.04a9.961,9.961,0,0,0,1.436.989,7.1,7.1,0,0,0,2.489.718,8.548,8.548,0,0,0,4.706-.814,7.056,7.056,0,0,0,4.148-4.945,8.644,8.644,0,0,0-.207-4.084c-.239-.909-.654-1.755-.845-2.664a4.337,4.337,0,0,1-.016-2.345,2.482,2.482,0,0,1,4.1-1.069,4.757,4.757,0,0,1,.686.814c.255.367.574.67,1.053.526a1.219,1.219,0,0,0,.782-1.053,2.788,2.788,0,0,0-.287-1.755.606.606,0,0,1-.048-.16,2.716,2.716,0,0,1,.75,2.9,1.094,1.094,0,0,1-1.946.335,5.523,5.523,0,0,0-1.18-1.18,2.2,2.2,0,0,0-3.159.558,2.774,2.774,0,0,0-.319,2.042,13.288,13.288,0,0,0,.8,2.568,9.63,9.63,0,0,1,.638,3.972,6.712,6.712,0,0,1-1.9,4.291,8.857,8.857,0,0,1-5.264,2.7,6.962,6.962,0,0,1-4.69-.766A4.823,4.823,0,0,1,570.1,73.04Z" transform="translate(-479.158 -48.075)" fill="#242248"/>
    <path id="Path_1160" data-name="Path 1160" d="M557.427,121.908a.879.879,0,0,0-1.117.16,2.046,2.046,0,0,0-.622,1.85,3.521,3.521,0,0,0,.877,1.93c.08.1.16.207.239.319a4.646,4.646,0,0,0,1.388,2.281,4.719,4.719,0,0,0,1.324.893c.016.048.016.08-.048.048a6.981,6.981,0,0,1-4.371-3.478,3.96,3.96,0,0,1-.191-3.924,2.355,2.355,0,0,1,2.169-1.388,1.774,1.774,0,0,1,1.1.431.914.914,0,0,0-.558.3A.724.724,0,0,0,557.427,121.908Z" transform="translate(-466.022 -101.362)" fill="#f5f6f6"/>
    <path id="Path_1161" data-name="Path 1161" d="M585.8,175.448l.048-.048c.048.016.112.016.144.08A.144.144,0,0,1,585.8,175.448Z" transform="translate(-492.353 -147.42)" fill="#cdcfd1"/>
    <path id="Path_1162" data-name="Path 1162" d="M466.891,61.981a3.422,3.422,0,0,1,.59,2.5.846.846,0,0,0,.048.447c.048.112.128.223.271.112a12.455,12.455,0,0,1,.845-1.2,18.823,18.823,0,0,1,2.233-2.552,9.54,9.54,0,0,1,3.749-2.409,5.523,5.523,0,0,1,2.6-.239,3.74,3.74,0,0,1,1.212.463c.112.064.239.128.255.287.08.144.255.144.351.255a2.857,2.857,0,0,1,.526,2.935,1.643,1.643,0,0,1-.3.542.944.944,0,0,1-1.2.271,1.318,1.318,0,0,1-.207-.112,2.992,2.992,0,0,0-2.616-.383,6.644,6.644,0,0,0-2.919,1.547,19.746,19.746,0,0,0-3.717,4.642,38.989,38.989,0,0,0-2.473,4.8,11.045,11.045,0,0,1-1.149,2.138,3.268,3.268,0,0,1-2.217,1.244,3.088,3.088,0,0,1-1.148-.08h-.048a1.076,1.076,0,0,1-.654-1.388,3.99,3.99,0,0,1,.287-.766,21.98,21.98,0,0,0,2.09-6.7c.032-.239,0-.463.048-.7v-.032c-.064-.558-.223-.654-.734-.383a6.691,6.691,0,0,0-1.34,1.069,6.005,6.005,0,0,1-.67.574,1.684,1.684,0,0,1-1.244.351c-.032-.032-.064-.08-.1-.112-.495-.1-.638-.495-.734-.893a2.191,2.191,0,0,1,.4-1.707,7.273,7.273,0,0,1,.973-1.244,17.343,17.343,0,0,1,3.828-3.158,4.715,4.715,0,0,1,1.882-.638,1.69,1.69,0,0,1,1.005.207A.436.436,0,0,1,466.891,61.981Z" transform="translate(-385.345 -49.235)" fill="#797b7d"/>
    <path id="Path_1163" data-name="Path 1163" d="M478.1,82.679c.128-.144.271,0,.4,0a3.144,3.144,0,0,0,3.142-1.579,32.621,32.621,0,0,0,1.515-3.095,27.435,27.435,0,0,1,5.073-7.673,7.012,7.012,0,0,1,3.541-2.058,3.055,3.055,0,0,1,2.616.415.882.882,0,0,0,1.436-.415,2.86,2.86,0,0,0-.207-2.935c-.048-.08-.144-.128-.128-.239a2.78,2.78,0,0,1,.829,3.813,1,1,0,0,1-1.563.3,2.5,2.5,0,0,0-1.866-.447,7.283,7.283,0,0,0-4.865,2.855,31.215,31.215,0,0,0-4.77,7.912,15.351,15.351,0,0,1-1.069,2.106,3.2,3.2,0,0,1-3.015,1.579A1.105,1.105,0,0,1,478.1,82.679Z" transform="translate(-401.834 -54.715)" fill="#242248"/>
    <path id="Path_1164" data-name="Path 1164" d="M460.93,71.357a1.8,1.8,0,0,0-1.771-.367,6.827,6.827,0,0,0-2.632,1.372,16.074,16.074,0,0,0-3.254,3.158,3.1,3.1,0,0,0-.67,1.4,1.424,1.424,0,0,0,.686,1.547,1.656,1.656,0,0,0,1.165,1.771,2.706,2.706,0,0,1-1.866-.558,3.142,3.142,0,0,1-.75-4.1,11.465,11.465,0,0,1,2.217-2.664,15.31,15.31,0,0,1,3.462-2.584,4.747,4.747,0,0,1,2.552-.59,2.542,2.542,0,0,1,1.547.67C461.137,70.56,461.042,70.958,460.93,71.357Z" transform="translate(-379.384 -58.612)" fill="#f5f6f6"/>
    <path id="Path_1165" data-name="Path 1165" d="M527.254,53.664a3.439,3.439,0,0,0-2.712-.718,8.275,8.275,0,0,0-4.961,2.584,19.445,19.445,0,0,0-2.76,3.286,1.521,1.521,0,0,1-.447.51c-.08,0-.112-.032-.1-.128a8.41,8.41,0,0,1,1.021-2.9,10.935,10.935,0,0,1,1.707-1.834,11.286,11.286,0,0,1,2.473-1.771,7.783,7.783,0,0,1,3.095-.893,4.815,4.815,0,0,1,2.823.574,7.6,7.6,0,0,1,.67.479.864.864,0,0,0-.766.734C527.318,53.6,527.3,53.648,527.254,53.664Z" transform="translate(-433.919 -43.518)" fill="#f5f6f6"/>
    <path id="Path_1166" data-name="Path 1166" d="M470.08,115.4c.144.064.064.175.064.271a15.941,15.941,0,0,1-.766,3.765,20.446,20.446,0,0,1-1.356,3.43,2.393,2.393,0,0,0-.3.877.953.953,0,0,0,.479,1.053.24.24,0,0,1,.144.16,1.592,1.592,0,0,0,.861,1.212,2.577,2.577,0,0,0,.845.319c0,.064-.064.08-.1.08a3.325,3.325,0,0,1-2.361-.495,2.544,2.544,0,0,1-.861-3.158c.271-.686.606-1.34.893-2.01a13.945,13.945,0,0,0,.782-2.345A7.058,7.058,0,0,1,470.08,115.4Z" transform="translate(-392.091 -96.991)" fill="#f5f6f6"/>
    <path id="Path_1167" data-name="Path 1167" d="M463.9,113.5a.107.107,0,0,1,.112-.064,1.862,1.862,0,0,0,1.468-.654,15.967,15.967,0,0,1,1.356-1.18,2.778,2.778,0,0,1,.526-.287c.16-.064.319-.1.447.048a.389.389,0,0,1,.064.51,6.161,6.161,0,0,0-1.547,1.164,4.328,4.328,0,0,1-.941.75A1.018,1.018,0,0,1,463.9,113.5Z" transform="translate(-389.899 -93.513)" fill="#242248"/>
    <path id="Path_1168" data-name="Path 1168" d="M671.6,97.524a1.28,1.28,0,0,1-1.276,1.276A1.334,1.334,0,0,1,669,97.46a1.28,1.28,0,0,1,1.292-1.26A1.317,1.317,0,0,1,671.6,97.524Z" transform="translate(-562.281 -80.854)" fill="#0c0b0c"/>
    <path id="Path_1169" data-name="Path 1169" d="M164.5,165.523c.016-.08-.016-.16.064-.223v.175c0,.016-.016.048-.016.064C164.516,165.555,164.5,165.539,164.5,165.523Z" transform="translate(-138.259 -138.931)" fill="#b5b7b9"/>
    <path id="Path_1170" data-name="Path 1170" d="M327.92,119.059h-.064a1.485,1.485,0,0,1-.4-1.133,6.273,6.273,0,0,1,.7-3.031,11.933,11.933,0,0,1,2.457-3.493,8.933,8.933,0,0,1,3.254-2.154,3.839,3.839,0,0,1,2.823-.112,1.276,1.276,0,0,1,.606.383c.048.064.112.144.16.207a2.553,2.553,0,0,0-.877,1.244,9.968,9.968,0,0,1-1.85,2.919A15.7,15.7,0,0,1,331.27,117a7.938,7.938,0,0,1-1.946.973,2.036,2.036,0,0,0-1.276.957A.2.2,0,0,1,327.92,119.059Z" transform="translate(-275.215 -91.542)" fill="#a5a7aa"/>
    <path id="Path_1171" data-name="Path 1171" d="M330.4,123.248a1.822,1.822,0,0,1,1.149-1.069,11.241,11.241,0,0,0,4.2-2.648,13.646,13.646,0,0,0,3.079-3.988c.144-.3.255-.606.4-.909.16-.319.335-.638.718-.734a1.935,1.935,0,0,1,.128,1.675,10.856,10.856,0,0,1-1.9,3.095,15.934,15.934,0,0,1-4.945,4.1,4.845,4.845,0,0,1-1.978.606A1.487,1.487,0,0,1,330.4,123.248Z" transform="translate(-277.695 -95.731)" fill="#f5f6f6"/>
    <path id="Path_1172" data-name="Path 1172" d="M334.4,106.114a3.819,3.819,0,0,0-3.828-.032,10.43,10.43,0,0,0-4.339,3.844,9.164,9.164,0,0,0-1.5,3.4,3.279,3.279,0,0,0,.239,2.329,1.588,1.588,0,0,1-.909-1.42,5.937,5.937,0,0,1,.574-3.015,11.969,11.969,0,0,1,4.562-5.3,6.31,6.31,0,0,1,2.361-.989,2.724,2.724,0,0,1,2.712.957A1.107,1.107,0,0,1,334.4,106.114Z" transform="translate(-272.351 -88.152)" fill="#242248"/>
    <path id="Path_1173" data-name="Path 1173" d="M674.241,99.809a.56.56,0,0,1,.335.59c0,.08.032.175-.112.175-.128,0-.16-.048-.16-.175-.032-.415-.128-.479-.526-.479-.144,0-.207.048-.191.191a1.933,1.933,0,0,1,0,.3c0,.1-.032.144-.144.128-.08,0-.128-.032-.128-.112,0-.463-.016-.941-.016-1.4,0-.1.064-.128.144-.128a5.167,5.167,0,0,1,.7.032.417.417,0,0,1,.415.383A.386.386,0,0,1,674.241,99.809Z" transform="translate(-565.895 -83.123)" fill="#a3a5a8"/>
    <path id="Path_1174" data-name="Path 1174" d="M335.4,124.006a7.511,7.511,0,0,1,1.149-3.047,9.707,9.707,0,0,1,3.844-3.685,3.82,3.82,0,0,1,1.819-.479c.479,0,.542.064.415.542a5.374,5.374,0,0,1-.893,1.723,14.647,14.647,0,0,1-4.674,4.339A5.156,5.156,0,0,1,335.4,124.006Z" transform="translate(-281.897 -98.164)" fill="#242248"/>
    <path id="Path_1175" data-name="Path 1175" d="M675.215,100.358c.239.016.479.016.447.319-.032.319-.287.255-.51.271-.335.016-.175-.239-.207-.383C674.928,100.326,675.087,100.342,675.215,100.358Z" transform="translate(-567.268 -84.342)" fill="#161616"/>
  </g>
</svg>
