<svg xmlns="http://www.w3.org/2000/svg" width="142.637" height="40.646" viewBox="0 0 142.637 40.646"><path d="M373.516,51.211c-.123.031-.245.307-.245.46-.031,1.043-.061,3.743-.061,5.614a.2.2,0,0,0,.153.153c.4.031,1.319.061,2.117.061a5.615,5.615,0,0,0,2.117-.307,2.738,2.738,0,0,0,1.35-2.577c0-2.485-1.749-3.436-4.356-3.436a4.407,4.407,0,0,0-1.074.031Zm6.657,11.534c0-2.546-1.871-3.957-5.276-3.957a12.767,12.767,0,0,0-1.5.031c-.092.031-.184.092-.184.153,0,1.841-.031,4.724.061,5.859a1.853,1.853,0,0,0,.859,1.38,6.083,6.083,0,0,0,2.239.307,3.513,3.513,0,0,0,3.8-3.773ZM368.27,49.8c.245,0,1.043.092,3.006.092,1.871,0,3.374-.061,5.184-.061,2.239,0,5.338.8,5.338,4.141a4.022,4.022,0,0,1-2.669,3.589c-.092.031-.092.092,0,.092,2.147.552,4.08,1.871,4.08,4.387,0,2.485-1.534,4.049-3.773,5.031a12.445,12.445,0,0,1-4.785.8c-1.319,0-4.847-.153-6.779-.092-.215-.092.184-1.012.368-1.166a5.142,5.142,0,0,0,1.319-.215c.706-.184.767-.4.89-1.442.061-.89.061-4.08.061-6.35,0-3.129.031-5.215,0-6.258-.031-.8-.307-1.043-.89-1.2-.43-.092-1.166-.184-1.749-.245-.184-.123.245-.982.4-1.1ZM353.423,65.813a5.2,5.2,0,0,0,2.914.706,5.606,5.606,0,0,0,4.111-1.472c1.35-1.227,2.331-3.129,2.331-6.166a7.333,7.333,0,0,0-3.374-6.657,9.151,9.151,0,0,0-4.847-1.135,3.922,3.922,0,0,0-1.442.184.682.682,0,0,0-.245.4c-.061.521-.061,4.479-.061,6.779,0,2.393,0,5.736.061,6.135a1.494,1.494,0,0,0,.552,1.227ZM347.594,49.8c.491,0,2.362.092,3.282.092,1.626,0,2.792-.092,5.828-.092a9.706,9.706,0,0,1,6.289,1.994,8.383,8.383,0,0,1,2.853,6.6,8.631,8.631,0,0,1-3.558,7.424A11.85,11.85,0,0,1,354.9,67.9c-1.749,0-4.755-.061-7.27-.092h-.031a1.469,1.469,0,0,1,.4-1.166,3.764,3.764,0,0,0,1.2-.245c.552-.215.644-.491.706-1.442.092-1.779.061-3.927.061-6.319,0-1.718.031-5.092-.031-6.166-.092-.89-.46-1.135-1.227-1.288a10.932,10.932,0,0,0-1.626-.245c-.092-.184.368-.982.522-1.135Z" transform="translate(-240.573 -34.4)" fill="#242248" fill-rule="evenodd"/><path d="M127.885,80.413a6.2,6.2,0,0,1-1.687-.429.733.733,0,0,1-.215-.4c-.061-.89-.061-3.466-.061-5.184a6.071,6.071,0,0,0-.828-3.436,3.491,3.491,0,0,0-2.976-1.534,7.011,7.011,0,0,0-3.927,1.841c-.031.031-.245.215-.215-.092,0-.276.061-.859.092-1.227a.667.667,0,0,0-.184-.552,18.653,18.653,0,0,1-3.988,1.043c-.614.123-.767.736-.123.92h.031a4.988,4.988,0,0,1,1.5.675.841.841,0,0,1,.245.706c.031,1.933.031,4.878-.061,6.5-.031.644-.215.89-.675.982l.061-.031a9.485,9.485,0,0,1-1.074.215,1.533,1.533,0,0,0,0,1.166c.276,0,1.779-.092,3.006-.092,1.687,0,2.577.092,3.006.092a1.571,1.571,0,0,0,.123-1.166,5.787,5.787,0,0,1-1.2-.184c-.46-.092-.583-.337-.614-.89-.061-1.35-.061-4.233-.061-6.2a1.219,1.219,0,0,1,.307-.951,3.821,3.821,0,0,1,2.393-.89,2.422,2.422,0,0,1,2.607,2.209c.123,1.1.092,3.282.092,5.184,0,1.043-.092,1.288-.46,1.411a4.575,4.575,0,0,1-1.2.245,1.534,1.534,0,0,0,0,1.166c.736,0,1.626-.092,2.914-.092,1.6,0,2.638.092,3.037.092a1.379,1.379,0,0,0,.123-1.1Zm7.148-9.847c-1.35,0-2.209,1.043-2.209,2.7,0,1.687.736,3.589,2.853,3.589a1.975,1.975,0,0,0,1.35-.521,3.375,3.375,0,0,0,.828-2.362c-.031-2.117-1.074-3.405-2.822-3.405Zm-.184,11.381a2.2,2.2,0,0,0-1.1.276c-1.074.706-1.564,1.35-1.564,2.147a2.236,2.236,0,0,0,.89,1.841,4.567,4.567,0,0,0,3.1.951c2.638,0,3.773-1.411,3.773-2.792a1.984,1.984,0,0,0-1.5-1.994,11.318,11.318,0,0,0-3.589-.429Zm.184,6.687a5.771,5.771,0,0,1-3.681-1.074A3.365,3.365,0,0,1,130,85.014a2.008,2.008,0,0,1,.521-1.288,13.553,13.553,0,0,1,2.362-1.9q.092-.046.092-.092c0-.061-.061-.092-.092-.123a2.521,2.521,0,0,1-1.687-1.626v-.061c-.031-.153-.092-.307.153-.46.184-.123.429-.276.706-.46.429-.245.89-.552,1.2-.767a.169.169,0,0,0,.061-.153c0-.061-.061-.092-.092-.123a3.732,3.732,0,0,1-2.7-3.927,3.9,3.9,0,0,1,1.657-3.252,7.63,7.63,0,0,1,3.712-1.258h.092a7.951,7.951,0,0,1,2.822.614,4.769,4.769,0,0,0,1.687.245,2.222,2.222,0,0,0,1.81-.675,1.045,1.045,0,0,1,.092.521,2.042,2.042,0,0,1-.337,1.2,1.512,1.512,0,0,1-1.135.491h-.215c-.46-.061-.675-.092-.675-.092l-.092.061c-.031.061,0,.092.031.184l.031.061a7.908,7.908,0,0,1,.153,1.1,4.221,4.221,0,0,1-1.749,3.743,6.135,6.135,0,0,1-3.006,1.166,2.884,2.884,0,0,0-.368.031c-.123,0-.307.031-.337.031h-.031c-.215.061-.706.307-.706.736,0,.4.245.859,1.35.92.245.031.46.031.706.061a22.2,22.2,0,0,1,4.141.521,2.875,2.875,0,0,1,1.933,2.761c0,1.9-1.35,3.681-3.62,4.786a10.176,10.176,0,0,1-3.436.644ZM149.7,70.719a2.17,2.17,0,0,0-1.38.4c-1.012.614-1.5,1.841-1.5,3.65,0,3.374,1.687,5.736,4.111,5.736a2.723,2.723,0,0,0,1.779-.614c.736-.614,1.135-1.841,1.135-3.589-.031-3.344-1.687-5.583-4.141-5.583Zm.46,11.013c-4.387,0-5.951-3.221-5.951-6.227a5.54,5.54,0,0,1,2.546-4.878,7.774,7.774,0,0,1,3.927-1.166,5.5,5.5,0,0,1,5.675,5.829,6,6,0,0,1-2.7,5.338,7.041,7.041,0,0,1-3.5,1.1ZM104.3,70.719a2.17,2.17,0,0,0-1.38.4c-1.012.614-1.5,1.841-1.5,3.65,0,3.374,1.687,5.736,4.111,5.736a2.723,2.723,0,0,0,1.779-.614c.736-.614,1.135-1.841,1.135-3.589-.031-3.344-1.657-5.583-4.141-5.583Zm.46,11.013c-4.387,0-5.951-3.221-5.951-6.227a5.54,5.54,0,0,1,2.546-4.878,7.774,7.774,0,0,1,3.927-1.166,5.5,5.5,0,0,1,5.675,5.829,6,6,0,0,1-2.7,5.338,6.942,6.942,0,0,1-3.5,1.1Zm-29.419-.276a1.256,1.256,0,0,1-.092-.583.822.822,0,0,1,.092-.4,8.469,8.469,0,0,0,1.135-.245c.521-.123.706-.4.736-1.043.092-1.534.092-4.479.061-6.5v-.031a.736.736,0,0,0-.276-.706,6.02,6.02,0,0,0-1.534-.675c-.245-.092-.4-.215-.368-.368,0-.153.153-.337.491-.4a18.5,18.5,0,0,0,3.927-1.012.612.612,0,0,1,.123.4V70.2a8.745,8.745,0,0,0-.061.951.205.205,0,0,0,.215.184c.061,0,.092-.031.153-.061a7.225,7.225,0,0,1,3.927-1.749,3.283,3.283,0,0,1,2.976,1.841c.061.092.092.092.184.092a.169.169,0,0,0,.153-.092,7.764,7.764,0,0,1,4.049-1.841c2.393,0,3.8,1.779,3.8,4.786,0,.859,0,1.963-.031,2.945,0,.89-.031,1.718-.031,2.331,0,.123.184.552.46.614a6.3,6.3,0,0,0,1.5.368h.031a2.072,2.072,0,0,1-.153.982,5.223,5.223,0,0,1-.644-.031c-.644-.031-1.319-.061-1.963-.061-1.6,0-2.423.031-3.221.092a2.118,2.118,0,0,1,0-.982,7.521,7.521,0,0,0,.982-.245c.521-.153.644-.4.675-1.043,0-.491.092-4.663-.061-5.675a2.527,2.527,0,0,0-2.638-2.239A4.48,4.48,0,0,0,87.3,72.376a.408.408,0,0,0-.092.245v.031a13.447,13.447,0,0,1,.092,2.117v1.687c0,1.166-.031,2.239,0,3.068a.759.759,0,0,0,.614.8c.153.031.245.061.4.092.245.061.46.092.828.184a1.127,1.127,0,0,1-.031.706.74.74,0,0,1-.092.245c-.89-.031-1.779-.061-3.1-.061-.4,0-1.043.031-1.626.031-.46,0-.89.031-1.166.031a1.281,1.281,0,0,1-.092-.521,1.037,1.037,0,0,1,.092-.46A1.54,1.54,0,0,1,83.5,80.5c.307-.061.552-.092.828-.153.429-.123.583-.368.614-.92a41.557,41.557,0,0,0-.031-5.89A2.419,2.419,0,0,0,82.392,71.3a4.823,4.823,0,0,0-2.638,1.012.855.855,0,0,0-.245.583v1.534c0,1.841,0,4.172.031,5.184a.793.793,0,0,0,.706.8,2.306,2.306,0,0,0,.583.092l.46.092a1.852,1.852,0,0,1-.092.982c-.245,0-.552-.031-.92-.031-.552-.031-1.227-.061-1.994-.061-.89,0-1.534.031-2.055.061a2.832,2.832,0,0,0-.89-.092Z" transform="translate(-52.031 -47.988)" fill="#242248" fill-rule="evenodd"/><path d="M24.354,50.539l-1.043-.368S23.434,44.8,21.5,44.4c-1.288-1.5.215-63.316,4.847-.215a3.742,3.742,0,0,0-1.871,2.147,18.68,18.68,0,0,0-.123,4.2Z" transform="translate(-14.577 -10.875)" fill="#fff" fill-rule="evenodd"/><path d="M24.354,50.539l-1.043-.368S23.434,44.8,21.5,44.4c-1.288-1.5.215-63.316,4.847-.215a3.742,3.742,0,0,0-1.871,2.147,18.68,18.68,0,0,0-.123,4.2Z" transform="translate(-14.577 -10.875)" fill="#a4a4a4" fill-rule="evenodd"/><path d="M30,34.327s9.234-6.074,7.086-18.713C35,6.442,30.087,3.436,29.535,2.27A13.016,13.016,0,0,1,28.4,0l.4,25.553c-.031.031-.828,7.822,1.2,8.773" transform="translate(-19.665 0.123)" fill="#fff" fill-rule="evenodd"/><path d="M30,34.327s9.234-6.074,7.086-18.713C35,6.442,30.087,3.436,29.535,2.27A13.016,13.016,0,0,1,28.4,0l.4,25.553c-.031.031-.828,7.822,1.2,8.773" transform="translate(-19.665 0.123)" fill="#242248" fill-rule="evenodd" opacity="0.6"/><path d="M8.109,34.387s-8.681-5.921-8.16-16.35C.44,7.637,6.575,2.514,7.741,1.563A2.468,2.468,0,0,0,8.6-.4c.552,1.166.429,17.332.521,19.234C9.336,26.166,8.692,33.007,8.109,34.387Z" transform="translate(0.074 0.4)" fill="#fff" fill-rule="evenodd"/><path d="M8.109,34.387s-8.681-5.921-8.16-16.35C.44,7.637,6.575,2.514,7.741,1.563A2.468,2.468,0,0,0,8.6-.4c.552,1.166.429,17.332.521,19.234C9.336,26.166,8.692,33.007,8.109,34.387Z" transform="translate(0.074 0.4)" fill="#242248" fill-rule="evenodd"/></svg>