<svg xmlns="http://www.w3.org/2000/svg" width="631" height="416.285" viewBox="0 0 631 416.285">
  <g id="Group_509" data-name="Group 509" transform="translate(-1079 -3766.715)">
    <path id="Rectangle_830" data-name="Rectangle 830" d="M0,0H631a0,0,0,0,1,0,0V390a10,10,0,0,1-10,10H0a0,0,0,0,1,0,0V0A0,0,0,0,1,0,0Z" transform="translate(1079 3783)" fill="#cedafd"/>
    <g id="Group_501" data-name="Group 501" transform="translate(1079 3766.715)">
      <path id="Path_1125" data-name="Path 1125" d="M734.4,191.8H137.866A17.022,17.022,0,0,0,120.8,207.871H751.465A17.1,17.1,0,0,0,734.4,191.8Z" transform="translate(-120.8 -191.8)" fill="#3e4ff7"/>
      <ellipse id="Ellipse_240" data-name="Ellipse 240" cx="4.286" cy="4.286" rx="4.286" ry="4.286" transform="translate(12.78 4.286)" fill="#ededf4"/>
      <ellipse id="Ellipse_241" data-name="Ellipse 241" cx="4.286" cy="4.286" rx="4.286" ry="4.286" transform="translate(25.637 4.286)" fill="#ededf4"/>
      <ellipse id="Ellipse_242" data-name="Ellipse 242" cx="4.286" cy="4.286" rx="4.286" ry="4.286" transform="translate(38.493 4.286)" fill="#ededf4"/>
    </g>
    <g id="real-time-01" transform="translate(1237 3818.976)">
      <path id="Path_1182" data-name="Path 1182" d="M108.619,34v69.652H8.28V34H0v77.933H116.9V34Z" transform="translate(0 -17.427)" fill="#e6e6e6"/>
      <path id="Path_1183" data-name="Path 1183" d="M108.619,265v69.652H8.28V265H0v77.933H116.9V265Z" transform="translate(0 -135.911)" fill="#e6e6e6"/>
      <path id="Path_1184" data-name="Path 1184" d="M108.619,496v69.652H8.28V496H0v77.933H116.9V496Z" transform="translate(0 -254.396)" fill="#e6e6e6"/>
      <path id="Path_1185" data-name="Path 1185" d="M120.772,67.619l.633-.731-5.942-9.255s-10.424-17.291-12.226-22.357A7.465,7.465,0,0,0,99.486,30.8h0a1.633,1.633,0,0,0-.731-.877,78.019,78.019,0,0,0-8.962-4.091h0l.487-.244,1.51-.877v1.169L99.535,25s2.094-.292-2.387-5.358a5.4,5.4,0,0,1-.682-3.653,8.607,8.607,0,0,0,.341-3.994C95.784,6.344,91.839-4.761,76.545,2.3c0,0-4.335,1.461-4.579,7.16a10.746,10.746,0,0,0,.244,2.484l-2.387,7.842a41.3,41.3,0,0,0-2.533,4.53v.049l4.773.584h0l5.6.925a7.21,7.21,0,0,1-.39.633c-.292,0-8.134.39-11.349,3.6-.1.1-.146.195-.244.292h0c-1.51.487-3.6,1.7-5.748,4.822-3.9,5.65-14.028,14.612-9.255,19.094s17.584,7.452,17.584,7.452l.146-.244c.536,1.9,1.461,4.091,2.776,4.92h0c-1.218,3.263-2.874,7.55-4.481,11.933-1.023,2.825-2.046,5.7-2.825,8.28h41.743a77.9,77.9,0,0,0-.438-8.28c-.877-8.426-3.361-17.925-9.79-22.6v-7.4a5.835,5.835,0,0,0,1.51-4.091l8.621,14.223,11.641,13.1,1.364-1.559c1.8,5.017,8.037,8.767,9.06,6.624C128.662,74.779,123.012,69.567,120.772,67.619ZM70.554,57.78l.731-1.364-12.81-6.235,8.183-6.137c.1.292.146.487.146.487s7.16,11.933,5.942,17.291a3.1,3.1,0,0,0-.1.341h0A30.109,30.109,0,0,0,70.554,57.78Z" transform="translate(-25.353)" fill="#e6e6e6"/>
      <path id="Path_1186" data-name="Path 1186" d="M87.368,234.4l-2.192,2.825L73.73,245.7a37.886,37.886,0,0,0-2.143,4.238c0,.438-.828,22.454-.828,22.454s-1.461,22.26,1.072,26.5l.244-.292h0a24.553,24.553,0,0,0,2.094,5.114v1.948h35.167v-5.066a17.066,17.066,0,0,0,3.8-3.166c-2.533-7.647-2.143-18.655-2.143-18.655l1.072-10.424,8.67,23.136,3.069,7.355h2.143c.633,2.046,4.043,12.518,8.475,9.255,2.971-2.192,1.559-6.429,0-9.352.244-4.189-10.277-31.417-10.277-31.417s-5.942-16.95-6.381-20.75a6.385,6.385,0,0,0-2.971-5.066L101.3,235.52l-2.338-2.533h0l.39-2.241a9.4,9.4,0,0,0,4.14-5.5l.146.292A3.657,3.657,0,0,0,105,223.1a9.813,9.813,0,0,0-.1-2.922l2.874.292L105,218.715l.779-1.753h-1.9a32.763,32.763,0,0,0-4.871-6.868c-3.215-3.751-6.77-2.289-6.77-2.289l1.461,1.607c-5.163-.341-8.914,3.751-8.914,3.751l1.8.731c-4.676,2.679-1.413,11.836-1.413,11.836a2.828,2.828,0,0,0,.292-.536,9.507,9.507,0,0,0,2.192,3.994Zm-.049,1.12h0l.049-1.12Z" transform="translate(-36.078 -106.431)" fill="#e6e6e6"/>
      <path id="Path_1187" data-name="Path 1187" d="M115.3,515.2l-.974-13.054.438-.049s-.536-10.034-.536-12.567-3.361-3.9-3.361-3.9l-.877-.244-6.624-1.851c-1.51-1.948-1.753-5.017-1.559-7.745a64.9,64.9,0,0,0,10.521-2.533l-.731-6.478c1.8.731,2.533,5.748,2.533,5.748l2.874-.731a150.31,150.31,0,0,1-8.28-15.1c-3.263-7.16-8.28-5.407-8.28-5.407-5.942-2.874-9.839-.195-12.031,2.289a9.419,9.419,0,0,0-2.143,5.114c-.244,2.241-.974,5.845-3.117,7.745a20.446,20.446,0,0,0-4.335,5.017l1.072,1.072c0-2.143,1.461-2.533,1.461-2.533l-.341,2.533c2.922,2.484,6.917,3.556,11.105,3.8a11.288,11.288,0,0,1-4.627,4.043l-6.819,1.461c-1.413-.1-3.458.292-5.5,2.679-3.6,4.189-7.257,8.378-7.257,8.378l.438.487c-2.728,2.484-8.329,7.939-9.352,11.5-1.413,4.725,5.309,5.309,5.309,5.309l14.515,1.413s.292,6.673,2.776,7.55c.438.146.731-.1.925-.584,0,.584-.049,1.023-.049,1.315-2.289,2.094-3.9,7.745-5.017,14.466-.438,2.63-.779,5.455-1.12,8.28h40.915v-.584c0-.877-.049-1.754-.1-2.582a46.165,46.165,0,0,0-.731-5.114,50.6,50.6,0,0,0-7.16-16.561l16.366,13.2s-.292,11.154,4.481,10.862-.1-12.908-.1-12.908ZM67.859,504.042l5.212-5.407.39.39,4.773-2.874c.779,2.581,1.7,5.163,2.728,7.647a18.425,18.425,0,0,1,1.072,4.286Zm41.012,13.151a2.7,2.7,0,0,0-.292-.39h0c-.1-.584-.682-3.02-1.656-3.8-1.12-.828,0,0,.828-1.413s-.536-.828-1.12-1.12-1.12-1.948,1.12-5.017a2.707,2.707,0,0,0,.438-.828l.682,12.567Z" transform="translate(-30.159 -230.826)" fill="#e6e6e6"/>
      <path id="Path_1188" data-name="Path 1188" d="M239.577,611H201v43.837h43.837V616.26Z" transform="translate(-103.097 -313.382)" fill="#1e266d"/>
      <path id="Path_1189" data-name="Path 1189" d="M235.229,655.457a10.229,10.229,0,1,1,10.229-10.229A10.227,10.227,0,0,1,235.229,655.457Zm0-19.483a9.255,9.255,0,1,0,9.255,9.255A9.25,9.25,0,0,0,235.229,635.974Z" transform="translate(-115.407 -325.692)" fill="#fff"/>
      <path id="Path_1190" data-name="Path 1190" d="M239.577,376H201v43.837h43.837V381.26Z" transform="translate(-103.097 -192.845)" fill="#1e266d"/>
      <path id="Path_1191" data-name="Path 1191" d="M235.229,420.457a10.229,10.229,0,1,1,10.229-10.229h0A10.227,10.227,0,0,1,235.229,420.457Zm0-19.483a9.255,9.255,0,1,0,9.255,9.255h0A9.25,9.25,0,0,0,235.229,400.974Z" transform="translate(-115.407 -205.156)" fill="#fff"/>
      <path id="Path_1192" data-name="Path 1192" d="M239.577,149H201v43.837h43.837V154.26Z" transform="translate(-103.097 -76.413)" fill="#1e266d"/>
      <path id="Path_1193" data-name="Path 1193" d="M235.229,193.457a10.229,10.229,0,1,1,10.229-10.229h0A10.227,10.227,0,0,1,235.229,193.457Zm0-19.483a9.255,9.255,0,1,0,9.255,9.255h0A9.25,9.25,0,0,0,235.229,173.974Z" transform="translate(-115.407 -88.723)" fill="#fff"/>
      <path id="Path_1194" data-name="Path 1194" d="M490,127.87a76.123,76.123,0,0,1,122.939-11.349l-4.53,3.945a69.239,69.239,0,0,0-17.194-14.271,70.09,70.09,0,0,0-96.052,24.695Z" transform="translate(-251.331 -46.369)" fill="#d0cde1"/>
      <path id="Path_1195" data-name="Path 1195" d="M478.85,167.3l5.163,3.069a70.072,70.072,0,0,0,2.143,74.718l-4.968,3.361A76.089,76.089,0,0,1,478.85,167.3Z" transform="translate(-240.181 -85.799)" fill="#1e266d"/>
      <path id="Path_1196" data-name="Path 1196" d="M732,240.88a70.174,70.174,0,0,0,.584-92.935l4.53-3.945a76.129,76.129,0,0,1-.633,100.874Z" transform="translate(-375.457 -73.848)" fill="#3f3d56"/>
      <path id="Path_1197" data-name="Path 1197" d="M494.8,330.361,499.768,327a70.057,70.057,0,0,0,110.519,7.7l4.481,3.994A76.14,76.14,0,0,1,494.8,330.361Z" transform="translate(-253.793 -167.712)" fill="#1e266d"/>
      <path id="Path_1198" data-name="Path 1198" d="M349.2,370.88h80.709V336.2h1.266v35.947H349.2Z" transform="translate(-179.112 -172.431)" fill="#3f3d56"/>
      <circle id="Ellipse_249" data-name="Ellipse 249" cx="6.917" cy="6.917" r="6.917" transform="translate(244.514 162.697)" fill="#3f3d56"/>
      <rect id="Rectangle_848" data-name="Rectangle 848" width="37.846" height="1.266" transform="translate(152.066 210.869)" fill="#1e266d"/>
      <rect id="Rectangle_849" data-name="Rectangle 849" width="37.846" height="1.266" transform="translate(152.066 214.669)" fill="#1e266d"/>
      <rect id="Rectangle_850" data-name="Rectangle 850" width="37.846" height="1.266" transform="translate(152.066 218.468)" fill="#1e266d"/>
    </g>
  </g>
</svg>
