<svg id="Group_513" data-name="Group 513" xmlns="http://www.w3.org/2000/svg" width="317.728" height="218.41" viewBox="0 0 317.728 218.41">
  <g id="Group_259" data-name="Group 259" transform="translate(192.826 66.584)">
    <path id="Path_360" data-name="Path 360" d="M197.384,102.794l7.521,7.927L292.157,74.3Z" transform="translate(-170.049 -57.877)" fill="#0091f2"/>
    <path id="Path_361" data-name="Path 361" d="M200.083,59.6l-8.714,12.959L197.29,85.3,184.219,87.53,172.6,113l37.579-11.395L297.5,75.129Z" transform="translate(-172.6 -59.6)" fill="#0091f2" opacity="0.642"/>
    <path id="Path_362" data-name="Path 362" d="M195.321,83.936,189.4,71.2l67.7,3.24Z" transform="translate(-170.631 -58.241)" fill="#0091f2"/>
  </g>
  <g id="Group_260" data-name="Group 260" transform="translate(98.871 112.389)">
    <path id="Path_363" data-name="Path 363" d="M200.554,206.621h-2.9a1.613,1.613,0,0,1-1.676-1.788c.112-1.005.894-1.9,1.788-1.676,4.58,0,9.049,0,13.965-.223h.112a1.908,1.908,0,0,1,1.787,1.676,1.674,1.674,0,0,1-1.676,1.787C207.815,206.509,204.129,206.621,200.554,206.621Zm-16.981-.67h-.112c-4.8-.447-9.608-1.005-14.077-1.788a1.822,1.822,0,0,1-1.452-2.011,1.925,1.925,0,0,1,2.011-1.452c4.469.782,9.049,1.341,13.741,1.787a1.679,1.679,0,0,1,1.564,1.9A1.623,1.623,0,0,1,183.573,205.951Zm-27.595-5.027a1.007,1.007,0,0,1-.559-.112,105.621,105.621,0,0,1-13.295-5.139,1.775,1.775,0,0,1,1.452-3.24,104.969,104.969,0,0,0,12.848,4.916,1.749,1.749,0,0,1,1.117,2.234A1.566,1.566,0,0,1,155.978,200.923Zm-25.36-11.954a1.8,1.8,0,0,1-1.005-.335,95.767,95.767,0,0,1-11.284-8.826,1.74,1.74,0,0,1,2.346-2.57,88.453,88.453,0,0,0,10.837,8.491,1.785,1.785,0,0,1,.447,2.458A1.55,1.55,0,0,1,130.618,188.969ZM109.95,169.977a1.592,1.592,0,0,1-1.341-.67,84.948,84.948,0,0,1-8.044-11.842,1.725,1.725,0,1,1,3.016-1.676,88.614,88.614,0,0,0,7.709,11.4,1.864,1.864,0,0,1-.223,2.458A1.887,1.887,0,0,1,109.95,169.977ZM96.1,145.623a1.956,1.956,0,0,1-1.676-1.117,88.354,88.354,0,0,1-3.91-13.853,1.684,1.684,0,0,1,1.341-2.011,1.632,1.632,0,0,1,2.011,1.341,80.33,80.33,0,0,0,3.8,13.183,1.736,1.736,0,0,1-1.005,2.234C96.544,145.623,96.32,145.623,96.1,145.623ZM90.511,118.14a1.814,1.814,0,0,1-1.787-1.676c-.223-2.9-.223-5.921-.223-8.937v-.67c0-1.564,0-3.016.112-4.58A1.743,1.743,0,0,1,90.4,100.6h.112a1.74,1.74,0,0,1,1.676,1.787c0,1.452-.112,3.016-.112,4.469v.67c0,3.016.112,5.921.223,8.714a1.764,1.764,0,0,1-1.676,1.9Z" transform="translate(-88.5 -100.6)" fill="#0091f2"/>
  </g>
  <g id="Group_261" data-name="Group 261">
    <path id="Path_364" data-name="Path 364" d="M115.629,102.111c-2.681,0-5.363,0-7.932-.112a1.733,1.733,0,0,1,.112-3.463h0c4.469.112,9.161.112,13.965,0a1.616,1.616,0,0,1,1.787,1.676A1.743,1.743,0,0,1,121.885,102C119.762,102.111,117.64,102.111,115.629,102.111Zm20.221-.559a1.814,1.814,0,0,1-1.787-1.676,1.842,1.842,0,0,1,1.676-1.9c4.58-.223,9.273-.559,13.965-1.005a1.823,1.823,0,0,1,1.9,1.564,1.753,1.753,0,0,1-1.564,1.9c-4.692.559-9.5.894-14.188,1.117Zm-42.118-.223H93.62c-4.916-.335-9.608-.894-14.077-1.564a1.635,1.635,0,0,1-1.452-2.011A1.7,1.7,0,0,1,80.1,96.3c4.357.67,9.049,1.117,13.853,1.564a1.679,1.679,0,0,1,1.564,1.9A1.806,1.806,0,0,1,93.732,101.329Zm70.159-2.234A1.806,1.806,0,0,1,162.1,97.53a1.679,1.679,0,0,1,1.564-1.9c4.58-.559,9.161-1.117,13.965-1.787a1.754,1.754,0,0,1,.559,3.463c-4.8.67-9.384,1.341-13.965,1.787ZM65.914,97.307h-.335c-3.352-.782-6.7-1.564-9.831-2.57-1.341-.447-2.681-.782-3.91-1.229a1.766,1.766,0,0,1,1.117-3.352c1.229.447,2.57.782,3.8,1.229,3.016.894,6.256,1.787,9.608,2.458A1.8,1.8,0,0,1,67.7,95.966,2.027,2.027,0,0,1,65.914,97.307ZM39.325,88.369a2.071,2.071,0,0,1-.782-.223,84,84,0,0,1-12.4-7.262,1.766,1.766,0,0,1,2.011-2.9A87.162,87.162,0,0,0,40,85.018a1.708,1.708,0,0,1,.782,2.346A1.591,1.591,0,0,1,39.325,88.369Zm60.216-1.564a1.765,1.765,0,0,1-1.787-1.787v-.67c0-4.469-.223-8.937-.559-13.295a1.753,1.753,0,0,1,1.564-1.9,1.823,1.823,0,0,1,1.9,1.564c.335,4.469.559,9.049.559,13.63v.67A1.613,1.613,0,0,1,99.541,86.805Zm-82.9-14.859a2.321,2.321,0,0,1-1.341-.559,60.823,60.823,0,0,1-8.379-11.73,1.725,1.725,0,0,1,3.016-1.676,54.252,54.252,0,0,0,7.932,11.06,1.757,1.757,0,0,1-.112,2.458A1.707,1.707,0,0,1,16.646,71.947ZM97.307,58.652A1.6,1.6,0,0,1,95.631,57.2,114.366,114.366,0,0,0,92.5,43.682a1.7,1.7,0,0,1,1.229-2.123,1.62,1.62,0,0,1,2.123,1.229c1.229,4.357,2.346,9.049,3.24,13.965a1.7,1.7,0,0,1-1.452,2.011A.41.41,0,0,0,97.307,58.652ZM3.24,47.48A1.779,1.779,0,0,1,1.564,46.14a17.858,17.858,0,0,1-.559-2.346A31.091,31.091,0,0,1,0,36.085a28.994,28.994,0,0,1,.335-4.469,1.7,1.7,0,0,1,2.011-1.452A1.7,1.7,0,0,1,3.8,32.175,24.425,24.425,0,0,0,3.463,36.2a30.215,30.215,0,0,0,.894,6.927c.223.782.335,1.564.559,2.234A1.784,1.784,0,0,1,3.687,47.48ZM89.263,31.84A1.685,1.685,0,0,1,87.7,30.834a62,62,0,0,0-7.15-11.619,1.745,1.745,0,1,1,2.681-2.234,69.442,69.442,0,0,1,7.6,12.289,1.8,1.8,0,0,1-.782,2.346A2.842,2.842,0,0,1,89.263,31.84ZM7.6,20.78a1.56,1.56,0,0,1-1.005-.335,1.764,1.764,0,0,1-.335-2.458A40.406,40.406,0,0,1,17.2,8.267a1.7,1.7,0,0,1,2.346.67,1.815,1.815,0,0,1-.559,2.458A35.307,35.307,0,0,0,8.937,20.221,1.85,1.85,0,0,1,7.6,20.78ZM71.5,10.39a1.8,1.8,0,0,1-1.005-.335A39.16,39.16,0,0,0,58.205,4.692,1.7,1.7,0,0,1,56.977,2.57,1.784,1.784,0,0,1,59.1,1.341,44.8,44.8,0,0,1,72.505,7.15a1.9,1.9,0,0,1,.559,2.458A1.951,1.951,0,0,1,71.5,10.39ZM30.946,5.921A1.678,1.678,0,0,1,29.27,4.692,1.7,1.7,0,0,1,30.5,2.57,63.311,63.311,0,0,1,44.241.112L44.687,0a1.821,1.821,0,0,1,1.787,1.676A1.743,1.743,0,0,1,44.8,3.463h-.335A61.732,61.732,0,0,0,31.5,5.809,1.215,1.215,0,0,1,30.946,5.921Z" fill="#0091f2"/>
  </g>
</svg>
